%TF.GenerationSoftware,Flux,Pcbnew,7.0.11-7.0.11~ubuntu20.04.1*%
%TF.CreationDate,2024-06-09T09:19:31+00:00*%
%TF.ProjectId,input,696e7075-742e-46b6-9963-61645f706362,rev?*%
%TF.SameCoordinates,Original*%
%TF.FileFunction,Copper,L4,Bot*%
%TF.FilePolarity,Positive*%
%FSLAX46Y46*%
G04 Gerber Fmt 4.6, Leading zero omitted, Abs format (unit mm)*
G04 Filename: high-quality-audio-amplifier*
G04 Build it with Flux! Visit our site at: https://www.flux.ai (PCBNEW 7.0.11-7.0.11~ubuntu20.04.1) date 2024-06-09 09:19:31*
%MOMM*%
%LPD*%
G01*
G04 APERTURE LIST*
G04 Aperture macros list*
%AMFreePoly0*
4,1,5,0.762000,-0.762000,-0.762000,-0.762000,-0.762000,0.762000,0.762000,0.762000,0.762000,-0.762000,0.762000,-0.762000,$1*%
%AMFreePoly1*
4,1,5,1.400000,-1.400000,-1.400000,-1.400000,-1.400000,1.400000,1.400000,1.400000,1.400000,-1.400000,1.400000,-1.400000,$1*%
%AMFreePoly2*
4,1,5,0.900000,-0.900000,-0.900000,-0.900000,-0.900000,0.900000,0.900000,0.900000,0.900000,-0.900000,0.900000,-0.900000,$1*%
%AMFreePoly3*
4,1,129,0.022069,0.299187,0.036723,0.297744,0.051289,0.295583,0.065730,0.292711,0.080014,0.289133,0.094105,0.284858,0.107969,0.279898,0.121572,0.274263,0.134883,0.267967,0.147869,0.261026,0.160499,0.253456,0.172742,0.245275,0.184569,0.236504,0.195952,0.227163,0.206862,0.217274,0.217274,0.206862,0.227163,0.195952,0.236504,0.184569,0.245275,0.172742,0.253456,0.160499,
0.261026,0.147869,0.267967,0.134883,0.274263,0.121572,0.279898,0.107969,0.284858,0.094105,0.289133,0.080014,0.292711,0.065730,0.295583,0.051289,0.297744,0.036723,0.299187,0.022069,0.299910,0.007362,0.299910,-0.007362,0.299187,-0.022069,0.297744,-0.036723,0.295583,-0.051289,0.292711,-0.065730,0.289133,-0.080014,0.284858,-0.094105,0.279898,-0.107969,0.274263,-0.121572,
0.267967,-0.134883,0.261026,-0.147869,0.253456,-0.160499,0.245275,-0.172742,0.236504,-0.184569,0.227163,-0.195952,0.217274,-0.206862,0.206862,-0.217274,0.195952,-0.227163,0.184569,-0.236504,0.172742,-0.245275,0.160499,-0.253456,0.147869,-0.261026,0.134883,-0.267967,0.121572,-0.274263,0.107969,-0.279898,0.094105,-0.284858,0.080014,-0.289133,0.065730,-0.292711,0.051289,-0.295583,
0.036723,-0.297744,0.022069,-0.299187,0.007362,-0.299910,-0.007362,-0.299910,-0.022069,-0.299187,-0.036723,-0.297744,-0.051289,-0.295583,-0.065730,-0.292711,-0.080014,-0.289133,-0.094105,-0.284858,-0.107969,-0.279898,-0.121572,-0.274263,-0.134883,-0.267967,-0.147869,-0.261026,-0.160499,-0.253456,-0.172742,-0.245275,-0.184569,-0.236504,-0.195952,-0.227163,-0.206862,-0.217274,-0.217274,-0.206862,
-0.227163,-0.195952,-0.236504,-0.184569,-0.245275,-0.172742,-0.253456,-0.160499,-0.261026,-0.147869,-0.267967,-0.134883,-0.274263,-0.121572,-0.279898,-0.107969,-0.284858,-0.094105,-0.289133,-0.080014,-0.292711,-0.065730,-0.295583,-0.051289,-0.297744,-0.036723,-0.299187,-0.022069,-0.299910,-0.007362,-0.299910,0.007362,-0.299187,0.022069,-0.297744,0.036723,-0.295583,0.051289,-0.292711,0.065730,
-0.289133,0.080014,-0.284858,0.094105,-0.279898,0.107969,-0.274263,0.121572,-0.267967,0.134883,-0.261026,0.147869,-0.253456,0.160499,-0.245275,0.172742,-0.236504,0.184569,-0.227163,0.195952,-0.217274,0.206862,-0.206862,0.217274,-0.195952,0.227163,-0.184569,0.236504,-0.172742,0.245275,-0.160499,0.253456,-0.147869,0.261026,-0.134883,0.267967,-0.121572,0.274263,-0.107969,0.279898,
-0.094105,0.284858,-0.080014,0.289133,-0.065730,0.292711,-0.051289,0.295583,-0.036723,0.297744,-0.022069,0.299187,-0.007362,0.299910,0.007362,0.299910,0.022069,0.299187,0.022069,0.299187,$1*%
G04 Aperture macros list end*
%TA.AperFunction,ComponentPad*%
%ADD10C,1.600000*%
%TD*%
%TA.AperFunction,ComponentPad*%
%ADD11FreePoly0,0.000000*%
%TD*%
%TA.AperFunction,ComponentPad*%
%ADD12C,1.524000*%
%TD*%
%TA.AperFunction,ComponentPad*%
%ADD13C,2.800000*%
%TD*%
%TA.AperFunction,ComponentPad*%
%ADD14FreePoly1,270.000000*%
%TD*%
%TA.AperFunction,ComponentPad*%
%ADD15C,1.800000*%
%TD*%
%TA.AperFunction,ComponentPad*%
%ADD16FreePoly2,270.000000*%
%TD*%
%TA.AperFunction,ComponentPad*%
%ADD17C,3.000000*%
%TD*%
%TA.AperFunction,ComponentPad*%
%ADD18FreePoly2,0.000000*%
%TD*%
%TA.AperFunction,ComponentPad*%
%ADD19FreePoly1,0.000000*%
%TD*%
%TA.AperFunction,ComponentPad*%
%ADD20FreePoly3,0.000000*%
%TD*%
G04 APERTURE END LIST*
D10*
%TO.P,,4bd38d50-f10d-48c2-93c4-56d2c58a840e__3d0e5c81-2b94-2588-9270-cc0b63aae38c*%
%TO.N,N/C*%
X-6846400Y-19396300D03*
%TO.P,,4bd38d50-f10d-48c2-93c4-56d2c58a840e__a62acf30-473f-9fe2-0504-059f88965630*%
X-6846409Y-16896300D03*
D11*
%TO.P,,5b043353-0343-438d-a714-c94edd25ec6e__16639921-40cc-4205-89d3-3bd610961e17*%
X-17692800Y17136300D03*
D12*
%TO.P,,5b043353-0343-438d-a714-c94edd25ec6e__25e012b3-c4cd-475b-8d7d-fe2e89d97b89*%
X-17692800Y9516300D03*
%TO.P,,5b043353-0343-438d-a714-c94edd25ec6e__5fb57193-7c39-4e92-a400-440da518d614*%
X-10072800Y12056300D03*
%TO.P,,5b043353-0343-438d-a714-c94edd25ec6e__78f79f8d-2d28-4b9b-99a9-716e60b991f0*%
X-17692800Y12056300D03*
%TO.P,,5b043353-0343-438d-a714-c94edd25ec6e__889e423a-5473-4a6e-90ee-9f81973fe111*%
X-10072800Y9516300D03*
%TO.P,,5b043353-0343-438d-a714-c94edd25ec6e__8f9ae9d7-f9ab-4842-863e-45e532ac7024*%
X-17692800Y14596300D03*
%TO.P,,5b043353-0343-438d-a714-c94edd25ec6e__9f94c171-a7cb-486b-a984-a055fad3663c*%
X-10072800Y17136300D03*
%TO.P,,5b043353-0343-438d-a714-c94edd25ec6e__f9aa20ca-edf7-4b9b-84a2-ec042cced649*%
X-10072800Y14596300D03*
D13*
%TO.P,,62f1100b-d207-419b-a738-74b301b1434d__80087a97-39f9-8382-3c43-608f98a8909d*%
X-765790Y-27110700D03*
D14*
%TO.P,,62f1100b-d207-419b-a738-74b301b1434d__b49365bb-5f19-7cf1-d443-89d61725f0a2*%
X-765800Y-16950700D03*
D15*
%TO.P,,a0d03ff5-6a0e-4e79-99f8-954d9d5d18bc__04a2d059-560c-a07a-12f6-b740fdc5113a*%
X-12242897Y-11952100D03*
D16*
%TO.P,,a0d03ff5-6a0e-4e79-99f8-954d9d5d18bc__e82ec0ab-28d4-bcd5-2850-0f8de32b0c62*%
X-12242900Y-9412100D03*
D17*
%TO.P,,c3fea6c2-ec10-437e-bd62-7820804ad0e0__d1bf1f78-149c-16ba-0554-7c80c215e056*%
X8173400Y-96700D03*
%TO.P,,c3fea6c2-ec10-437e-bd62-7820804ad0e0__f17784dc-aff0-830b-41b7-9de780267be7*%
X27583400Y-96700D03*
D15*
%TO.P,,f64977ca-a50a-4324-92dc-9cac34273361__04a2d059-560c-a07a-12f6-b740fdc5113a*%
X1774200Y2253400D03*
D18*
%TO.P,,f64977ca-a50a-4324-92dc-9cac34273361__e82ec0ab-28d4-bcd5-2850-0f8de32b0c62*%
X-765800Y2253400D03*
D13*
%TO.P,,ff5a7362-c532-44f1-b853-bee96a9ad31b__80087a97-39f9-8382-3c43-608f98a8909d*%
X-4234500Y4834100D03*
D19*
%TO.P,,ff5a7362-c532-44f1-b853-bee96a9ad31b__b49365bb-5f19-7cf1-d443-89d61725f0a2*%
X-14394500Y4834100D03*
D20*
%TO.P,,98e39703-dbdc-42df-be6d-3f98e4aa542a.via4.4*%
%TO.N,GND*%
X27500000Y25000000D03*
%TO.P,,98e39703-dbdc-42df-be6d-3f98e4aa542a.via3.2*%
X-2500000Y10000000D03*
%TO.P,,98e39703-dbdc-42df-be6d-3f98e4aa542a.via2.4*%
X27500000Y-5000000D03*
%TO.P,,98e39703-dbdc-42df-be6d-3f98e4aa542a.via2.3*%
X12500000Y-5000000D03*
%TO.P,,98e39703-dbdc-42df-be6d-3f98e4aa542a.via1.4*%
X27500000Y-20000000D03*
%TO.P,,98e39703-dbdc-42df-be6d-3f98e4aa542a.via1.3*%
X12500000Y-20000000D03*
%TO.P,,98e39703-dbdc-42df-be6d-3f98e4aa542a.via1.2*%
X-2500000Y-20000000D03*
%TO.P,,98e39703-dbdc-42df-be6d-3f98e4aa542a.via4.3*%
X12500000Y25000000D03*
%TO.P,,98e39703-dbdc-42df-be6d-3f98e4aa542a.via.island.1*%
X-6762400Y-7309100D03*
%TO.P,,98e39703-dbdc-42df-be6d-3f98e4aa542a.via.island.0*%
X14817500Y10662000D03*
%TD*%
%TA.AperFunction,Conductor*%
%TO.N,GND*%
G36*
X32162000Y-34750000D02*
G01*
X-32162000Y-34750000D01*
X-32250000Y-34662000D01*
X-32250000Y-27022000D01*
X-1460000Y-27022000D01*
X-1460000Y-27201000D01*
X-1414000Y-27375000D01*
X-1412000Y-27380000D01*
X-1320000Y-27538000D01*
X-1193000Y-27665000D01*
X-1035000Y-27756000D01*
X-1034000Y-27757000D01*
X-855000Y-27805000D01*
X-676000Y-27805000D01*
X-495000Y-27756000D01*
X-496000Y-27756000D01*
X-339000Y-27665000D01*
X-210000Y-27537000D01*
X-209000Y-27536000D01*
X-120000Y-27380000D01*
X-119000Y-27379000D01*
X-72000Y-27201000D01*
X-72000Y-27022000D01*
X-120000Y-26842000D01*
X-211000Y-26684000D01*
X-339000Y-26556000D01*
X-497000Y-26465000D01*
X-496000Y-26465000D01*
X-676000Y-26417000D01*
X-856000Y-26417000D01*
X-1034000Y-26464000D01*
X-1035000Y-26465000D01*
X-1191000Y-26554000D01*
X-1192000Y-26555000D01*
X-1320000Y-26684000D01*
X-1412000Y-26842000D01*
X-1460000Y-27022000D01*
X-32250000Y-27022000D01*
X-32250000Y-19229000D01*
X-8140000Y-19229000D01*
X-8140000Y-19564000D01*
X-8051000Y-19897000D01*
X-8050000Y-19900000D01*
X-7882000Y-20189000D01*
X-7639000Y-20432000D01*
X-7350000Y-20599000D01*
X-7347000Y-20600000D01*
X-7014000Y-20689000D01*
X-6679000Y-20689000D01*
X-6346000Y-20600000D01*
X-6347000Y-20600000D01*
X-6051000Y-20430000D01*
X-5812000Y-20190000D01*
X-5811000Y-20189000D01*
X-5689505Y-19980000D01*
X-2649000Y-19980000D01*
X-2649000Y-20020000D01*
X-2639000Y-20057000D01*
X-2619000Y-20091000D01*
X-2591000Y-20119000D01*
X-2557000Y-20139000D01*
X-2520000Y-20149000D01*
X-2480000Y-20149000D01*
X-2443000Y-20139000D01*
X-2409000Y-20119000D01*
X-2381000Y-20091000D01*
X-2361000Y-20057000D01*
X-2351000Y-20020000D01*
X-2351000Y-19980000D01*
X12351000Y-19980000D01*
X12351000Y-20020000D01*
X12361000Y-20057000D01*
X12381000Y-20091000D01*
X12409000Y-20119000D01*
X12443000Y-20139000D01*
X12480000Y-20149000D01*
X12520000Y-20149000D01*
X12557000Y-20139000D01*
X12591000Y-20119000D01*
X12619000Y-20091000D01*
X12639000Y-20057000D01*
X12649000Y-20020000D01*
X12649000Y-19980000D01*
X27351000Y-19980000D01*
X27351000Y-20020000D01*
X27361000Y-20057000D01*
X27381000Y-20091000D01*
X27409000Y-20119000D01*
X27443000Y-20139000D01*
X27480000Y-20149000D01*
X27520000Y-20149000D01*
X27557000Y-20139000D01*
X27591000Y-20119000D01*
X27619000Y-20091000D01*
X27639000Y-20057000D01*
X27649000Y-20020000D01*
X27649000Y-19980000D01*
X27639000Y-19943000D01*
X27619000Y-19909000D01*
X27591000Y-19881000D01*
X27557000Y-19861000D01*
X27520000Y-19851000D01*
X27480000Y-19851000D01*
X27443000Y-19861000D01*
X27409000Y-19881000D01*
X27381000Y-19909000D01*
X27361000Y-19943000D01*
X27351000Y-19980000D01*
X12649000Y-19980000D01*
X12639000Y-19943000D01*
X12619000Y-19909000D01*
X12591000Y-19881000D01*
X12557000Y-19861000D01*
X12520000Y-19851000D01*
X12480000Y-19851000D01*
X12443000Y-19861000D01*
X12409000Y-19881000D01*
X12381000Y-19909000D01*
X12361000Y-19943000D01*
X12351000Y-19980000D01*
X-2351000Y-19980000D01*
X-2361000Y-19943000D01*
X-2381000Y-19909000D01*
X-2409000Y-19881000D01*
X-2443000Y-19861000D01*
X-2480000Y-19851000D01*
X-2520000Y-19851000D01*
X-2557000Y-19861000D01*
X-2591000Y-19881000D01*
X-2619000Y-19909000D01*
X-2639000Y-19943000D01*
X-2649000Y-19980000D01*
X-5689505Y-19980000D01*
X-5643000Y-19900000D01*
X-5642000Y-19897000D01*
X-5553000Y-19564000D01*
X-5553000Y-19229000D01*
X-5642000Y-18896000D01*
X-5642000Y-18895000D01*
X-5811000Y-18603000D01*
X-6053000Y-18361000D01*
X-6343000Y-18193000D01*
X-6346000Y-18192000D01*
X-6679000Y-18103000D01*
X-7015000Y-18103000D01*
X-7348000Y-18192000D01*
X-7641000Y-18363000D01*
X-7880000Y-18601000D01*
X-7881000Y-18602000D01*
X-8051000Y-18895000D01*
X-8051000Y-18896000D01*
X-8140000Y-19229000D01*
X-32250000Y-19229000D01*
X-32250000Y-16847000D01*
X-7243000Y-16847000D01*
X-7243000Y-16947000D01*
X-7215000Y-17050000D01*
X-7163000Y-17141000D01*
X-7091000Y-17213000D01*
X-7000000Y-17265000D01*
X-6897000Y-17293000D01*
X-6797000Y-17293000D01*
X-6691000Y-17265000D01*
X-6692000Y-17265000D01*
X-6604000Y-17215000D01*
X-6530000Y-17141000D01*
X-6478000Y-17050000D01*
X-6450000Y-16947000D01*
X-6450000Y-16847000D01*
X-6478000Y-16742000D01*
X-6528000Y-16654000D01*
X-6604000Y-16578000D01*
X-6692000Y-16528000D01*
X-6691000Y-16528000D01*
X-6796000Y-16500000D01*
X-6897000Y-16500000D01*
X-7000000Y-16528000D01*
X-7091000Y-16580000D01*
X-7165000Y-16654000D01*
X-7215000Y-16742000D01*
X-7243000Y-16847000D01*
X-32250000Y-16847000D01*
X-32250000Y-15051000D01*
X-2666000Y-15051000D01*
X-2666000Y-18851000D01*
X1134000Y-18851000D01*
X1134000Y-15051000D01*
X-2666000Y-15051000D01*
X-32250000Y-15051000D01*
X-32250000Y-8012000D01*
X-13643000Y-8012000D01*
X-13643000Y-10812000D01*
X-13334000Y-10812000D01*
X-13257000Y-10997000D01*
X-13357000Y-11097000D01*
X-13539000Y-11415000D01*
X-13635000Y-11772000D01*
X-13635000Y-12133000D01*
X-13539000Y-12491000D01*
X-13358000Y-12806000D01*
X-13099000Y-13065000D01*
X-12780000Y-13249000D01*
X-12779000Y-13250000D01*
X-12424000Y-13344000D01*
X-12061000Y-13344000D01*
X-11705000Y-13250000D01*
X-11704000Y-13249000D01*
X-11388000Y-13067000D01*
X-11128000Y-12807000D01*
X-10946000Y-12491000D01*
X-10945000Y-12490000D01*
X-10851000Y-12134000D01*
X-10851000Y-11823000D01*
X14260000Y-11823000D01*
X14260000Y-12771000D01*
X14508000Y-13696000D01*
X14509000Y-13699000D01*
X14983000Y-14520000D01*
X15660000Y-15197000D01*
X16481000Y-15671000D01*
X16484000Y-15672000D01*
X17409000Y-15920000D01*
X18358000Y-15920000D01*
X19283000Y-15672000D01*
X19286000Y-15671000D01*
X20107000Y-15197000D01*
X20108000Y-15196000D01*
X20782000Y-14521000D01*
X20783000Y-14520000D01*
X21258000Y-13699000D01*
X21259000Y-13696000D01*
X21506000Y-12771000D01*
X21506000Y-11823000D01*
X21259000Y-10897000D01*
X21258000Y-10894000D01*
X20783000Y-10073000D01*
X20107000Y-9397000D01*
X19286000Y-8922000D01*
X19283000Y-8921000D01*
X18358000Y-8674000D01*
X17409000Y-8674000D01*
X16484000Y-8921000D01*
X16481000Y-8922000D01*
X15660000Y-9397000D01*
X15659000Y-9398000D01*
X14984000Y-10072000D01*
X14983000Y-10073000D01*
X14508000Y-10897000D01*
X14260000Y-11823000D01*
X-10851000Y-11823000D01*
X-10851000Y-11771000D01*
X-10945000Y-11416000D01*
X-10946000Y-11415000D01*
X-11130000Y-11096000D01*
X-11229000Y-10997000D01*
X-11152000Y-10812000D01*
X-10843000Y-10812000D01*
X-10843000Y-8012000D01*
X-13643000Y-8012000D01*
X-32250000Y-8012000D01*
X-32250000Y-7290000D01*
X-6911000Y-7290000D01*
X-6911000Y-7329000D01*
X-6901000Y-7367000D01*
X-6881000Y-7400000D01*
X-6854000Y-7428000D01*
X-6820000Y-7448000D01*
X-6782000Y-7458000D01*
X-6743000Y-7458000D01*
X-6705000Y-7448000D01*
X-6671000Y-7428000D01*
X-6643000Y-7400000D01*
X-6624000Y-7367000D01*
X-6614000Y-7329000D01*
X-6614000Y-7290000D01*
X-6624000Y-7252000D01*
X-6643000Y-7218000D01*
X-6671000Y-7190000D01*
X-6705000Y-7171000D01*
X-6743000Y-7160000D01*
X-6782000Y-7160000D01*
X-6820000Y-7171000D01*
X-6854000Y-7190000D01*
X-6881000Y-7218000D01*
X-6901000Y-7252000D01*
X-6911000Y-7290000D01*
X-32250000Y-7290000D01*
X-32250000Y-4980000D01*
X12351000Y-4980000D01*
X12351000Y-5020000D01*
X12361000Y-5057000D01*
X12381000Y-5091000D01*
X12409000Y-5119000D01*
X12443000Y-5139000D01*
X12480000Y-5149000D01*
X12520000Y-5149000D01*
X12557000Y-5139000D01*
X12591000Y-5119000D01*
X12619000Y-5091000D01*
X12639000Y-5057000D01*
X12649000Y-5020000D01*
X12649000Y-4980000D01*
X27351000Y-4980000D01*
X27351000Y-5020000D01*
X27361000Y-5057000D01*
X27381000Y-5091000D01*
X27409000Y-5119000D01*
X27443000Y-5139000D01*
X27480000Y-5149000D01*
X27520000Y-5149000D01*
X27557000Y-5139000D01*
X27591000Y-5119000D01*
X27619000Y-5091000D01*
X27639000Y-5057000D01*
X27649000Y-5020000D01*
X27649000Y-4980000D01*
X27639000Y-4943000D01*
X27619000Y-4909000D01*
X27591000Y-4881000D01*
X27557000Y-4861000D01*
X27520000Y-4851000D01*
X27480000Y-4851000D01*
X27443000Y-4861000D01*
X27409000Y-4881000D01*
X27381000Y-4909000D01*
X27361000Y-4943000D01*
X27351000Y-4980000D01*
X12649000Y-4980000D01*
X12639000Y-4943000D01*
X12619000Y-4909000D01*
X12591000Y-4881000D01*
X12557000Y-4861000D01*
X12520000Y-4851000D01*
X12480000Y-4851000D01*
X12443000Y-4861000D01*
X12409000Y-4881000D01*
X12381000Y-4909000D01*
X12361000Y-4943000D01*
X12351000Y-4980000D01*
X-32250000Y-4980000D01*
X-32250000Y-2365000D01*
X-26936000Y-2365000D01*
X-26936000Y-2700000D01*
X-26847000Y-3032000D01*
X-26677000Y-3328000D01*
X-26438000Y-3567000D01*
X-26142000Y-3737000D01*
X-25810000Y-3826000D01*
X-25476000Y-3826000D01*
X-25143000Y-3737000D01*
X-25144000Y-3737000D01*
X-24848000Y-3567000D01*
X-24609000Y-3328000D01*
X-24439000Y-3032000D01*
X-24350000Y-2700000D01*
X-24350000Y-2365000D01*
X-19936000Y-2365000D01*
X-19936000Y-2700000D01*
X-19847000Y-3032000D01*
X-19677000Y-3328000D01*
X-19438000Y-3567000D01*
X-19142000Y-3737000D01*
X-18810000Y-3826000D01*
X-18476000Y-3826000D01*
X-18143000Y-3737000D01*
X-18144000Y-3737000D01*
X-17848000Y-3567000D01*
X-17609000Y-3328000D01*
X-17439000Y-3032000D01*
X-17350000Y-2700000D01*
X-17350000Y-2365000D01*
X-17439000Y-2033000D01*
X-17609000Y-1738000D01*
X-17848000Y-1499000D01*
X-18144000Y-1329000D01*
X-18143000Y-1329000D01*
X-18476000Y-1240000D01*
X-18810000Y-1240000D01*
X-19142000Y-1329000D01*
X-19438000Y-1499000D01*
X-19677000Y-1738000D01*
X-19847000Y-2033000D01*
X-19936000Y-2365000D01*
X-24350000Y-2365000D01*
X-24439000Y-2033000D01*
X-24609000Y-1738000D01*
X-24848000Y-1499000D01*
X-25144000Y-1329000D01*
X-25143000Y-1329000D01*
X-25476000Y-1240000D01*
X-25810000Y-1240000D01*
X-26142000Y-1329000D01*
X-26438000Y-1499000D01*
X-26677000Y-1738000D01*
X-26847000Y-2033000D01*
X-26936000Y-2365000D01*
X-32250000Y-2365000D01*
X-32250000Y0D01*
X7430000Y0D01*
X7430000Y-194000D01*
X7479000Y-380000D01*
X7482000Y-388000D01*
X7577000Y-552000D01*
X7718000Y-693000D01*
X7882000Y-788000D01*
X7885000Y-789000D01*
X8075000Y-840000D01*
X8270000Y-840000D01*
X8460000Y-790000D01*
X8461000Y-789000D01*
X8629000Y-693000D01*
X8630000Y-692000D01*
X8768000Y-553000D01*
X8769000Y-552000D01*
X8865000Y-387000D01*
X8917000Y-193000D01*
X8917000Y-1000D01*
X8872854Y162000D01*
X25596000Y162000D01*
X25596000Y-355000D01*
X25733000Y-865000D01*
X25994000Y-1318000D01*
X26364000Y-1688000D01*
X26812000Y-1947000D01*
X26815000Y-1948000D01*
X27325000Y-2084000D01*
X27842000Y-2084000D01*
X28352000Y-1948000D01*
X28351000Y-1948000D01*
X28803000Y-1688000D01*
X28804000Y-1687000D01*
X29173000Y-1317000D01*
X29174000Y-1316000D01*
X29433000Y-868000D01*
X29434000Y-865000D01*
X29571000Y-355000D01*
X29571000Y162000D01*
X29434000Y672000D01*
X29433000Y675000D01*
X29174000Y1122000D01*
X29173000Y1123000D01*
X28804000Y1493000D01*
X28803000Y1494000D01*
X28351000Y1754000D01*
X28352000Y1754000D01*
X27842000Y1890000D01*
X27325000Y1890000D01*
X26815000Y1754000D01*
X26812000Y1753000D01*
X26364000Y1494000D01*
X25994000Y1124000D01*
X25733000Y671000D01*
X25596000Y162000D01*
X8872854Y162000D01*
X8865000Y191000D01*
X8767000Y361000D01*
X8631000Y497000D01*
X8461000Y595000D01*
X8462000Y595000D01*
X8269000Y647000D01*
X8079000Y647000D01*
X7885000Y595000D01*
X7882000Y594000D01*
X7718000Y499000D01*
X7717000Y498000D01*
X7578000Y360000D01*
X7577000Y359000D01*
X7481000Y191000D01*
X7480000Y190000D01*
X7430000Y0D01*
X-32250000Y0D01*
X-32250000Y2313000D01*
X-1212000Y2313000D01*
X-1212000Y2193000D01*
X-1183000Y2083000D01*
X-1124000Y1980000D01*
X-1041000Y1897000D01*
X-1038000Y1895000D01*
X-943000Y1840000D01*
X-938000Y1838000D01*
X-823000Y1807000D01*
X-709000Y1807000D01*
X-594000Y1838000D01*
X-589000Y1840000D01*
X-494000Y1895000D01*
X-491000Y1897000D01*
X-408000Y1980000D01*
X-349000Y2083000D01*
X-320000Y2193000D01*
X-320000Y2313000D01*
X-349000Y2422000D01*
X-353000Y2432000D01*
X-354152Y2434000D01*
X382000Y2434000D01*
X382000Y2071000D01*
X478000Y1715000D01*
X660000Y1399000D01*
X918000Y1140000D01*
X1237000Y957000D01*
X1594000Y861000D01*
X1955000Y861000D01*
X2314000Y957000D01*
X2313000Y957000D01*
X2629000Y1138000D01*
X2630000Y1139000D01*
X2887000Y1398000D01*
X3071000Y1714000D01*
X3167000Y2071000D01*
X3167000Y2434000D01*
X3071000Y2793000D01*
X3070000Y2796000D01*
X2889000Y3108000D01*
X2629000Y3368000D01*
X2317000Y3549000D01*
X2314000Y3550000D01*
X1955000Y3646000D01*
X1594000Y3646000D01*
X1236000Y3550000D01*
X1233000Y3549000D01*
X920000Y3368000D01*
X659000Y3107000D01*
X478000Y2792000D01*
X382000Y2434000D01*
X-354152Y2434000D01*
X-406000Y2524000D01*
X-493000Y2611000D01*
X-592000Y2668000D01*
X-591000Y2668000D01*
X-709000Y2700000D01*
X-823000Y2700000D01*
X-940000Y2668000D01*
X-1039000Y2611000D01*
X-1126000Y2524000D01*
X-1179000Y2432000D01*
X-1183000Y2422000D01*
X-1212000Y2313000D01*
X-32250000Y2313000D01*
X-32250000Y6734000D01*
X-16294000Y6734000D01*
X-16294000Y2934000D01*
X-12494000Y2934000D01*
X-12494000Y5080000D01*
X-6123000Y5080000D01*
X-6123000Y4588000D01*
X-5993000Y4103000D01*
X-5992000Y4100000D01*
X-5746000Y3676000D01*
X-5745000Y3675000D01*
X-5395000Y3324000D01*
X-4964000Y3076000D01*
X-4480000Y2946000D01*
X-3989000Y2946000D01*
X-3504000Y3076000D01*
X-3505000Y3076000D01*
X-3074000Y3324000D01*
X-2724000Y3675000D01*
X-2723000Y3676000D01*
X-2477000Y4100000D01*
X-2476000Y4103000D01*
X-2346000Y4588000D01*
X-2346000Y5080000D01*
X-2476000Y5565000D01*
X-2477000Y5568000D01*
X-2723000Y5992000D01*
X-2724000Y5993000D01*
X-3075000Y6345000D01*
X-3076000Y6346000D01*
X-3505000Y6593000D01*
X-3504000Y6593000D01*
X-3989000Y6722000D01*
X-4480000Y6722000D01*
X-4964000Y6593000D01*
X-5393000Y6346000D01*
X-5394000Y6345000D01*
X-5745000Y5993000D01*
X-5746000Y5992000D01*
X-5992000Y5568000D01*
X-5993000Y5565000D01*
X-6123000Y5080000D01*
X-12494000Y5080000D01*
X-12494000Y6734000D01*
X-16294000Y6734000D01*
X-32250000Y6734000D01*
X-32250000Y9567000D01*
X-18096000Y9567000D01*
X-18096000Y9465000D01*
X-18067000Y9359000D01*
X-18013000Y9267000D01*
X-17942000Y9196000D01*
X-17848000Y9141000D01*
X-17744000Y9113000D01*
X-17642000Y9113000D01*
X-17537000Y9141000D01*
X-17443000Y9196000D01*
X-17371000Y9268000D01*
X-17318000Y9359000D01*
X-17290000Y9464000D01*
X-17290000Y9571000D01*
X-17315000Y9667000D01*
X-17315000Y9668000D01*
X-17371000Y9765000D01*
X-17444000Y9838000D01*
X-17540000Y9893000D01*
X-17638000Y9919000D01*
X-17745000Y9919000D01*
X-17848000Y9892000D01*
X-17849000Y9891000D01*
X-17941000Y9838000D01*
X-18013000Y9766000D01*
X-18068000Y9671000D01*
X-18096000Y9567000D01*
X-32250000Y9567000D01*
X-32250000Y12107000D01*
X-18096000Y12107000D01*
X-18096000Y12005000D01*
X-18067000Y11899000D01*
X-18013000Y11807000D01*
X-17942000Y11736000D01*
X-17848000Y11681000D01*
X-17744000Y11653000D01*
X-17642000Y11653000D01*
X-17537000Y11681000D01*
X-17443000Y11736000D01*
X-17371000Y11808000D01*
X-17318000Y11899000D01*
X-17290000Y12004000D01*
X-17290000Y12111000D01*
X-17315000Y12207000D01*
X-17315000Y12208000D01*
X-17371000Y12305000D01*
X-17444000Y12378000D01*
X-17540000Y12433000D01*
X-17638000Y12459000D01*
X-17745000Y12459000D01*
X-17848000Y12432000D01*
X-17849000Y12431000D01*
X-17941000Y12378000D01*
X-18013000Y12306000D01*
X-18068000Y12211000D01*
X-18096000Y12107000D01*
X-32250000Y12107000D01*
X-32250000Y14647000D01*
X-18096000Y14647000D01*
X-18096000Y14545000D01*
X-18067000Y14439000D01*
X-18013000Y14347000D01*
X-17942000Y14276000D01*
X-17848000Y14221000D01*
X-17744000Y14193000D01*
X-17642000Y14193000D01*
X-17537000Y14221000D01*
X-17443000Y14276000D01*
X-17371000Y14348000D01*
X-17318000Y14439000D01*
X-17290000Y14544000D01*
X-17290000Y14651000D01*
X-17315000Y14747000D01*
X-17315000Y14748000D01*
X-17371000Y14845000D01*
X-17444000Y14918000D01*
X-17540000Y14973000D01*
X-17638000Y14999000D01*
X-17745000Y14999000D01*
X-17848000Y14972000D01*
X-17849000Y14971000D01*
X-17941000Y14918000D01*
X-18013000Y14846000D01*
X-18068000Y14751000D01*
X-18096000Y14647000D01*
X-32250000Y14647000D01*
X-32250000Y18398000D01*
X-18955000Y18398000D01*
X-18955000Y15874000D01*
X-16431000Y15874000D01*
X-16431000Y17300000D01*
X-11328000Y17300000D01*
X-11328000Y16973000D01*
X-11243000Y16652000D01*
X-11242000Y16651000D01*
X-11078000Y16366000D01*
X-10843000Y16131000D01*
X-10534000Y15953000D01*
X-10534000Y15779000D01*
X-10845000Y15600000D01*
X-11077000Y15367000D01*
X-11078000Y15366000D01*
X-11241000Y15085000D01*
X-11244000Y15077000D01*
X-11328000Y14760000D01*
X-11328000Y14433000D01*
X-11243000Y14112000D01*
X-11242000Y14111000D01*
X-11078000Y13826000D01*
X-10843000Y13591000D01*
X-10534000Y13413000D01*
X-10534000Y13239000D01*
X-10845000Y13060000D01*
X-11077000Y12827000D01*
X-11078000Y12826000D01*
X-11241000Y12545000D01*
X-11244000Y12537000D01*
X-11328000Y12220000D01*
X-11328000Y11893000D01*
X-11243000Y11572000D01*
X-11242000Y11571000D01*
X-11078000Y11286000D01*
X-10843000Y11051000D01*
X-10534000Y10873000D01*
X-10534000Y10699000D01*
X-10845000Y10520000D01*
X-11077000Y10287000D01*
X-11078000Y10286000D01*
X-11241000Y10005000D01*
X-11244000Y9997000D01*
X-11328000Y9680000D01*
X-11328000Y9353000D01*
X-11243000Y9032000D01*
X-11242000Y9031000D01*
X-11078000Y8746000D01*
X-10843000Y8511000D01*
X-10558000Y8347000D01*
X-10557000Y8346000D01*
X-10236000Y8261000D01*
X-9909000Y8261000D01*
X-9589000Y8346000D01*
X-9584000Y8348000D01*
X-9303000Y8511000D01*
X-9302000Y8512000D01*
X-9069000Y8744000D01*
X-8904000Y9031000D01*
X-8817000Y9351000D01*
X-8817000Y9681000D01*
X-8904000Y10003000D01*
X-8913842Y10020000D01*
X-2649000Y10020000D01*
X-2649000Y9980000D01*
X-2639000Y9943000D01*
X-2619000Y9909000D01*
X-2591000Y9881000D01*
X-2557000Y9861000D01*
X-2520000Y9851000D01*
X-2480000Y9851000D01*
X-2443000Y9861000D01*
X-2409000Y9881000D01*
X-2381000Y9909000D01*
X-2361000Y9943000D01*
X-2351000Y9980000D01*
X-2351000Y10020000D01*
X-2361000Y10057000D01*
X-2381000Y10091000D01*
X-2409000Y10119000D01*
X-2443000Y10139000D01*
X-2480000Y10149000D01*
X-2520000Y10149000D01*
X-2557000Y10139000D01*
X-2591000Y10119000D01*
X-2619000Y10091000D01*
X-2639000Y10057000D01*
X-2649000Y10020000D01*
X-8913842Y10020000D01*
X-9069000Y10288000D01*
X-9301000Y10520000D01*
X-9581559Y10682000D01*
X14669000Y10682000D01*
X14669000Y10642000D01*
X14679000Y10605000D01*
X14698000Y10571000D01*
X14726000Y10543000D01*
X14760000Y10523000D01*
X14798000Y10513000D01*
X14837000Y10513000D01*
X14875000Y10523000D01*
X14909000Y10543000D01*
X14937000Y10571000D01*
X14956000Y10605000D01*
X14966000Y10642000D01*
X14966000Y10682000D01*
X14956000Y10719000D01*
X14937000Y10753000D01*
X14909000Y10781000D01*
X14875000Y10801000D01*
X14837000Y10811000D01*
X14798000Y10811000D01*
X14760000Y10801000D01*
X14726000Y10781000D01*
X14698000Y10753000D01*
X14679000Y10719000D01*
X14669000Y10682000D01*
X-9581559Y10682000D01*
X-9611000Y10699000D01*
X-9611000Y10872000D01*
X-9303000Y11051000D01*
X-9302000Y11052000D01*
X-9069000Y11284000D01*
X-8904000Y11571000D01*
X-8817000Y11891000D01*
X-8817000Y12221000D01*
X-8904000Y12543000D01*
X-9069000Y12828000D01*
X-9301000Y13060000D01*
X-9611000Y13239000D01*
X-9611000Y13412000D01*
X-9303000Y13591000D01*
X-9302000Y13592000D01*
X-9069000Y13824000D01*
X-8904000Y14111000D01*
X-8817000Y14431000D01*
X-8817000Y14761000D01*
X-8904000Y15083000D01*
X-9069000Y15368000D01*
X-9301000Y15600000D01*
X-9611000Y15779000D01*
X-9611000Y15952000D01*
X-9303000Y16131000D01*
X-9302000Y16132000D01*
X-9069000Y16364000D01*
X-8904000Y16651000D01*
X-8817000Y16972000D01*
X-8817000Y17301000D01*
X-8904000Y17623000D01*
X-9069000Y17908000D01*
X-9301000Y18140000D01*
X-9586000Y18305000D01*
X-9585000Y18305000D01*
X-9908000Y18392000D01*
X-10237000Y18392000D01*
X-10558000Y18305000D01*
X-10845000Y18140000D01*
X-11077000Y17907000D01*
X-11078000Y17906000D01*
X-11241000Y17625000D01*
X-11244000Y17617000D01*
X-11328000Y17300000D01*
X-16431000Y17300000D01*
X-16431000Y18398000D01*
X-18955000Y18398000D01*
X-32250000Y18398000D01*
X-32250000Y25020000D01*
X12351000Y25020000D01*
X12351000Y24980000D01*
X12361000Y24943000D01*
X12381000Y24909000D01*
X12409000Y24881000D01*
X12443000Y24861000D01*
X12480000Y24851000D01*
X12520000Y24851000D01*
X12557000Y24861000D01*
X12591000Y24881000D01*
X12619000Y24909000D01*
X12639000Y24943000D01*
X12649000Y24980000D01*
X12649000Y25020000D01*
X27351000Y25020000D01*
X27351000Y24980000D01*
X27361000Y24943000D01*
X27381000Y24909000D01*
X27409000Y24881000D01*
X27443000Y24861000D01*
X27480000Y24851000D01*
X27520000Y24851000D01*
X27557000Y24861000D01*
X27591000Y24881000D01*
X27619000Y24909000D01*
X27639000Y24943000D01*
X27649000Y24980000D01*
X27649000Y25020000D01*
X27639000Y25057000D01*
X27619000Y25091000D01*
X27591000Y25119000D01*
X27557000Y25139000D01*
X27520000Y25149000D01*
X27480000Y25149000D01*
X27443000Y25139000D01*
X27409000Y25119000D01*
X27381000Y25091000D01*
X27361000Y25057000D01*
X27351000Y25020000D01*
X12649000Y25020000D01*
X12639000Y25057000D01*
X12619000Y25091000D01*
X12591000Y25119000D01*
X12557000Y25139000D01*
X12520000Y25149000D01*
X12480000Y25149000D01*
X12443000Y25139000D01*
X12409000Y25119000D01*
X12381000Y25091000D01*
X12361000Y25057000D01*
X12351000Y25020000D01*
X-32250000Y25020000D01*
X-32250000Y34662000D01*
X-32162000Y34750000D01*
X32162000Y34750000D01*
X32250000Y34662000D01*
X32250000Y-34662000D01*
X32162000Y-34750000D01*
G37*
%TD.AperFunction*%
%TD*%
M02*
