%TF.GenerationSoftware,Flux,Pcbnew,7.0.11-7.0.11~ubuntu20.04.1*%
%TF.CreationDate,2024-06-09T09:19:31+00:00*%
%TF.ProjectId,input,696e7075-742e-46b6-9963-61645f706362,rev?*%
%TF.SameCoordinates,Original*%
%TF.FileFunction,Soldermask,Top*%
%TF.FilePolarity,Negative*%
%FSLAX46Y46*%
G04 Gerber Fmt 4.6, Leading zero omitted, Abs format (unit mm)*
G04 Filename: high-quality-audio-amplifier*
G04 Build it with Flux! Visit our site at: https://www.flux.ai (PCBNEW 7.0.11-7.0.11~ubuntu20.04.1) date 2024-06-09 09:19:31*
%MOMM*%
%LPD*%
G01*
G04 APERTURE LIST*
G04 APERTURE END LIST*
%TO.C,*%
G36*
X-6787548Y-18598468D02*
G01*
X-6748471Y-18602316D01*
X-6709630Y-18608078D01*
X-6671119Y-18615738D01*
X-6633030Y-18625279D01*
X-6595455Y-18636677D01*
X-6558484Y-18649906D01*
X-6522207Y-18664932D01*
X-6486711Y-18681721D01*
X-6452081Y-18700230D01*
X-6418402Y-18720417D01*
X-6385753Y-18742232D01*
X-6354215Y-18765623D01*
X-6323862Y-18790533D01*
X-6294768Y-18816902D01*
X-6267002Y-18844668D01*
X-6240633Y-18873762D01*
X-6215723Y-18904115D01*
X-6192332Y-18935653D01*
X-6170517Y-18968302D01*
X-6150330Y-19001981D01*
X-6131821Y-19036611D01*
X-6115032Y-19072107D01*
X-6100006Y-19108384D01*
X-6086777Y-19145355D01*
X-6075379Y-19182930D01*
X-6065838Y-19221019D01*
X-6058178Y-19259530D01*
X-6052416Y-19298371D01*
X-6048568Y-19337448D01*
X-6046641Y-19376667D01*
X-6046641Y-19415933D01*
X-6048568Y-19455152D01*
X-6052416Y-19494229D01*
X-6058178Y-19533070D01*
X-6065838Y-19571581D01*
X-6075379Y-19609670D01*
X-6086777Y-19647245D01*
X-6100006Y-19684216D01*
X-6115032Y-19720493D01*
X-6131821Y-19755989D01*
X-6150330Y-19790619D01*
X-6170517Y-19824298D01*
X-6192332Y-19856947D01*
X-6215723Y-19888485D01*
X-6240633Y-19918838D01*
X-6267002Y-19947932D01*
X-6294768Y-19975698D01*
X-6323862Y-20002067D01*
X-6354215Y-20026977D01*
X-6385753Y-20050368D01*
X-6418402Y-20072183D01*
X-6452081Y-20092370D01*
X-6486711Y-20110879D01*
X-6522207Y-20127668D01*
X-6558484Y-20142694D01*
X-6595455Y-20155923D01*
X-6633030Y-20167321D01*
X-6671119Y-20176862D01*
X-6709630Y-20184522D01*
X-6748471Y-20190284D01*
X-6787548Y-20194132D01*
X-6826767Y-20196059D01*
X-6866033Y-20196059D01*
X-6905252Y-20194132D01*
X-6944329Y-20190284D01*
X-6983170Y-20184522D01*
X-7021681Y-20176862D01*
X-7059770Y-20167321D01*
X-7097345Y-20155923D01*
X-7134316Y-20142694D01*
X-7170593Y-20127668D01*
X-7206089Y-20110879D01*
X-7240719Y-20092370D01*
X-7274398Y-20072183D01*
X-7307047Y-20050368D01*
X-7338585Y-20026977D01*
X-7368938Y-20002067D01*
X-7398032Y-19975698D01*
X-7425798Y-19947932D01*
X-7452167Y-19918838D01*
X-7477077Y-19888485D01*
X-7500468Y-19856947D01*
X-7522283Y-19824298D01*
X-7542470Y-19790619D01*
X-7560979Y-19755989D01*
X-7577768Y-19720493D01*
X-7592794Y-19684216D01*
X-7606023Y-19647245D01*
X-7617421Y-19609670D01*
X-7626962Y-19571581D01*
X-7634622Y-19533070D01*
X-7640384Y-19494229D01*
X-7644232Y-19455152D01*
X-7646159Y-19415933D01*
X-7646159Y-19406116D01*
X-7246280Y-19406116D01*
X-7245316Y-19425726D01*
X-7243392Y-19445264D01*
X-7240511Y-19464685D01*
X-7236681Y-19483940D01*
X-7231910Y-19502985D01*
X-7226211Y-19521773D01*
X-7219597Y-19540258D01*
X-7212084Y-19558397D01*
X-7203690Y-19576145D01*
X-7194435Y-19593459D01*
X-7184341Y-19610299D01*
X-7173434Y-19626623D01*
X-7161739Y-19642393D01*
X-7149284Y-19657569D01*
X-7136099Y-19672116D01*
X-7122216Y-19685999D01*
X-7107669Y-19699184D01*
X-7092493Y-19711639D01*
X-7076723Y-19723334D01*
X-7060399Y-19734241D01*
X-7043559Y-19744335D01*
X-7026245Y-19753590D01*
X-7008497Y-19761984D01*
X-6990358Y-19769497D01*
X-6971873Y-19776111D01*
X-6953085Y-19781810D01*
X-6934040Y-19786581D01*
X-6914785Y-19790411D01*
X-6895364Y-19793292D01*
X-6875826Y-19795216D01*
X-6856216Y-19796180D01*
X-6836584Y-19796180D01*
X-6816974Y-19795216D01*
X-6797436Y-19793292D01*
X-6778015Y-19790411D01*
X-6758760Y-19786581D01*
X-6739715Y-19781810D01*
X-6720927Y-19776111D01*
X-6702442Y-19769497D01*
X-6684303Y-19761984D01*
X-6666555Y-19753590D01*
X-6649241Y-19744335D01*
X-6632401Y-19734241D01*
X-6616077Y-19723334D01*
X-6600307Y-19711639D01*
X-6585131Y-19699184D01*
X-6570584Y-19685999D01*
X-6556701Y-19672116D01*
X-6543516Y-19657569D01*
X-6531061Y-19642393D01*
X-6519366Y-19626623D01*
X-6508459Y-19610299D01*
X-6498365Y-19593459D01*
X-6489110Y-19576145D01*
X-6480716Y-19558397D01*
X-6473203Y-19540258D01*
X-6466589Y-19521773D01*
X-6460890Y-19502985D01*
X-6456119Y-19483940D01*
X-6452289Y-19464685D01*
X-6449408Y-19445264D01*
X-6447484Y-19425726D01*
X-6446520Y-19406116D01*
X-6446520Y-19386484D01*
X-6447484Y-19366874D01*
X-6449408Y-19347336D01*
X-6452289Y-19327915D01*
X-6456119Y-19308660D01*
X-6460890Y-19289615D01*
X-6466589Y-19270827D01*
X-6473203Y-19252342D01*
X-6480716Y-19234203D01*
X-6489110Y-19216455D01*
X-6498365Y-19199141D01*
X-6508459Y-19182301D01*
X-6519366Y-19165977D01*
X-6531061Y-19150207D01*
X-6543516Y-19135031D01*
X-6556701Y-19120484D01*
X-6570584Y-19106601D01*
X-6585131Y-19093416D01*
X-6600307Y-19080961D01*
X-6616077Y-19069266D01*
X-6632401Y-19058359D01*
X-6649241Y-19048265D01*
X-6666555Y-19039010D01*
X-6684303Y-19030616D01*
X-6702442Y-19023103D01*
X-6720927Y-19016489D01*
X-6739715Y-19010790D01*
X-6758760Y-19006019D01*
X-6778015Y-19002189D01*
X-6797436Y-18999308D01*
X-6816974Y-18997384D01*
X-6836584Y-18996420D01*
X-6856216Y-18996420D01*
X-6875826Y-18997384D01*
X-6895364Y-18999308D01*
X-6914785Y-19002189D01*
X-6934040Y-19006019D01*
X-6953085Y-19010790D01*
X-6971873Y-19016489D01*
X-6990358Y-19023103D01*
X-7008497Y-19030616D01*
X-7026245Y-19039010D01*
X-7043559Y-19048265D01*
X-7060399Y-19058359D01*
X-7076723Y-19069266D01*
X-7092493Y-19080961D01*
X-7107669Y-19093416D01*
X-7122216Y-19106601D01*
X-7136099Y-19120484D01*
X-7149284Y-19135031D01*
X-7161739Y-19150207D01*
X-7173434Y-19165977D01*
X-7184341Y-19182301D01*
X-7194435Y-19199141D01*
X-7203690Y-19216455D01*
X-7212084Y-19234203D01*
X-7219597Y-19252342D01*
X-7226211Y-19270827D01*
X-7231910Y-19289615D01*
X-7236681Y-19308660D01*
X-7240511Y-19327915D01*
X-7243392Y-19347336D01*
X-7245316Y-19366874D01*
X-7246280Y-19386484D01*
X-7246280Y-19406116D01*
X-7646159Y-19406116D01*
X-7646159Y-19376667D01*
X-7644232Y-19337448D01*
X-7640384Y-19298371D01*
X-7634622Y-19259530D01*
X-7626962Y-19221019D01*
X-7617421Y-19182930D01*
X-7606023Y-19145355D01*
X-7592794Y-19108384D01*
X-7577768Y-19072107D01*
X-7560979Y-19036611D01*
X-7542470Y-19001981D01*
X-7522283Y-18968302D01*
X-7500468Y-18935653D01*
X-7477077Y-18904115D01*
X-7452167Y-18873762D01*
X-7425798Y-18844668D01*
X-7398032Y-18816902D01*
X-7368938Y-18790533D01*
X-7338585Y-18765623D01*
X-7307047Y-18742232D01*
X-7274398Y-18720417D01*
X-7240719Y-18700230D01*
X-7206089Y-18681721D01*
X-7170593Y-18664932D01*
X-7134316Y-18649906D01*
X-7097345Y-18636677D01*
X-7059770Y-18625279D01*
X-7021681Y-18615738D01*
X-6983170Y-18608078D01*
X-6944329Y-18602316D01*
X-6905252Y-18598468D01*
X-6866033Y-18596541D01*
X-6826767Y-18596541D01*
X-6787548Y-18598468D01*
G37*
G36*
X-6787558Y-16098468D02*
G01*
X-6748481Y-16102316D01*
X-6709640Y-16108078D01*
X-6671128Y-16115738D01*
X-6633039Y-16125279D01*
X-6595464Y-16136677D01*
X-6558493Y-16149906D01*
X-6522216Y-16164932D01*
X-6486720Y-16181721D01*
X-6452091Y-16200230D01*
X-6418411Y-16220417D01*
X-6385763Y-16242232D01*
X-6354224Y-16265623D01*
X-6323871Y-16290533D01*
X-6294777Y-16316902D01*
X-6267012Y-16344668D01*
X-6240642Y-16373762D01*
X-6215732Y-16404115D01*
X-6192341Y-16435653D01*
X-6170526Y-16468302D01*
X-6150340Y-16501981D01*
X-6131830Y-16536611D01*
X-6115041Y-16572107D01*
X-6100015Y-16608384D01*
X-6086787Y-16645355D01*
X-6075388Y-16682930D01*
X-6065847Y-16721019D01*
X-6058187Y-16759530D01*
X-6052426Y-16798371D01*
X-6048577Y-16837448D01*
X-6046650Y-16876667D01*
X-6046650Y-16915933D01*
X-6048577Y-16955152D01*
X-6052426Y-16994229D01*
X-6058187Y-17033070D01*
X-6065847Y-17071581D01*
X-6075388Y-17109670D01*
X-6086787Y-17147245D01*
X-6100015Y-17184216D01*
X-6115041Y-17220493D01*
X-6131830Y-17255989D01*
X-6150340Y-17290619D01*
X-6170526Y-17324298D01*
X-6192341Y-17356947D01*
X-6215732Y-17388485D01*
X-6240642Y-17418838D01*
X-6267012Y-17447932D01*
X-6294777Y-17475698D01*
X-6323871Y-17502067D01*
X-6354224Y-17526977D01*
X-6385763Y-17550368D01*
X-6418411Y-17572183D01*
X-6452091Y-17592370D01*
X-6486720Y-17610879D01*
X-6522216Y-17627668D01*
X-6558493Y-17642694D01*
X-6595464Y-17655923D01*
X-6633039Y-17667321D01*
X-6671128Y-17676862D01*
X-6709640Y-17684522D01*
X-6748481Y-17690284D01*
X-6787558Y-17694132D01*
X-6826776Y-17696059D01*
X-6866042Y-17696059D01*
X-6905261Y-17694132D01*
X-6944338Y-17690284D01*
X-6983179Y-17684522D01*
X-7021690Y-17676862D01*
X-7059779Y-17667321D01*
X-7097355Y-17655923D01*
X-7134325Y-17642694D01*
X-7170602Y-17627668D01*
X-7206098Y-17610879D01*
X-7240728Y-17592370D01*
X-7274407Y-17572183D01*
X-7307056Y-17550368D01*
X-7338594Y-17526977D01*
X-7368947Y-17502067D01*
X-7398042Y-17475698D01*
X-7425807Y-17447932D01*
X-7452176Y-17418838D01*
X-7477086Y-17388485D01*
X-7500477Y-17356947D01*
X-7522292Y-17324298D01*
X-7542479Y-17290619D01*
X-7560989Y-17255989D01*
X-7577777Y-17220493D01*
X-7592803Y-17184216D01*
X-7606032Y-17147245D01*
X-7617430Y-17109670D01*
X-7626971Y-17071581D01*
X-7634631Y-17033070D01*
X-7640393Y-16994229D01*
X-7644242Y-16955152D01*
X-7646168Y-16915933D01*
X-7646168Y-16906116D01*
X-7246289Y-16906116D01*
X-7245325Y-16925726D01*
X-7243401Y-16945264D01*
X-7240520Y-16964685D01*
X-7236690Y-16983940D01*
X-7231920Y-17002985D01*
X-7226220Y-17021773D01*
X-7219606Y-17040258D01*
X-7212093Y-17058397D01*
X-7203699Y-17076145D01*
X-7194444Y-17093459D01*
X-7184351Y-17110299D01*
X-7173443Y-17126623D01*
X-7161748Y-17142393D01*
X-7149293Y-17157569D01*
X-7136108Y-17172116D01*
X-7122225Y-17185999D01*
X-7107678Y-17199184D01*
X-7092502Y-17211639D01*
X-7076732Y-17223334D01*
X-7060408Y-17234241D01*
X-7043568Y-17244335D01*
X-7026254Y-17253590D01*
X-7008506Y-17261984D01*
X-6990367Y-17269497D01*
X-6971882Y-17276111D01*
X-6953094Y-17281810D01*
X-6934050Y-17286581D01*
X-6914794Y-17290411D01*
X-6895373Y-17293292D01*
X-6875835Y-17295216D01*
X-6856226Y-17296180D01*
X-6836593Y-17296180D01*
X-6816983Y-17295216D01*
X-6797445Y-17293292D01*
X-6778024Y-17290411D01*
X-6758769Y-17286581D01*
X-6739724Y-17281810D01*
X-6720936Y-17276111D01*
X-6702451Y-17269497D01*
X-6684313Y-17261984D01*
X-6666565Y-17253590D01*
X-6649250Y-17244335D01*
X-6632410Y-17234241D01*
X-6616086Y-17223334D01*
X-6600317Y-17211639D01*
X-6585140Y-17199184D01*
X-6570593Y-17185999D01*
X-6556710Y-17172116D01*
X-6543526Y-17157569D01*
X-6531071Y-17142393D01*
X-6519375Y-17126623D01*
X-6508468Y-17110299D01*
X-6498374Y-17093459D01*
X-6489119Y-17076145D01*
X-6480725Y-17058397D01*
X-6473212Y-17040258D01*
X-6466598Y-17021773D01*
X-6460899Y-17002985D01*
X-6456128Y-16983940D01*
X-6452298Y-16964685D01*
X-6449417Y-16945264D01*
X-6447493Y-16925726D01*
X-6446530Y-16906116D01*
X-6446530Y-16886484D01*
X-6447493Y-16866874D01*
X-6449417Y-16847336D01*
X-6452298Y-16827915D01*
X-6456128Y-16808660D01*
X-6460899Y-16789615D01*
X-6466598Y-16770827D01*
X-6473212Y-16752342D01*
X-6480725Y-16734203D01*
X-6489119Y-16716455D01*
X-6498374Y-16699141D01*
X-6508468Y-16682301D01*
X-6519375Y-16665977D01*
X-6531071Y-16650207D01*
X-6543526Y-16635031D01*
X-6556710Y-16620484D01*
X-6570593Y-16606601D01*
X-6585140Y-16593416D01*
X-6600317Y-16580961D01*
X-6616086Y-16569266D01*
X-6632410Y-16558359D01*
X-6649250Y-16548265D01*
X-6666565Y-16539010D01*
X-6684313Y-16530616D01*
X-6702451Y-16523103D01*
X-6720936Y-16516489D01*
X-6739724Y-16510790D01*
X-6758769Y-16506019D01*
X-6778024Y-16502189D01*
X-6797445Y-16499308D01*
X-6816983Y-16497384D01*
X-6836593Y-16496420D01*
X-6856226Y-16496420D01*
X-6875835Y-16497384D01*
X-6895373Y-16499308D01*
X-6914794Y-16502189D01*
X-6934050Y-16506019D01*
X-6953094Y-16510790D01*
X-6971882Y-16516489D01*
X-6990367Y-16523103D01*
X-7008506Y-16530616D01*
X-7026254Y-16539010D01*
X-7043568Y-16548265D01*
X-7060408Y-16558359D01*
X-7076732Y-16569266D01*
X-7092502Y-16580961D01*
X-7107678Y-16593416D01*
X-7122225Y-16606601D01*
X-7136108Y-16620484D01*
X-7149293Y-16635031D01*
X-7161748Y-16650207D01*
X-7173443Y-16665977D01*
X-7184351Y-16682301D01*
X-7194444Y-16699141D01*
X-7203699Y-16716455D01*
X-7212093Y-16734203D01*
X-7219606Y-16752342D01*
X-7226220Y-16770827D01*
X-7231920Y-16789615D01*
X-7236690Y-16808660D01*
X-7240520Y-16827915D01*
X-7243401Y-16847336D01*
X-7245325Y-16866874D01*
X-7246289Y-16886484D01*
X-7246289Y-16906116D01*
X-7646168Y-16906116D01*
X-7646168Y-16876667D01*
X-7644242Y-16837448D01*
X-7640393Y-16798371D01*
X-7634631Y-16759530D01*
X-7626971Y-16721019D01*
X-7617430Y-16682930D01*
X-7606032Y-16645355D01*
X-7592803Y-16608384D01*
X-7577777Y-16572107D01*
X-7560989Y-16536611D01*
X-7542479Y-16501981D01*
X-7522292Y-16468302D01*
X-7500477Y-16435653D01*
X-7477086Y-16404115D01*
X-7452176Y-16373762D01*
X-7425807Y-16344668D01*
X-7398042Y-16316902D01*
X-7368947Y-16290533D01*
X-7338594Y-16265623D01*
X-7307056Y-16242232D01*
X-7274407Y-16220417D01*
X-7240728Y-16200230D01*
X-7206098Y-16181721D01*
X-7170602Y-16164932D01*
X-7134325Y-16149906D01*
X-7097355Y-16136677D01*
X-7059779Y-16125279D01*
X-7021690Y-16115738D01*
X-6983179Y-16108078D01*
X-6944338Y-16102316D01*
X-6905261Y-16098468D01*
X-6866042Y-16096541D01*
X-6826776Y-16096541D01*
X-6787558Y-16098468D01*
G37*
G36*
X9500267Y16045375D02*
G01*
X9507105Y16044702D01*
X9513884Y16043582D01*
X9520576Y16042022D01*
X9527151Y16040028D01*
X9533582Y16037607D01*
X9539840Y16034772D01*
X9545900Y16031533D01*
X9551735Y16027904D01*
X9557320Y16023902D01*
X9562631Y16019543D01*
X9567646Y16014846D01*
X9572343Y16009831D01*
X9576702Y16004520D01*
X9580704Y15998935D01*
X9584333Y15993100D01*
X9587572Y15987040D01*
X9590407Y15980782D01*
X9592828Y15974351D01*
X9594822Y15967776D01*
X9596382Y15961084D01*
X9597502Y15954305D01*
X9598175Y15947467D01*
X9598400Y15940600D01*
X9598400Y14750600D01*
X9598175Y14743733D01*
X9597502Y14736895D01*
X9596382Y14730116D01*
X9594822Y14723424D01*
X9592828Y14716849D01*
X9590407Y14710418D01*
X9587572Y14704160D01*
X9584333Y14698100D01*
X9580704Y14692265D01*
X9576702Y14686680D01*
X9572343Y14681369D01*
X9567646Y14676354D01*
X9562631Y14671657D01*
X9557320Y14667298D01*
X9551735Y14663296D01*
X9545900Y14659667D01*
X9539840Y14656428D01*
X9533582Y14653593D01*
X9527151Y14651172D01*
X9520576Y14649178D01*
X9513884Y14647618D01*
X9507105Y14646498D01*
X9500267Y14645825D01*
X9493400Y14645600D01*
X8678400Y14645600D01*
X8671533Y14645825D01*
X8664695Y14646498D01*
X8657916Y14647618D01*
X8651224Y14649178D01*
X8644649Y14651172D01*
X8638218Y14653593D01*
X8631960Y14656428D01*
X8625900Y14659667D01*
X8620065Y14663296D01*
X8614480Y14667298D01*
X8609169Y14671657D01*
X8604154Y14676354D01*
X8599457Y14681369D01*
X8595098Y14686680D01*
X8591096Y14692265D01*
X8587467Y14698100D01*
X8584228Y14704160D01*
X8581393Y14710418D01*
X8578972Y14716849D01*
X8576978Y14723424D01*
X8575418Y14730116D01*
X8574298Y14736895D01*
X8573625Y14743733D01*
X8573400Y14750600D01*
X8573400Y15940600D01*
X8573625Y15947467D01*
X8574298Y15954305D01*
X8575418Y15961084D01*
X8576978Y15967776D01*
X8578972Y15974351D01*
X8581393Y15980782D01*
X8584228Y15987040D01*
X8587467Y15993100D01*
X8591096Y15998935D01*
X8595098Y16004520D01*
X8599457Y16009831D01*
X8604154Y16014846D01*
X8609169Y16019543D01*
X8614480Y16023902D01*
X8620065Y16027904D01*
X8625900Y16031533D01*
X8631960Y16034772D01*
X8638218Y16037607D01*
X8644649Y16040028D01*
X8651224Y16042022D01*
X8657916Y16043582D01*
X8664695Y16044702D01*
X8671533Y16045375D01*
X8678400Y16045600D01*
X9493400Y16045600D01*
X9500267Y16045375D01*
G37*
G36*
X7675267Y16045375D02*
G01*
X7682105Y16044702D01*
X7688884Y16043582D01*
X7695576Y16042022D01*
X7702151Y16040028D01*
X7708582Y16037607D01*
X7714840Y16034772D01*
X7720900Y16031533D01*
X7726735Y16027904D01*
X7732320Y16023902D01*
X7737631Y16019543D01*
X7742646Y16014846D01*
X7747343Y16009831D01*
X7751702Y16004520D01*
X7755704Y15998935D01*
X7759333Y15993100D01*
X7762572Y15987040D01*
X7765407Y15980782D01*
X7767828Y15974351D01*
X7769822Y15967776D01*
X7771382Y15961084D01*
X7772502Y15954305D01*
X7773175Y15947467D01*
X7773400Y15940600D01*
X7773400Y14750600D01*
X7773175Y14743733D01*
X7772502Y14736895D01*
X7771382Y14730116D01*
X7769822Y14723424D01*
X7767828Y14716849D01*
X7765407Y14710418D01*
X7762572Y14704160D01*
X7759333Y14698100D01*
X7755704Y14692265D01*
X7751702Y14686680D01*
X7747343Y14681369D01*
X7742646Y14676354D01*
X7737631Y14671657D01*
X7732320Y14667298D01*
X7726735Y14663296D01*
X7720900Y14659667D01*
X7714840Y14656428D01*
X7708582Y14653593D01*
X7702151Y14651172D01*
X7695576Y14649178D01*
X7688884Y14647618D01*
X7682105Y14646498D01*
X7675267Y14645825D01*
X7668400Y14645600D01*
X6853400Y14645600D01*
X6846533Y14645825D01*
X6839695Y14646498D01*
X6832916Y14647618D01*
X6826224Y14649178D01*
X6819649Y14651172D01*
X6813218Y14653593D01*
X6806960Y14656428D01*
X6800900Y14659667D01*
X6795065Y14663296D01*
X6789480Y14667298D01*
X6784169Y14671657D01*
X6779154Y14676354D01*
X6774457Y14681369D01*
X6770098Y14686680D01*
X6766096Y14692265D01*
X6762467Y14698100D01*
X6759228Y14704160D01*
X6756393Y14710418D01*
X6753972Y14716849D01*
X6751978Y14723424D01*
X6750418Y14730116D01*
X6749298Y14736895D01*
X6748625Y14743733D01*
X6748400Y14750600D01*
X6748400Y15940600D01*
X6748625Y15947467D01*
X6749298Y15954305D01*
X6750418Y15961084D01*
X6751978Y15967776D01*
X6753972Y15974351D01*
X6756393Y15980782D01*
X6759228Y15987040D01*
X6762467Y15993100D01*
X6766096Y15998935D01*
X6770098Y16004520D01*
X6774457Y16009831D01*
X6779154Y16014846D01*
X6784169Y16019543D01*
X6789480Y16023902D01*
X6795065Y16027904D01*
X6800900Y16031533D01*
X6806960Y16034772D01*
X6813218Y16037607D01*
X6819649Y16040028D01*
X6826224Y16042022D01*
X6832916Y16043582D01*
X6839695Y16044702D01*
X6846533Y16045375D01*
X6853400Y16045600D01*
X7668400Y16045600D01*
X7675267Y16045375D01*
G37*
G36*
X-16930800Y17898300D02*
G01*
X-16930800Y16374300D01*
X-18454800Y16374300D01*
X-18454800Y17126326D01*
X-18099078Y17126326D01*
X-18098099Y17106403D01*
X-18096144Y17086552D01*
X-18093217Y17066821D01*
X-18089325Y17047257D01*
X-18084479Y17027908D01*
X-18078688Y17008820D01*
X-18071968Y16990039D01*
X-18064335Y16971610D01*
X-18055806Y16953578D01*
X-18046403Y16935986D01*
X-18036148Y16918877D01*
X-18025066Y16902292D01*
X-18013184Y16886270D01*
X-18000530Y16870851D01*
X-17987134Y16856071D01*
X-17973029Y16841966D01*
X-17958249Y16828570D01*
X-17942830Y16815916D01*
X-17926808Y16804034D01*
X-17910223Y16792952D01*
X-17893114Y16782697D01*
X-17875522Y16773294D01*
X-17857490Y16764765D01*
X-17839061Y16757132D01*
X-17820280Y16750412D01*
X-17801192Y16744621D01*
X-17781843Y16739775D01*
X-17762279Y16735883D01*
X-17742548Y16732956D01*
X-17722697Y16731001D01*
X-17702774Y16730022D01*
X-17682826Y16730022D01*
X-17662903Y16731001D01*
X-17643052Y16732956D01*
X-17623321Y16735883D01*
X-17603757Y16739775D01*
X-17584408Y16744621D01*
X-17565320Y16750412D01*
X-17546539Y16757132D01*
X-17528110Y16764765D01*
X-17510078Y16773294D01*
X-17492486Y16782697D01*
X-17475377Y16792952D01*
X-17458792Y16804034D01*
X-17442770Y16815916D01*
X-17427351Y16828570D01*
X-17412571Y16841966D01*
X-17398466Y16856071D01*
X-17385070Y16870851D01*
X-17372416Y16886270D01*
X-17360534Y16902292D01*
X-17349452Y16918877D01*
X-17339197Y16935986D01*
X-17329794Y16953578D01*
X-17321265Y16971610D01*
X-17313632Y16990039D01*
X-17306912Y17008820D01*
X-17301121Y17027908D01*
X-17296275Y17047257D01*
X-17292383Y17066821D01*
X-17289456Y17086552D01*
X-17287501Y17106403D01*
X-17286522Y17126326D01*
X-17286522Y17146274D01*
X-17287501Y17166197D01*
X-17289456Y17186048D01*
X-17292383Y17205779D01*
X-17296275Y17225343D01*
X-17301121Y17244692D01*
X-17306912Y17263780D01*
X-17313632Y17282561D01*
X-17321265Y17300990D01*
X-17329794Y17319022D01*
X-17339197Y17336614D01*
X-17349452Y17353723D01*
X-17360534Y17370308D01*
X-17372416Y17386330D01*
X-17385070Y17401749D01*
X-17398466Y17416529D01*
X-17412571Y17430634D01*
X-17427351Y17444030D01*
X-17442770Y17456684D01*
X-17458792Y17468566D01*
X-17475377Y17479648D01*
X-17492486Y17489903D01*
X-17510078Y17499306D01*
X-17528110Y17507835D01*
X-17546539Y17515468D01*
X-17565320Y17522188D01*
X-17584408Y17527979D01*
X-17603757Y17532825D01*
X-17623321Y17536717D01*
X-17643052Y17539644D01*
X-17662903Y17541599D01*
X-17682826Y17542578D01*
X-17702774Y17542578D01*
X-17722697Y17541599D01*
X-17742548Y17539644D01*
X-17762279Y17536717D01*
X-17781843Y17532825D01*
X-17801192Y17527979D01*
X-17820280Y17522188D01*
X-17839061Y17515468D01*
X-17857490Y17507835D01*
X-17875522Y17499306D01*
X-17893114Y17489903D01*
X-17910223Y17479648D01*
X-17926808Y17468566D01*
X-17942830Y17456684D01*
X-17958249Y17444030D01*
X-17973029Y17430634D01*
X-17987134Y17416529D01*
X-18000530Y17401749D01*
X-18013184Y17386330D01*
X-18025066Y17370308D01*
X-18036148Y17353723D01*
X-18046403Y17336614D01*
X-18055806Y17319022D01*
X-18064335Y17300990D01*
X-18071968Y17282561D01*
X-18078688Y17263780D01*
X-18084479Y17244692D01*
X-18089325Y17225343D01*
X-18093217Y17205779D01*
X-18096144Y17186048D01*
X-18098099Y17166197D01*
X-18099078Y17146274D01*
X-18099078Y17126326D01*
X-18454800Y17126326D01*
X-18454800Y17898300D01*
X-16930800Y17898300D01*
G37*
G36*
X-17636744Y10276235D02*
G01*
X-17599523Y10272569D01*
X-17562527Y10267082D01*
X-17525845Y10259785D01*
X-17489565Y10250697D01*
X-17453775Y10239840D01*
X-17418560Y10227241D01*
X-17384006Y10212928D01*
X-17350196Y10196937D01*
X-17317212Y10179306D01*
X-17285132Y10160078D01*
X-17254034Y10139300D01*
X-17223994Y10117020D01*
X-17195082Y10093293D01*
X-17167370Y10068176D01*
X-17140924Y10041730D01*
X-17115807Y10014018D01*
X-17092080Y9985106D01*
X-17069800Y9955066D01*
X-17049022Y9923968D01*
X-17029794Y9891888D01*
X-17012163Y9858904D01*
X-16996172Y9825094D01*
X-16981859Y9790540D01*
X-16969260Y9755325D01*
X-16958403Y9719535D01*
X-16949315Y9683255D01*
X-16942018Y9646573D01*
X-16936531Y9609577D01*
X-16932865Y9572356D01*
X-16931030Y9535000D01*
X-16931030Y9497600D01*
X-16932865Y9460244D01*
X-16936531Y9423023D01*
X-16942018Y9386027D01*
X-16949315Y9349345D01*
X-16958403Y9313065D01*
X-16969260Y9277275D01*
X-16981859Y9242060D01*
X-16996172Y9207506D01*
X-17012163Y9173696D01*
X-17029794Y9140712D01*
X-17049022Y9108632D01*
X-17069800Y9077534D01*
X-17092080Y9047494D01*
X-17115807Y9018582D01*
X-17140924Y8990870D01*
X-17167370Y8964424D01*
X-17195082Y8939307D01*
X-17223994Y8915580D01*
X-17254034Y8893300D01*
X-17285132Y8872522D01*
X-17317212Y8853294D01*
X-17350196Y8835663D01*
X-17384006Y8819672D01*
X-17418560Y8805359D01*
X-17453775Y8792760D01*
X-17489565Y8781903D01*
X-17525845Y8772815D01*
X-17562527Y8765518D01*
X-17599523Y8760031D01*
X-17636744Y8756365D01*
X-17674100Y8754530D01*
X-17711500Y8754530D01*
X-17748856Y8756365D01*
X-17786077Y8760031D01*
X-17823073Y8765518D01*
X-17859755Y8772815D01*
X-17896035Y8781903D01*
X-17931825Y8792760D01*
X-17967040Y8805359D01*
X-18001594Y8819672D01*
X-18035404Y8835663D01*
X-18068388Y8853294D01*
X-18100468Y8872522D01*
X-18131566Y8893300D01*
X-18161606Y8915580D01*
X-18190518Y8939307D01*
X-18218230Y8964424D01*
X-18244676Y8990870D01*
X-18269793Y9018582D01*
X-18293520Y9047494D01*
X-18315800Y9077534D01*
X-18336578Y9108632D01*
X-18355806Y9140712D01*
X-18373437Y9173696D01*
X-18389428Y9207506D01*
X-18403741Y9242060D01*
X-18416340Y9277275D01*
X-18427197Y9313065D01*
X-18436285Y9349345D01*
X-18443582Y9386027D01*
X-18449069Y9423023D01*
X-18452735Y9460244D01*
X-18454570Y9497600D01*
X-18454570Y9506326D01*
X-18099078Y9506326D01*
X-18098099Y9486403D01*
X-18096144Y9466552D01*
X-18093217Y9446821D01*
X-18089325Y9427257D01*
X-18084479Y9407908D01*
X-18078688Y9388820D01*
X-18071968Y9370039D01*
X-18064335Y9351610D01*
X-18055806Y9333578D01*
X-18046403Y9315986D01*
X-18036148Y9298877D01*
X-18025066Y9282292D01*
X-18013184Y9266270D01*
X-18000530Y9250851D01*
X-17987134Y9236071D01*
X-17973029Y9221966D01*
X-17958249Y9208570D01*
X-17942830Y9195916D01*
X-17926808Y9184034D01*
X-17910223Y9172952D01*
X-17893114Y9162697D01*
X-17875522Y9153294D01*
X-17857490Y9144765D01*
X-17839061Y9137132D01*
X-17820280Y9130412D01*
X-17801192Y9124621D01*
X-17781843Y9119775D01*
X-17762279Y9115883D01*
X-17742548Y9112956D01*
X-17722697Y9111001D01*
X-17702774Y9110022D01*
X-17682826Y9110022D01*
X-17662903Y9111001D01*
X-17643052Y9112956D01*
X-17623321Y9115883D01*
X-17603757Y9119775D01*
X-17584408Y9124621D01*
X-17565320Y9130412D01*
X-17546539Y9137132D01*
X-17528110Y9144765D01*
X-17510078Y9153294D01*
X-17492486Y9162697D01*
X-17475377Y9172952D01*
X-17458792Y9184034D01*
X-17442770Y9195916D01*
X-17427351Y9208570D01*
X-17412571Y9221966D01*
X-17398466Y9236071D01*
X-17385070Y9250851D01*
X-17372416Y9266270D01*
X-17360534Y9282292D01*
X-17349452Y9298877D01*
X-17339197Y9315986D01*
X-17329794Y9333578D01*
X-17321265Y9351610D01*
X-17313632Y9370039D01*
X-17306912Y9388820D01*
X-17301121Y9407908D01*
X-17296275Y9427257D01*
X-17292383Y9446821D01*
X-17289456Y9466552D01*
X-17287501Y9486403D01*
X-17286522Y9506326D01*
X-17286522Y9526274D01*
X-17287501Y9546197D01*
X-17289456Y9566048D01*
X-17292383Y9585779D01*
X-17296275Y9605343D01*
X-17301121Y9624692D01*
X-17306912Y9643780D01*
X-17313632Y9662561D01*
X-17321265Y9680990D01*
X-17329794Y9699022D01*
X-17339197Y9716614D01*
X-17349452Y9733723D01*
X-17360534Y9750308D01*
X-17372416Y9766330D01*
X-17385070Y9781749D01*
X-17398466Y9796529D01*
X-17412571Y9810634D01*
X-17427351Y9824030D01*
X-17442770Y9836684D01*
X-17458792Y9848566D01*
X-17475377Y9859648D01*
X-17492486Y9869903D01*
X-17510078Y9879306D01*
X-17528110Y9887835D01*
X-17546539Y9895468D01*
X-17565320Y9902188D01*
X-17584408Y9907979D01*
X-17603757Y9912825D01*
X-17623321Y9916717D01*
X-17643052Y9919644D01*
X-17662903Y9921599D01*
X-17682826Y9922578D01*
X-17702774Y9922578D01*
X-17722697Y9921599D01*
X-17742548Y9919644D01*
X-17762279Y9916717D01*
X-17781843Y9912825D01*
X-17801192Y9907979D01*
X-17820280Y9902188D01*
X-17839061Y9895468D01*
X-17857490Y9887835D01*
X-17875522Y9879306D01*
X-17893114Y9869903D01*
X-17910223Y9859648D01*
X-17926808Y9848566D01*
X-17942830Y9836684D01*
X-17958249Y9824030D01*
X-17973029Y9810634D01*
X-17987134Y9796529D01*
X-18000530Y9781749D01*
X-18013184Y9766330D01*
X-18025066Y9750308D01*
X-18036148Y9733723D01*
X-18046403Y9716614D01*
X-18055806Y9699022D01*
X-18064335Y9680990D01*
X-18071968Y9662561D01*
X-18078688Y9643780D01*
X-18084479Y9624692D01*
X-18089325Y9605343D01*
X-18093217Y9585779D01*
X-18096144Y9566048D01*
X-18098099Y9546197D01*
X-18099078Y9526274D01*
X-18099078Y9506326D01*
X-18454570Y9506326D01*
X-18454570Y9535000D01*
X-18452735Y9572356D01*
X-18449069Y9609577D01*
X-18443582Y9646573D01*
X-18436285Y9683255D01*
X-18427197Y9719535D01*
X-18416340Y9755325D01*
X-18403741Y9790540D01*
X-18389428Y9825094D01*
X-18373437Y9858904D01*
X-18355806Y9891888D01*
X-18336578Y9923968D01*
X-18315800Y9955066D01*
X-18293520Y9985106D01*
X-18269793Y10014018D01*
X-18244676Y10041730D01*
X-18218230Y10068176D01*
X-18190518Y10093293D01*
X-18161606Y10117020D01*
X-18131566Y10139300D01*
X-18100468Y10160078D01*
X-18068388Y10179306D01*
X-18035404Y10196937D01*
X-18001594Y10212928D01*
X-17967040Y10227241D01*
X-17931825Y10239840D01*
X-17896035Y10250697D01*
X-17859755Y10259785D01*
X-17823073Y10267082D01*
X-17786077Y10272569D01*
X-17748856Y10276235D01*
X-17711500Y10278070D01*
X-17674100Y10278070D01*
X-17636744Y10276235D01*
G37*
G36*
X-10016744Y12816235D02*
G01*
X-9979523Y12812569D01*
X-9942527Y12807082D01*
X-9905845Y12799785D01*
X-9869565Y12790697D01*
X-9833775Y12779840D01*
X-9798560Y12767241D01*
X-9764006Y12752928D01*
X-9730196Y12736937D01*
X-9697212Y12719306D01*
X-9665132Y12700078D01*
X-9634034Y12679300D01*
X-9603994Y12657020D01*
X-9575082Y12633293D01*
X-9547370Y12608176D01*
X-9520924Y12581730D01*
X-9495807Y12554018D01*
X-9472080Y12525106D01*
X-9449800Y12495066D01*
X-9429022Y12463968D01*
X-9409794Y12431888D01*
X-9392163Y12398904D01*
X-9376172Y12365094D01*
X-9361859Y12330540D01*
X-9349260Y12295325D01*
X-9338403Y12259535D01*
X-9329315Y12223255D01*
X-9322018Y12186573D01*
X-9316531Y12149577D01*
X-9312865Y12112356D01*
X-9311030Y12075000D01*
X-9311030Y12037600D01*
X-9312865Y12000244D01*
X-9316531Y11963023D01*
X-9322018Y11926027D01*
X-9329315Y11889345D01*
X-9338403Y11853065D01*
X-9349260Y11817275D01*
X-9361859Y11782060D01*
X-9376172Y11747506D01*
X-9392163Y11713696D01*
X-9409794Y11680712D01*
X-9429022Y11648632D01*
X-9449800Y11617534D01*
X-9472080Y11587494D01*
X-9495807Y11558582D01*
X-9520924Y11530870D01*
X-9547370Y11504424D01*
X-9575082Y11479307D01*
X-9603994Y11455580D01*
X-9634034Y11433300D01*
X-9665132Y11412522D01*
X-9697212Y11393294D01*
X-9730196Y11375663D01*
X-9764006Y11359672D01*
X-9798560Y11345359D01*
X-9833775Y11332760D01*
X-9869565Y11321903D01*
X-9905845Y11312815D01*
X-9942527Y11305518D01*
X-9979523Y11300031D01*
X-10016744Y11296365D01*
X-10054100Y11294530D01*
X-10091500Y11294530D01*
X-10128856Y11296365D01*
X-10166077Y11300031D01*
X-10203073Y11305518D01*
X-10239755Y11312815D01*
X-10276035Y11321903D01*
X-10311825Y11332760D01*
X-10347040Y11345359D01*
X-10381594Y11359672D01*
X-10415404Y11375663D01*
X-10448388Y11393294D01*
X-10480468Y11412522D01*
X-10511566Y11433300D01*
X-10541606Y11455580D01*
X-10570518Y11479307D01*
X-10598230Y11504424D01*
X-10624676Y11530870D01*
X-10649793Y11558582D01*
X-10673520Y11587494D01*
X-10695800Y11617534D01*
X-10716578Y11648632D01*
X-10735806Y11680712D01*
X-10753437Y11713696D01*
X-10769428Y11747506D01*
X-10783741Y11782060D01*
X-10796340Y11817275D01*
X-10807197Y11853065D01*
X-10816285Y11889345D01*
X-10823582Y11926027D01*
X-10829069Y11963023D01*
X-10832735Y12000244D01*
X-10834570Y12037600D01*
X-10834570Y12046326D01*
X-10479078Y12046326D01*
X-10478099Y12026403D01*
X-10476144Y12006552D01*
X-10473217Y11986821D01*
X-10469325Y11967257D01*
X-10464479Y11947908D01*
X-10458688Y11928820D01*
X-10451968Y11910039D01*
X-10444335Y11891610D01*
X-10435806Y11873578D01*
X-10426403Y11855986D01*
X-10416148Y11838877D01*
X-10405066Y11822292D01*
X-10393184Y11806270D01*
X-10380530Y11790851D01*
X-10367134Y11776071D01*
X-10353029Y11761966D01*
X-10338249Y11748570D01*
X-10322830Y11735916D01*
X-10306808Y11724034D01*
X-10290223Y11712952D01*
X-10273114Y11702697D01*
X-10255522Y11693294D01*
X-10237490Y11684765D01*
X-10219061Y11677132D01*
X-10200280Y11670412D01*
X-10181192Y11664621D01*
X-10161843Y11659775D01*
X-10142279Y11655883D01*
X-10122548Y11652956D01*
X-10102697Y11651001D01*
X-10082774Y11650022D01*
X-10062826Y11650022D01*
X-10042903Y11651001D01*
X-10023052Y11652956D01*
X-10003321Y11655883D01*
X-9983757Y11659775D01*
X-9964408Y11664621D01*
X-9945320Y11670412D01*
X-9926539Y11677132D01*
X-9908110Y11684765D01*
X-9890078Y11693294D01*
X-9872486Y11702697D01*
X-9855377Y11712952D01*
X-9838792Y11724034D01*
X-9822770Y11735916D01*
X-9807351Y11748570D01*
X-9792571Y11761966D01*
X-9778466Y11776071D01*
X-9765070Y11790851D01*
X-9752416Y11806270D01*
X-9740534Y11822292D01*
X-9729452Y11838877D01*
X-9719197Y11855986D01*
X-9709794Y11873578D01*
X-9701265Y11891610D01*
X-9693632Y11910039D01*
X-9686912Y11928820D01*
X-9681121Y11947908D01*
X-9676275Y11967257D01*
X-9672383Y11986821D01*
X-9669456Y12006552D01*
X-9667501Y12026403D01*
X-9666522Y12046326D01*
X-9666522Y12066274D01*
X-9667501Y12086197D01*
X-9669456Y12106048D01*
X-9672383Y12125779D01*
X-9676275Y12145343D01*
X-9681121Y12164692D01*
X-9686912Y12183780D01*
X-9693632Y12202561D01*
X-9701265Y12220990D01*
X-9709794Y12239022D01*
X-9719197Y12256614D01*
X-9729452Y12273723D01*
X-9740534Y12290308D01*
X-9752416Y12306330D01*
X-9765070Y12321749D01*
X-9778466Y12336529D01*
X-9792571Y12350634D01*
X-9807351Y12364030D01*
X-9822770Y12376684D01*
X-9838792Y12388566D01*
X-9855377Y12399648D01*
X-9872486Y12409903D01*
X-9890078Y12419306D01*
X-9908110Y12427835D01*
X-9926539Y12435468D01*
X-9945320Y12442188D01*
X-9964408Y12447979D01*
X-9983757Y12452825D01*
X-10003321Y12456717D01*
X-10023052Y12459644D01*
X-10042903Y12461599D01*
X-10062826Y12462578D01*
X-10082774Y12462578D01*
X-10102697Y12461599D01*
X-10122548Y12459644D01*
X-10142279Y12456717D01*
X-10161843Y12452825D01*
X-10181192Y12447979D01*
X-10200280Y12442188D01*
X-10219061Y12435468D01*
X-10237490Y12427835D01*
X-10255522Y12419306D01*
X-10273114Y12409903D01*
X-10290223Y12399648D01*
X-10306808Y12388566D01*
X-10322830Y12376684D01*
X-10338249Y12364030D01*
X-10353029Y12350634D01*
X-10367134Y12336529D01*
X-10380530Y12321749D01*
X-10393184Y12306330D01*
X-10405066Y12290308D01*
X-10416148Y12273723D01*
X-10426403Y12256614D01*
X-10435806Y12239022D01*
X-10444335Y12220990D01*
X-10451968Y12202561D01*
X-10458688Y12183780D01*
X-10464479Y12164692D01*
X-10469325Y12145343D01*
X-10473217Y12125779D01*
X-10476144Y12106048D01*
X-10478099Y12086197D01*
X-10479078Y12066274D01*
X-10479078Y12046326D01*
X-10834570Y12046326D01*
X-10834570Y12075000D01*
X-10832735Y12112356D01*
X-10829069Y12149577D01*
X-10823582Y12186573D01*
X-10816285Y12223255D01*
X-10807197Y12259535D01*
X-10796340Y12295325D01*
X-10783741Y12330540D01*
X-10769428Y12365094D01*
X-10753437Y12398904D01*
X-10735806Y12431888D01*
X-10716578Y12463968D01*
X-10695800Y12495066D01*
X-10673520Y12525106D01*
X-10649793Y12554018D01*
X-10624676Y12581730D01*
X-10598230Y12608176D01*
X-10570518Y12633293D01*
X-10541606Y12657020D01*
X-10511566Y12679300D01*
X-10480468Y12700078D01*
X-10448388Y12719306D01*
X-10415404Y12736937D01*
X-10381594Y12752928D01*
X-10347040Y12767241D01*
X-10311825Y12779840D01*
X-10276035Y12790697D01*
X-10239755Y12799785D01*
X-10203073Y12807082D01*
X-10166077Y12812569D01*
X-10128856Y12816235D01*
X-10091500Y12818070D01*
X-10054100Y12818070D01*
X-10016744Y12816235D01*
G37*
G36*
X-17636744Y12816235D02*
G01*
X-17599523Y12812569D01*
X-17562527Y12807082D01*
X-17525845Y12799785D01*
X-17489565Y12790697D01*
X-17453775Y12779840D01*
X-17418560Y12767241D01*
X-17384006Y12752928D01*
X-17350196Y12736937D01*
X-17317212Y12719306D01*
X-17285132Y12700078D01*
X-17254034Y12679300D01*
X-17223994Y12657020D01*
X-17195082Y12633293D01*
X-17167370Y12608176D01*
X-17140924Y12581730D01*
X-17115807Y12554018D01*
X-17092080Y12525106D01*
X-17069800Y12495066D01*
X-17049022Y12463968D01*
X-17029794Y12431888D01*
X-17012163Y12398904D01*
X-16996172Y12365094D01*
X-16981859Y12330540D01*
X-16969260Y12295325D01*
X-16958403Y12259535D01*
X-16949315Y12223255D01*
X-16942018Y12186573D01*
X-16936531Y12149577D01*
X-16932865Y12112356D01*
X-16931030Y12075000D01*
X-16931030Y12037600D01*
X-16932865Y12000244D01*
X-16936531Y11963023D01*
X-16942018Y11926027D01*
X-16949315Y11889345D01*
X-16958403Y11853065D01*
X-16969260Y11817275D01*
X-16981859Y11782060D01*
X-16996172Y11747506D01*
X-17012163Y11713696D01*
X-17029794Y11680712D01*
X-17049022Y11648632D01*
X-17069800Y11617534D01*
X-17092080Y11587494D01*
X-17115807Y11558582D01*
X-17140924Y11530870D01*
X-17167370Y11504424D01*
X-17195082Y11479307D01*
X-17223994Y11455580D01*
X-17254034Y11433300D01*
X-17285132Y11412522D01*
X-17317212Y11393294D01*
X-17350196Y11375663D01*
X-17384006Y11359672D01*
X-17418560Y11345359D01*
X-17453775Y11332760D01*
X-17489565Y11321903D01*
X-17525845Y11312815D01*
X-17562527Y11305518D01*
X-17599523Y11300031D01*
X-17636744Y11296365D01*
X-17674100Y11294530D01*
X-17711500Y11294530D01*
X-17748856Y11296365D01*
X-17786077Y11300031D01*
X-17823073Y11305518D01*
X-17859755Y11312815D01*
X-17896035Y11321903D01*
X-17931825Y11332760D01*
X-17967040Y11345359D01*
X-18001594Y11359672D01*
X-18035404Y11375663D01*
X-18068388Y11393294D01*
X-18100468Y11412522D01*
X-18131566Y11433300D01*
X-18161606Y11455580D01*
X-18190518Y11479307D01*
X-18218230Y11504424D01*
X-18244676Y11530870D01*
X-18269793Y11558582D01*
X-18293520Y11587494D01*
X-18315800Y11617534D01*
X-18336578Y11648632D01*
X-18355806Y11680712D01*
X-18373437Y11713696D01*
X-18389428Y11747506D01*
X-18403741Y11782060D01*
X-18416340Y11817275D01*
X-18427197Y11853065D01*
X-18436285Y11889345D01*
X-18443582Y11926027D01*
X-18449069Y11963023D01*
X-18452735Y12000244D01*
X-18454570Y12037600D01*
X-18454570Y12046326D01*
X-18099078Y12046326D01*
X-18098099Y12026403D01*
X-18096144Y12006552D01*
X-18093217Y11986821D01*
X-18089325Y11967257D01*
X-18084479Y11947908D01*
X-18078688Y11928820D01*
X-18071968Y11910039D01*
X-18064335Y11891610D01*
X-18055806Y11873578D01*
X-18046403Y11855986D01*
X-18036148Y11838877D01*
X-18025066Y11822292D01*
X-18013184Y11806270D01*
X-18000530Y11790851D01*
X-17987134Y11776071D01*
X-17973029Y11761966D01*
X-17958249Y11748570D01*
X-17942830Y11735916D01*
X-17926808Y11724034D01*
X-17910223Y11712952D01*
X-17893114Y11702697D01*
X-17875522Y11693294D01*
X-17857490Y11684765D01*
X-17839061Y11677132D01*
X-17820280Y11670412D01*
X-17801192Y11664621D01*
X-17781843Y11659775D01*
X-17762279Y11655883D01*
X-17742548Y11652956D01*
X-17722697Y11651001D01*
X-17702774Y11650022D01*
X-17682826Y11650022D01*
X-17662903Y11651001D01*
X-17643052Y11652956D01*
X-17623321Y11655883D01*
X-17603757Y11659775D01*
X-17584408Y11664621D01*
X-17565320Y11670412D01*
X-17546539Y11677132D01*
X-17528110Y11684765D01*
X-17510078Y11693294D01*
X-17492486Y11702697D01*
X-17475377Y11712952D01*
X-17458792Y11724034D01*
X-17442770Y11735916D01*
X-17427351Y11748570D01*
X-17412571Y11761966D01*
X-17398466Y11776071D01*
X-17385070Y11790851D01*
X-17372416Y11806270D01*
X-17360534Y11822292D01*
X-17349452Y11838877D01*
X-17339197Y11855986D01*
X-17329794Y11873578D01*
X-17321265Y11891610D01*
X-17313632Y11910039D01*
X-17306912Y11928820D01*
X-17301121Y11947908D01*
X-17296275Y11967257D01*
X-17292383Y11986821D01*
X-17289456Y12006552D01*
X-17287501Y12026403D01*
X-17286522Y12046326D01*
X-17286522Y12066274D01*
X-17287501Y12086197D01*
X-17289456Y12106048D01*
X-17292383Y12125779D01*
X-17296275Y12145343D01*
X-17301121Y12164692D01*
X-17306912Y12183780D01*
X-17313632Y12202561D01*
X-17321265Y12220990D01*
X-17329794Y12239022D01*
X-17339197Y12256614D01*
X-17349452Y12273723D01*
X-17360534Y12290308D01*
X-17372416Y12306330D01*
X-17385070Y12321749D01*
X-17398466Y12336529D01*
X-17412571Y12350634D01*
X-17427351Y12364030D01*
X-17442770Y12376684D01*
X-17458792Y12388566D01*
X-17475377Y12399648D01*
X-17492486Y12409903D01*
X-17510078Y12419306D01*
X-17528110Y12427835D01*
X-17546539Y12435468D01*
X-17565320Y12442188D01*
X-17584408Y12447979D01*
X-17603757Y12452825D01*
X-17623321Y12456717D01*
X-17643052Y12459644D01*
X-17662903Y12461599D01*
X-17682826Y12462578D01*
X-17702774Y12462578D01*
X-17722697Y12461599D01*
X-17742548Y12459644D01*
X-17762279Y12456717D01*
X-17781843Y12452825D01*
X-17801192Y12447979D01*
X-17820280Y12442188D01*
X-17839061Y12435468D01*
X-17857490Y12427835D01*
X-17875522Y12419306D01*
X-17893114Y12409903D01*
X-17910223Y12399648D01*
X-17926808Y12388566D01*
X-17942830Y12376684D01*
X-17958249Y12364030D01*
X-17973029Y12350634D01*
X-17987134Y12336529D01*
X-18000530Y12321749D01*
X-18013184Y12306330D01*
X-18025066Y12290308D01*
X-18036148Y12273723D01*
X-18046403Y12256614D01*
X-18055806Y12239022D01*
X-18064335Y12220990D01*
X-18071968Y12202561D01*
X-18078688Y12183780D01*
X-18084479Y12164692D01*
X-18089325Y12145343D01*
X-18093217Y12125779D01*
X-18096144Y12106048D01*
X-18098099Y12086197D01*
X-18099078Y12066274D01*
X-18099078Y12046326D01*
X-18454570Y12046326D01*
X-18454570Y12075000D01*
X-18452735Y12112356D01*
X-18449069Y12149577D01*
X-18443582Y12186573D01*
X-18436285Y12223255D01*
X-18427197Y12259535D01*
X-18416340Y12295325D01*
X-18403741Y12330540D01*
X-18389428Y12365094D01*
X-18373437Y12398904D01*
X-18355806Y12431888D01*
X-18336578Y12463968D01*
X-18315800Y12495066D01*
X-18293520Y12525106D01*
X-18269793Y12554018D01*
X-18244676Y12581730D01*
X-18218230Y12608176D01*
X-18190518Y12633293D01*
X-18161606Y12657020D01*
X-18131566Y12679300D01*
X-18100468Y12700078D01*
X-18068388Y12719306D01*
X-18035404Y12736937D01*
X-18001594Y12752928D01*
X-17967040Y12767241D01*
X-17931825Y12779840D01*
X-17896035Y12790697D01*
X-17859755Y12799785D01*
X-17823073Y12807082D01*
X-17786077Y12812569D01*
X-17748856Y12816235D01*
X-17711500Y12818070D01*
X-17674100Y12818070D01*
X-17636744Y12816235D01*
G37*
G36*
X-10016744Y10276235D02*
G01*
X-9979523Y10272569D01*
X-9942527Y10267082D01*
X-9905845Y10259785D01*
X-9869565Y10250697D01*
X-9833775Y10239840D01*
X-9798560Y10227241D01*
X-9764006Y10212928D01*
X-9730196Y10196937D01*
X-9697212Y10179306D01*
X-9665132Y10160078D01*
X-9634034Y10139300D01*
X-9603994Y10117020D01*
X-9575082Y10093293D01*
X-9547370Y10068176D01*
X-9520924Y10041730D01*
X-9495807Y10014018D01*
X-9472080Y9985106D01*
X-9449800Y9955066D01*
X-9429022Y9923968D01*
X-9409794Y9891888D01*
X-9392163Y9858904D01*
X-9376172Y9825094D01*
X-9361859Y9790540D01*
X-9349260Y9755325D01*
X-9338403Y9719535D01*
X-9329315Y9683255D01*
X-9322018Y9646573D01*
X-9316531Y9609577D01*
X-9312865Y9572356D01*
X-9311030Y9535000D01*
X-9311030Y9497600D01*
X-9312865Y9460244D01*
X-9316531Y9423023D01*
X-9322018Y9386027D01*
X-9329315Y9349345D01*
X-9338403Y9313065D01*
X-9349260Y9277275D01*
X-9361859Y9242060D01*
X-9376172Y9207506D01*
X-9392163Y9173696D01*
X-9409794Y9140712D01*
X-9429022Y9108632D01*
X-9449800Y9077534D01*
X-9472080Y9047494D01*
X-9495807Y9018582D01*
X-9520924Y8990870D01*
X-9547370Y8964424D01*
X-9575082Y8939307D01*
X-9603994Y8915580D01*
X-9634034Y8893300D01*
X-9665132Y8872522D01*
X-9697212Y8853294D01*
X-9730196Y8835663D01*
X-9764006Y8819672D01*
X-9798560Y8805359D01*
X-9833775Y8792760D01*
X-9869565Y8781903D01*
X-9905845Y8772815D01*
X-9942527Y8765518D01*
X-9979523Y8760031D01*
X-10016744Y8756365D01*
X-10054100Y8754530D01*
X-10091500Y8754530D01*
X-10128856Y8756365D01*
X-10166077Y8760031D01*
X-10203073Y8765518D01*
X-10239755Y8772815D01*
X-10276035Y8781903D01*
X-10311825Y8792760D01*
X-10347040Y8805359D01*
X-10381594Y8819672D01*
X-10415404Y8835663D01*
X-10448388Y8853294D01*
X-10480468Y8872522D01*
X-10511566Y8893300D01*
X-10541606Y8915580D01*
X-10570518Y8939307D01*
X-10598230Y8964424D01*
X-10624676Y8990870D01*
X-10649793Y9018582D01*
X-10673520Y9047494D01*
X-10695800Y9077534D01*
X-10716578Y9108632D01*
X-10735806Y9140712D01*
X-10753437Y9173696D01*
X-10769428Y9207506D01*
X-10783741Y9242060D01*
X-10796340Y9277275D01*
X-10807197Y9313065D01*
X-10816285Y9349345D01*
X-10823582Y9386027D01*
X-10829069Y9423023D01*
X-10832735Y9460244D01*
X-10834570Y9497600D01*
X-10834570Y9506326D01*
X-10479078Y9506326D01*
X-10478099Y9486403D01*
X-10476144Y9466552D01*
X-10473217Y9446821D01*
X-10469325Y9427257D01*
X-10464479Y9407908D01*
X-10458688Y9388820D01*
X-10451968Y9370039D01*
X-10444335Y9351610D01*
X-10435806Y9333578D01*
X-10426403Y9315986D01*
X-10416148Y9298877D01*
X-10405066Y9282292D01*
X-10393184Y9266270D01*
X-10380530Y9250851D01*
X-10367134Y9236071D01*
X-10353029Y9221966D01*
X-10338249Y9208570D01*
X-10322830Y9195916D01*
X-10306808Y9184034D01*
X-10290223Y9172952D01*
X-10273114Y9162697D01*
X-10255522Y9153294D01*
X-10237490Y9144765D01*
X-10219061Y9137132D01*
X-10200280Y9130412D01*
X-10181192Y9124621D01*
X-10161843Y9119775D01*
X-10142279Y9115883D01*
X-10122548Y9112956D01*
X-10102697Y9111001D01*
X-10082774Y9110022D01*
X-10062826Y9110022D01*
X-10042903Y9111001D01*
X-10023052Y9112956D01*
X-10003321Y9115883D01*
X-9983757Y9119775D01*
X-9964408Y9124621D01*
X-9945320Y9130412D01*
X-9926539Y9137132D01*
X-9908110Y9144765D01*
X-9890078Y9153294D01*
X-9872486Y9162697D01*
X-9855377Y9172952D01*
X-9838792Y9184034D01*
X-9822770Y9195916D01*
X-9807351Y9208570D01*
X-9792571Y9221966D01*
X-9778466Y9236071D01*
X-9765070Y9250851D01*
X-9752416Y9266270D01*
X-9740534Y9282292D01*
X-9729452Y9298877D01*
X-9719197Y9315986D01*
X-9709794Y9333578D01*
X-9701265Y9351610D01*
X-9693632Y9370039D01*
X-9686912Y9388820D01*
X-9681121Y9407908D01*
X-9676275Y9427257D01*
X-9672383Y9446821D01*
X-9669456Y9466552D01*
X-9667501Y9486403D01*
X-9666522Y9506326D01*
X-9666522Y9526274D01*
X-9667501Y9546197D01*
X-9669456Y9566048D01*
X-9672383Y9585779D01*
X-9676275Y9605343D01*
X-9681121Y9624692D01*
X-9686912Y9643780D01*
X-9693632Y9662561D01*
X-9701265Y9680990D01*
X-9709794Y9699022D01*
X-9719197Y9716614D01*
X-9729452Y9733723D01*
X-9740534Y9750308D01*
X-9752416Y9766330D01*
X-9765070Y9781749D01*
X-9778466Y9796529D01*
X-9792571Y9810634D01*
X-9807351Y9824030D01*
X-9822770Y9836684D01*
X-9838792Y9848566D01*
X-9855377Y9859648D01*
X-9872486Y9869903D01*
X-9890078Y9879306D01*
X-9908110Y9887835D01*
X-9926539Y9895468D01*
X-9945320Y9902188D01*
X-9964408Y9907979D01*
X-9983757Y9912825D01*
X-10003321Y9916717D01*
X-10023052Y9919644D01*
X-10042903Y9921599D01*
X-10062826Y9922578D01*
X-10082774Y9922578D01*
X-10102697Y9921599D01*
X-10122548Y9919644D01*
X-10142279Y9916717D01*
X-10161843Y9912825D01*
X-10181192Y9907979D01*
X-10200280Y9902188D01*
X-10219061Y9895468D01*
X-10237490Y9887835D01*
X-10255522Y9879306D01*
X-10273114Y9869903D01*
X-10290223Y9859648D01*
X-10306808Y9848566D01*
X-10322830Y9836684D01*
X-10338249Y9824030D01*
X-10353029Y9810634D01*
X-10367134Y9796529D01*
X-10380530Y9781749D01*
X-10393184Y9766330D01*
X-10405066Y9750308D01*
X-10416148Y9733723D01*
X-10426403Y9716614D01*
X-10435806Y9699022D01*
X-10444335Y9680990D01*
X-10451968Y9662561D01*
X-10458688Y9643780D01*
X-10464479Y9624692D01*
X-10469325Y9605343D01*
X-10473217Y9585779D01*
X-10476144Y9566048D01*
X-10478099Y9546197D01*
X-10479078Y9526274D01*
X-10479078Y9506326D01*
X-10834570Y9506326D01*
X-10834570Y9535000D01*
X-10832735Y9572356D01*
X-10829069Y9609577D01*
X-10823582Y9646573D01*
X-10816285Y9683255D01*
X-10807197Y9719535D01*
X-10796340Y9755325D01*
X-10783741Y9790540D01*
X-10769428Y9825094D01*
X-10753437Y9858904D01*
X-10735806Y9891888D01*
X-10716578Y9923968D01*
X-10695800Y9955066D01*
X-10673520Y9985106D01*
X-10649793Y10014018D01*
X-10624676Y10041730D01*
X-10598230Y10068176D01*
X-10570518Y10093293D01*
X-10541606Y10117020D01*
X-10511566Y10139300D01*
X-10480468Y10160078D01*
X-10448388Y10179306D01*
X-10415404Y10196937D01*
X-10381594Y10212928D01*
X-10347040Y10227241D01*
X-10311825Y10239840D01*
X-10276035Y10250697D01*
X-10239755Y10259785D01*
X-10203073Y10267082D01*
X-10166077Y10272569D01*
X-10128856Y10276235D01*
X-10091500Y10278070D01*
X-10054100Y10278070D01*
X-10016744Y10276235D01*
G37*
G36*
X-17636744Y15356235D02*
G01*
X-17599523Y15352569D01*
X-17562527Y15347082D01*
X-17525845Y15339785D01*
X-17489565Y15330697D01*
X-17453775Y15319840D01*
X-17418560Y15307241D01*
X-17384006Y15292928D01*
X-17350196Y15276937D01*
X-17317212Y15259306D01*
X-17285132Y15240078D01*
X-17254034Y15219300D01*
X-17223994Y15197020D01*
X-17195082Y15173293D01*
X-17167370Y15148176D01*
X-17140924Y15121730D01*
X-17115807Y15094018D01*
X-17092080Y15065106D01*
X-17069800Y15035066D01*
X-17049022Y15003968D01*
X-17029794Y14971888D01*
X-17012163Y14938904D01*
X-16996172Y14905094D01*
X-16981859Y14870540D01*
X-16969260Y14835325D01*
X-16958403Y14799535D01*
X-16949315Y14763255D01*
X-16942018Y14726573D01*
X-16936531Y14689577D01*
X-16932865Y14652356D01*
X-16931030Y14615000D01*
X-16931030Y14577600D01*
X-16932865Y14540244D01*
X-16936531Y14503023D01*
X-16942018Y14466027D01*
X-16949315Y14429345D01*
X-16958403Y14393065D01*
X-16969260Y14357275D01*
X-16981859Y14322060D01*
X-16996172Y14287506D01*
X-17012163Y14253696D01*
X-17029794Y14220712D01*
X-17049022Y14188632D01*
X-17069800Y14157534D01*
X-17092080Y14127494D01*
X-17115807Y14098582D01*
X-17140924Y14070870D01*
X-17167370Y14044424D01*
X-17195082Y14019307D01*
X-17223994Y13995580D01*
X-17254034Y13973300D01*
X-17285132Y13952522D01*
X-17317212Y13933294D01*
X-17350196Y13915663D01*
X-17384006Y13899672D01*
X-17418560Y13885359D01*
X-17453775Y13872760D01*
X-17489565Y13861903D01*
X-17525845Y13852815D01*
X-17562527Y13845518D01*
X-17599523Y13840031D01*
X-17636744Y13836365D01*
X-17674100Y13834530D01*
X-17711500Y13834530D01*
X-17748856Y13836365D01*
X-17786077Y13840031D01*
X-17823073Y13845518D01*
X-17859755Y13852815D01*
X-17896035Y13861903D01*
X-17931825Y13872760D01*
X-17967040Y13885359D01*
X-18001594Y13899672D01*
X-18035404Y13915663D01*
X-18068388Y13933294D01*
X-18100468Y13952522D01*
X-18131566Y13973300D01*
X-18161606Y13995580D01*
X-18190518Y14019307D01*
X-18218230Y14044424D01*
X-18244676Y14070870D01*
X-18269793Y14098582D01*
X-18293520Y14127494D01*
X-18315800Y14157534D01*
X-18336578Y14188632D01*
X-18355806Y14220712D01*
X-18373437Y14253696D01*
X-18389428Y14287506D01*
X-18403741Y14322060D01*
X-18416340Y14357275D01*
X-18427197Y14393065D01*
X-18436285Y14429345D01*
X-18443582Y14466027D01*
X-18449069Y14503023D01*
X-18452735Y14540244D01*
X-18454570Y14577600D01*
X-18454570Y14586326D01*
X-18099078Y14586326D01*
X-18098099Y14566403D01*
X-18096144Y14546552D01*
X-18093217Y14526821D01*
X-18089325Y14507257D01*
X-18084479Y14487908D01*
X-18078688Y14468820D01*
X-18071968Y14450039D01*
X-18064335Y14431610D01*
X-18055806Y14413578D01*
X-18046403Y14395986D01*
X-18036148Y14378877D01*
X-18025066Y14362292D01*
X-18013184Y14346270D01*
X-18000530Y14330851D01*
X-17987134Y14316071D01*
X-17973029Y14301966D01*
X-17958249Y14288570D01*
X-17942830Y14275916D01*
X-17926808Y14264034D01*
X-17910223Y14252952D01*
X-17893114Y14242697D01*
X-17875522Y14233294D01*
X-17857490Y14224765D01*
X-17839061Y14217132D01*
X-17820280Y14210412D01*
X-17801192Y14204621D01*
X-17781843Y14199775D01*
X-17762279Y14195883D01*
X-17742548Y14192956D01*
X-17722697Y14191001D01*
X-17702774Y14190022D01*
X-17682826Y14190022D01*
X-17662903Y14191001D01*
X-17643052Y14192956D01*
X-17623321Y14195883D01*
X-17603757Y14199775D01*
X-17584408Y14204621D01*
X-17565320Y14210412D01*
X-17546539Y14217132D01*
X-17528110Y14224765D01*
X-17510078Y14233294D01*
X-17492486Y14242697D01*
X-17475377Y14252952D01*
X-17458792Y14264034D01*
X-17442770Y14275916D01*
X-17427351Y14288570D01*
X-17412571Y14301966D01*
X-17398466Y14316071D01*
X-17385070Y14330851D01*
X-17372416Y14346270D01*
X-17360534Y14362292D01*
X-17349452Y14378877D01*
X-17339197Y14395986D01*
X-17329794Y14413578D01*
X-17321265Y14431610D01*
X-17313632Y14450039D01*
X-17306912Y14468820D01*
X-17301121Y14487908D01*
X-17296275Y14507257D01*
X-17292383Y14526821D01*
X-17289456Y14546552D01*
X-17287501Y14566403D01*
X-17286522Y14586326D01*
X-17286522Y14606274D01*
X-17287501Y14626197D01*
X-17289456Y14646048D01*
X-17292383Y14665779D01*
X-17296275Y14685343D01*
X-17301121Y14704692D01*
X-17306912Y14723780D01*
X-17313632Y14742561D01*
X-17321265Y14760990D01*
X-17329794Y14779022D01*
X-17339197Y14796614D01*
X-17349452Y14813723D01*
X-17360534Y14830308D01*
X-17372416Y14846330D01*
X-17385070Y14861749D01*
X-17398466Y14876529D01*
X-17412571Y14890634D01*
X-17427351Y14904030D01*
X-17442770Y14916684D01*
X-17458792Y14928566D01*
X-17475377Y14939648D01*
X-17492486Y14949903D01*
X-17510078Y14959306D01*
X-17528110Y14967835D01*
X-17546539Y14975468D01*
X-17565320Y14982188D01*
X-17584408Y14987979D01*
X-17603757Y14992825D01*
X-17623321Y14996717D01*
X-17643052Y14999644D01*
X-17662903Y15001599D01*
X-17682826Y15002578D01*
X-17702774Y15002578D01*
X-17722697Y15001599D01*
X-17742548Y14999644D01*
X-17762279Y14996717D01*
X-17781843Y14992825D01*
X-17801192Y14987979D01*
X-17820280Y14982188D01*
X-17839061Y14975468D01*
X-17857490Y14967835D01*
X-17875522Y14959306D01*
X-17893114Y14949903D01*
X-17910223Y14939648D01*
X-17926808Y14928566D01*
X-17942830Y14916684D01*
X-17958249Y14904030D01*
X-17973029Y14890634D01*
X-17987134Y14876529D01*
X-18000530Y14861749D01*
X-18013184Y14846330D01*
X-18025066Y14830308D01*
X-18036148Y14813723D01*
X-18046403Y14796614D01*
X-18055806Y14779022D01*
X-18064335Y14760990D01*
X-18071968Y14742561D01*
X-18078688Y14723780D01*
X-18084479Y14704692D01*
X-18089325Y14685343D01*
X-18093217Y14665779D01*
X-18096144Y14646048D01*
X-18098099Y14626197D01*
X-18099078Y14606274D01*
X-18099078Y14586326D01*
X-18454570Y14586326D01*
X-18454570Y14615000D01*
X-18452735Y14652356D01*
X-18449069Y14689577D01*
X-18443582Y14726573D01*
X-18436285Y14763255D01*
X-18427197Y14799535D01*
X-18416340Y14835325D01*
X-18403741Y14870540D01*
X-18389428Y14905094D01*
X-18373437Y14938904D01*
X-18355806Y14971888D01*
X-18336578Y15003968D01*
X-18315800Y15035066D01*
X-18293520Y15065106D01*
X-18269793Y15094018D01*
X-18244676Y15121730D01*
X-18218230Y15148176D01*
X-18190518Y15173293D01*
X-18161606Y15197020D01*
X-18131566Y15219300D01*
X-18100468Y15240078D01*
X-18068388Y15259306D01*
X-18035404Y15276937D01*
X-18001594Y15292928D01*
X-17967040Y15307241D01*
X-17931825Y15319840D01*
X-17896035Y15330697D01*
X-17859755Y15339785D01*
X-17823073Y15347082D01*
X-17786077Y15352569D01*
X-17748856Y15356235D01*
X-17711500Y15358070D01*
X-17674100Y15358070D01*
X-17636744Y15356235D01*
G37*
G36*
X-10016744Y17896235D02*
G01*
X-9979523Y17892569D01*
X-9942527Y17887082D01*
X-9905845Y17879785D01*
X-9869565Y17870697D01*
X-9833775Y17859840D01*
X-9798560Y17847241D01*
X-9764006Y17832928D01*
X-9730196Y17816937D01*
X-9697212Y17799306D01*
X-9665132Y17780078D01*
X-9634034Y17759300D01*
X-9603994Y17737020D01*
X-9575082Y17713293D01*
X-9547370Y17688176D01*
X-9520924Y17661730D01*
X-9495807Y17634018D01*
X-9472080Y17605106D01*
X-9449800Y17575066D01*
X-9429022Y17543968D01*
X-9409794Y17511888D01*
X-9392163Y17478904D01*
X-9376172Y17445094D01*
X-9361859Y17410540D01*
X-9349260Y17375325D01*
X-9338403Y17339535D01*
X-9329315Y17303255D01*
X-9322018Y17266573D01*
X-9316531Y17229577D01*
X-9312865Y17192356D01*
X-9311030Y17155000D01*
X-9311030Y17117600D01*
X-9312865Y17080244D01*
X-9316531Y17043023D01*
X-9322018Y17006027D01*
X-9329315Y16969345D01*
X-9338403Y16933065D01*
X-9349260Y16897275D01*
X-9361859Y16862060D01*
X-9376172Y16827506D01*
X-9392163Y16793696D01*
X-9409794Y16760712D01*
X-9429022Y16728632D01*
X-9449800Y16697534D01*
X-9472080Y16667494D01*
X-9495807Y16638582D01*
X-9520924Y16610870D01*
X-9547370Y16584424D01*
X-9575082Y16559307D01*
X-9603994Y16535580D01*
X-9634034Y16513300D01*
X-9665132Y16492522D01*
X-9697212Y16473294D01*
X-9730196Y16455663D01*
X-9764006Y16439672D01*
X-9798560Y16425359D01*
X-9833775Y16412760D01*
X-9869565Y16401903D01*
X-9905845Y16392815D01*
X-9942527Y16385518D01*
X-9979523Y16380031D01*
X-10016744Y16376365D01*
X-10054100Y16374530D01*
X-10091500Y16374530D01*
X-10128856Y16376365D01*
X-10166077Y16380031D01*
X-10203073Y16385518D01*
X-10239755Y16392815D01*
X-10276035Y16401903D01*
X-10311825Y16412760D01*
X-10347040Y16425359D01*
X-10381594Y16439672D01*
X-10415404Y16455663D01*
X-10448388Y16473294D01*
X-10480468Y16492522D01*
X-10511566Y16513300D01*
X-10541606Y16535580D01*
X-10570518Y16559307D01*
X-10598230Y16584424D01*
X-10624676Y16610870D01*
X-10649793Y16638582D01*
X-10673520Y16667494D01*
X-10695800Y16697534D01*
X-10716578Y16728632D01*
X-10735806Y16760712D01*
X-10753437Y16793696D01*
X-10769428Y16827506D01*
X-10783741Y16862060D01*
X-10796340Y16897275D01*
X-10807197Y16933065D01*
X-10816285Y16969345D01*
X-10823582Y17006027D01*
X-10829069Y17043023D01*
X-10832735Y17080244D01*
X-10834570Y17117600D01*
X-10834570Y17126326D01*
X-10479078Y17126326D01*
X-10478099Y17106403D01*
X-10476144Y17086552D01*
X-10473217Y17066821D01*
X-10469325Y17047257D01*
X-10464479Y17027908D01*
X-10458688Y17008820D01*
X-10451968Y16990039D01*
X-10444335Y16971610D01*
X-10435806Y16953578D01*
X-10426403Y16935986D01*
X-10416148Y16918877D01*
X-10405066Y16902292D01*
X-10393184Y16886270D01*
X-10380530Y16870851D01*
X-10367134Y16856071D01*
X-10353029Y16841966D01*
X-10338249Y16828570D01*
X-10322830Y16815916D01*
X-10306808Y16804034D01*
X-10290223Y16792952D01*
X-10273114Y16782697D01*
X-10255522Y16773294D01*
X-10237490Y16764765D01*
X-10219061Y16757132D01*
X-10200280Y16750412D01*
X-10181192Y16744621D01*
X-10161843Y16739775D01*
X-10142279Y16735883D01*
X-10122548Y16732956D01*
X-10102697Y16731001D01*
X-10082774Y16730022D01*
X-10062826Y16730022D01*
X-10042903Y16731001D01*
X-10023052Y16732956D01*
X-10003321Y16735883D01*
X-9983757Y16739775D01*
X-9964408Y16744621D01*
X-9945320Y16750412D01*
X-9926539Y16757132D01*
X-9908110Y16764765D01*
X-9890078Y16773294D01*
X-9872486Y16782697D01*
X-9855377Y16792952D01*
X-9838792Y16804034D01*
X-9822770Y16815916D01*
X-9807351Y16828570D01*
X-9792571Y16841966D01*
X-9778466Y16856071D01*
X-9765070Y16870851D01*
X-9752416Y16886270D01*
X-9740534Y16902292D01*
X-9729452Y16918877D01*
X-9719197Y16935986D01*
X-9709794Y16953578D01*
X-9701265Y16971610D01*
X-9693632Y16990039D01*
X-9686912Y17008820D01*
X-9681121Y17027908D01*
X-9676275Y17047257D01*
X-9672383Y17066821D01*
X-9669456Y17086552D01*
X-9667501Y17106403D01*
X-9666522Y17126326D01*
X-9666522Y17146274D01*
X-9667501Y17166197D01*
X-9669456Y17186048D01*
X-9672383Y17205779D01*
X-9676275Y17225343D01*
X-9681121Y17244692D01*
X-9686912Y17263780D01*
X-9693632Y17282561D01*
X-9701265Y17300990D01*
X-9709794Y17319022D01*
X-9719197Y17336614D01*
X-9729452Y17353723D01*
X-9740534Y17370308D01*
X-9752416Y17386330D01*
X-9765070Y17401749D01*
X-9778466Y17416529D01*
X-9792571Y17430634D01*
X-9807351Y17444030D01*
X-9822770Y17456684D01*
X-9838792Y17468566D01*
X-9855377Y17479648D01*
X-9872486Y17489903D01*
X-9890078Y17499306D01*
X-9908110Y17507835D01*
X-9926539Y17515468D01*
X-9945320Y17522188D01*
X-9964408Y17527979D01*
X-9983757Y17532825D01*
X-10003321Y17536717D01*
X-10023052Y17539644D01*
X-10042903Y17541599D01*
X-10062826Y17542578D01*
X-10082774Y17542578D01*
X-10102697Y17541599D01*
X-10122548Y17539644D01*
X-10142279Y17536717D01*
X-10161843Y17532825D01*
X-10181192Y17527979D01*
X-10200280Y17522188D01*
X-10219061Y17515468D01*
X-10237490Y17507835D01*
X-10255522Y17499306D01*
X-10273114Y17489903D01*
X-10290223Y17479648D01*
X-10306808Y17468566D01*
X-10322830Y17456684D01*
X-10338249Y17444030D01*
X-10353029Y17430634D01*
X-10367134Y17416529D01*
X-10380530Y17401749D01*
X-10393184Y17386330D01*
X-10405066Y17370308D01*
X-10416148Y17353723D01*
X-10426403Y17336614D01*
X-10435806Y17319022D01*
X-10444335Y17300990D01*
X-10451968Y17282561D01*
X-10458688Y17263780D01*
X-10464479Y17244692D01*
X-10469325Y17225343D01*
X-10473217Y17205779D01*
X-10476144Y17186048D01*
X-10478099Y17166197D01*
X-10479078Y17146274D01*
X-10479078Y17126326D01*
X-10834570Y17126326D01*
X-10834570Y17155000D01*
X-10832735Y17192356D01*
X-10829069Y17229577D01*
X-10823582Y17266573D01*
X-10816285Y17303255D01*
X-10807197Y17339535D01*
X-10796340Y17375325D01*
X-10783741Y17410540D01*
X-10769428Y17445094D01*
X-10753437Y17478904D01*
X-10735806Y17511888D01*
X-10716578Y17543968D01*
X-10695800Y17575066D01*
X-10673520Y17605106D01*
X-10649793Y17634018D01*
X-10624676Y17661730D01*
X-10598230Y17688176D01*
X-10570518Y17713293D01*
X-10541606Y17737020D01*
X-10511566Y17759300D01*
X-10480468Y17780078D01*
X-10448388Y17799306D01*
X-10415404Y17816937D01*
X-10381594Y17832928D01*
X-10347040Y17847241D01*
X-10311825Y17859840D01*
X-10276035Y17870697D01*
X-10239755Y17879785D01*
X-10203073Y17887082D01*
X-10166077Y17892569D01*
X-10128856Y17896235D01*
X-10091500Y17898070D01*
X-10054100Y17898070D01*
X-10016744Y17896235D01*
G37*
G36*
X-10016744Y15356235D02*
G01*
X-9979523Y15352569D01*
X-9942527Y15347082D01*
X-9905845Y15339785D01*
X-9869565Y15330697D01*
X-9833775Y15319840D01*
X-9798560Y15307241D01*
X-9764006Y15292928D01*
X-9730196Y15276937D01*
X-9697212Y15259306D01*
X-9665132Y15240078D01*
X-9634034Y15219300D01*
X-9603994Y15197020D01*
X-9575082Y15173293D01*
X-9547370Y15148176D01*
X-9520924Y15121730D01*
X-9495807Y15094018D01*
X-9472080Y15065106D01*
X-9449800Y15035066D01*
X-9429022Y15003968D01*
X-9409794Y14971888D01*
X-9392163Y14938904D01*
X-9376172Y14905094D01*
X-9361859Y14870540D01*
X-9349260Y14835325D01*
X-9338403Y14799535D01*
X-9329315Y14763255D01*
X-9322018Y14726573D01*
X-9316531Y14689577D01*
X-9312865Y14652356D01*
X-9311030Y14615000D01*
X-9311030Y14577600D01*
X-9312865Y14540244D01*
X-9316531Y14503023D01*
X-9322018Y14466027D01*
X-9329315Y14429345D01*
X-9338403Y14393065D01*
X-9349260Y14357275D01*
X-9361859Y14322060D01*
X-9376172Y14287506D01*
X-9392163Y14253696D01*
X-9409794Y14220712D01*
X-9429022Y14188632D01*
X-9449800Y14157534D01*
X-9472080Y14127494D01*
X-9495807Y14098582D01*
X-9520924Y14070870D01*
X-9547370Y14044424D01*
X-9575082Y14019307D01*
X-9603994Y13995580D01*
X-9634034Y13973300D01*
X-9665132Y13952522D01*
X-9697212Y13933294D01*
X-9730196Y13915663D01*
X-9764006Y13899672D01*
X-9798560Y13885359D01*
X-9833775Y13872760D01*
X-9869565Y13861903D01*
X-9905845Y13852815D01*
X-9942527Y13845518D01*
X-9979523Y13840031D01*
X-10016744Y13836365D01*
X-10054100Y13834530D01*
X-10091500Y13834530D01*
X-10128856Y13836365D01*
X-10166077Y13840031D01*
X-10203073Y13845518D01*
X-10239755Y13852815D01*
X-10276035Y13861903D01*
X-10311825Y13872760D01*
X-10347040Y13885359D01*
X-10381594Y13899672D01*
X-10415404Y13915663D01*
X-10448388Y13933294D01*
X-10480468Y13952522D01*
X-10511566Y13973300D01*
X-10541606Y13995580D01*
X-10570518Y14019307D01*
X-10598230Y14044424D01*
X-10624676Y14070870D01*
X-10649793Y14098582D01*
X-10673520Y14127494D01*
X-10695800Y14157534D01*
X-10716578Y14188632D01*
X-10735806Y14220712D01*
X-10753437Y14253696D01*
X-10769428Y14287506D01*
X-10783741Y14322060D01*
X-10796340Y14357275D01*
X-10807197Y14393065D01*
X-10816285Y14429345D01*
X-10823582Y14466027D01*
X-10829069Y14503023D01*
X-10832735Y14540244D01*
X-10834570Y14577600D01*
X-10834570Y14586326D01*
X-10479078Y14586326D01*
X-10478099Y14566403D01*
X-10476144Y14546552D01*
X-10473217Y14526821D01*
X-10469325Y14507257D01*
X-10464479Y14487908D01*
X-10458688Y14468820D01*
X-10451968Y14450039D01*
X-10444335Y14431610D01*
X-10435806Y14413578D01*
X-10426403Y14395986D01*
X-10416148Y14378877D01*
X-10405066Y14362292D01*
X-10393184Y14346270D01*
X-10380530Y14330851D01*
X-10367134Y14316071D01*
X-10353029Y14301966D01*
X-10338249Y14288570D01*
X-10322830Y14275916D01*
X-10306808Y14264034D01*
X-10290223Y14252952D01*
X-10273114Y14242697D01*
X-10255522Y14233294D01*
X-10237490Y14224765D01*
X-10219061Y14217132D01*
X-10200280Y14210412D01*
X-10181192Y14204621D01*
X-10161843Y14199775D01*
X-10142279Y14195883D01*
X-10122548Y14192956D01*
X-10102697Y14191001D01*
X-10082774Y14190022D01*
X-10062826Y14190022D01*
X-10042903Y14191001D01*
X-10023052Y14192956D01*
X-10003321Y14195883D01*
X-9983757Y14199775D01*
X-9964408Y14204621D01*
X-9945320Y14210412D01*
X-9926539Y14217132D01*
X-9908110Y14224765D01*
X-9890078Y14233294D01*
X-9872486Y14242697D01*
X-9855377Y14252952D01*
X-9838792Y14264034D01*
X-9822770Y14275916D01*
X-9807351Y14288570D01*
X-9792571Y14301966D01*
X-9778466Y14316071D01*
X-9765070Y14330851D01*
X-9752416Y14346270D01*
X-9740534Y14362292D01*
X-9729452Y14378877D01*
X-9719197Y14395986D01*
X-9709794Y14413578D01*
X-9701265Y14431610D01*
X-9693632Y14450039D01*
X-9686912Y14468820D01*
X-9681121Y14487908D01*
X-9676275Y14507257D01*
X-9672383Y14526821D01*
X-9669456Y14546552D01*
X-9667501Y14566403D01*
X-9666522Y14586326D01*
X-9666522Y14606274D01*
X-9667501Y14626197D01*
X-9669456Y14646048D01*
X-9672383Y14665779D01*
X-9676275Y14685343D01*
X-9681121Y14704692D01*
X-9686912Y14723780D01*
X-9693632Y14742561D01*
X-9701265Y14760990D01*
X-9709794Y14779022D01*
X-9719197Y14796614D01*
X-9729452Y14813723D01*
X-9740534Y14830308D01*
X-9752416Y14846330D01*
X-9765070Y14861749D01*
X-9778466Y14876529D01*
X-9792571Y14890634D01*
X-9807351Y14904030D01*
X-9822770Y14916684D01*
X-9838792Y14928566D01*
X-9855377Y14939648D01*
X-9872486Y14949903D01*
X-9890078Y14959306D01*
X-9908110Y14967835D01*
X-9926539Y14975468D01*
X-9945320Y14982188D01*
X-9964408Y14987979D01*
X-9983757Y14992825D01*
X-10003321Y14996717D01*
X-10023052Y14999644D01*
X-10042903Y15001599D01*
X-10062826Y15002578D01*
X-10082774Y15002578D01*
X-10102697Y15001599D01*
X-10122548Y14999644D01*
X-10142279Y14996717D01*
X-10161843Y14992825D01*
X-10181192Y14987979D01*
X-10200280Y14982188D01*
X-10219061Y14975468D01*
X-10237490Y14967835D01*
X-10255522Y14959306D01*
X-10273114Y14949903D01*
X-10290223Y14939648D01*
X-10306808Y14928566D01*
X-10322830Y14916684D01*
X-10338249Y14904030D01*
X-10353029Y14890634D01*
X-10367134Y14876529D01*
X-10380530Y14861749D01*
X-10393184Y14846330D01*
X-10405066Y14830308D01*
X-10416148Y14813723D01*
X-10426403Y14796614D01*
X-10435806Y14779022D01*
X-10444335Y14760990D01*
X-10451968Y14742561D01*
X-10458688Y14723780D01*
X-10464479Y14704692D01*
X-10469325Y14685343D01*
X-10473217Y14665779D01*
X-10476144Y14646048D01*
X-10478099Y14626197D01*
X-10479078Y14606274D01*
X-10479078Y14586326D01*
X-10834570Y14586326D01*
X-10834570Y14615000D01*
X-10832735Y14652356D01*
X-10829069Y14689577D01*
X-10823582Y14726573D01*
X-10816285Y14763255D01*
X-10807197Y14799535D01*
X-10796340Y14835325D01*
X-10783741Y14870540D01*
X-10769428Y14905094D01*
X-10753437Y14938904D01*
X-10735806Y14971888D01*
X-10716578Y15003968D01*
X-10695800Y15035066D01*
X-10673520Y15065106D01*
X-10649793Y15094018D01*
X-10624676Y15121730D01*
X-10598230Y15148176D01*
X-10570518Y15173293D01*
X-10541606Y15197020D01*
X-10511566Y15219300D01*
X-10480468Y15240078D01*
X-10448388Y15259306D01*
X-10415404Y15276937D01*
X-10381594Y15292928D01*
X-10347040Y15307241D01*
X-10311825Y15319840D01*
X-10276035Y15330697D01*
X-10239755Y15339785D01*
X-10203073Y15347082D01*
X-10166077Y15352569D01*
X-10128856Y15356235D01*
X-10091500Y15358070D01*
X-10054100Y15358070D01*
X-10016744Y15356235D01*
G37*
G36*
X-662799Y-25714493D02*
G01*
X-594415Y-25721229D01*
X-526443Y-25731311D01*
X-459048Y-25744717D01*
X-392392Y-25761414D01*
X-326635Y-25781361D01*
X-261937Y-25804510D01*
X-198452Y-25830806D01*
X-136334Y-25860186D01*
X-75732Y-25892578D01*
X-16793Y-25927905D01*
X40342Y-25966081D01*
X95535Y-26007015D01*
X148652Y-26050608D01*
X199567Y-26096754D01*
X248156Y-26145343D01*
X294303Y-26196258D01*
X337895Y-26249376D01*
X378829Y-26304569D01*
X417005Y-26361703D01*
X452332Y-26420643D01*
X484724Y-26481244D01*
X514104Y-26543362D01*
X540400Y-26606847D01*
X563550Y-26671546D01*
X583497Y-26737302D01*
X600193Y-26803958D01*
X613599Y-26871353D01*
X623682Y-26939325D01*
X630417Y-27007710D01*
X633789Y-27076342D01*
X633789Y-27145058D01*
X630417Y-27213690D01*
X623682Y-27282075D01*
X613599Y-27350047D01*
X600193Y-27417442D01*
X583497Y-27484098D01*
X563550Y-27549854D01*
X540400Y-27614553D01*
X514104Y-27678038D01*
X484724Y-27740156D01*
X452332Y-27800757D01*
X417005Y-27859697D01*
X378829Y-27916831D01*
X337895Y-27972024D01*
X294303Y-28025142D01*
X248156Y-28076057D01*
X199567Y-28124646D01*
X148652Y-28170792D01*
X95535Y-28214385D01*
X40342Y-28255319D01*
X-16793Y-28293495D01*
X-75732Y-28328822D01*
X-136334Y-28361214D01*
X-198452Y-28390594D01*
X-261937Y-28416890D01*
X-326635Y-28440039D01*
X-392392Y-28459986D01*
X-459048Y-28476683D01*
X-526443Y-28490089D01*
X-594415Y-28500171D01*
X-662799Y-28506907D01*
X-731432Y-28510278D01*
X-800147Y-28510278D01*
X-868780Y-28506907D01*
X-937165Y-28500171D01*
X-1005136Y-28490089D01*
X-1072531Y-28476683D01*
X-1139188Y-28459986D01*
X-1204944Y-28440039D01*
X-1269643Y-28416890D01*
X-1333127Y-28390594D01*
X-1395246Y-28361214D01*
X-1455847Y-28328822D01*
X-1514786Y-28293495D01*
X-1571921Y-28255319D01*
X-1627114Y-28214385D01*
X-1680232Y-28170792D01*
X-1731146Y-28124646D01*
X-1779736Y-28076057D01*
X-1825882Y-28025142D01*
X-1869475Y-27972024D01*
X-1910408Y-27916831D01*
X-1948585Y-27859697D01*
X-1983911Y-27800757D01*
X-2016304Y-27740156D01*
X-2045683Y-27678038D01*
X-2071980Y-27614553D01*
X-2095129Y-27549854D01*
X-2115076Y-27484098D01*
X-2131773Y-27417442D01*
X-2145178Y-27350047D01*
X-2155261Y-27282075D01*
X-2161996Y-27213690D01*
X-2165368Y-27145058D01*
X-2165368Y-27127879D01*
X-1465579Y-27127879D01*
X-1463893Y-27162195D01*
X-1460525Y-27196387D01*
X-1455484Y-27230373D01*
X-1448781Y-27264071D01*
X-1440433Y-27297399D01*
X-1430459Y-27330277D01*
X-1418885Y-27362627D01*
X-1405736Y-27394369D01*
X-1391047Y-27425428D01*
X-1374851Y-27455729D01*
X-1357187Y-27485198D01*
X-1338099Y-27513766D01*
X-1317632Y-27541362D01*
X-1295836Y-27567921D01*
X-1272763Y-27593378D01*
X-1248468Y-27617673D01*
X-1223011Y-27640746D01*
X-1196452Y-27662542D01*
X-1168855Y-27683009D01*
X-1140288Y-27702097D01*
X-1110818Y-27719761D01*
X-1080518Y-27735957D01*
X-1049459Y-27750647D01*
X-1017716Y-27763795D01*
X-985367Y-27775370D01*
X-952489Y-27785343D01*
X-919161Y-27793691D01*
X-885463Y-27800394D01*
X-851477Y-27805436D01*
X-817285Y-27808803D01*
X-782969Y-27810489D01*
X-748611Y-27810489D01*
X-714294Y-27808803D01*
X-680102Y-27805436D01*
X-646116Y-27800394D01*
X-612419Y-27793691D01*
X-579091Y-27785343D01*
X-546212Y-27775370D01*
X-513863Y-27763795D01*
X-482121Y-27750647D01*
X-451062Y-27735957D01*
X-420761Y-27719761D01*
X-391291Y-27702097D01*
X-362724Y-27683009D01*
X-335128Y-27662542D01*
X-308569Y-27640746D01*
X-283111Y-27617673D01*
X-258817Y-27593378D01*
X-235743Y-27567921D01*
X-213947Y-27541362D01*
X-193480Y-27513766D01*
X-174392Y-27485198D01*
X-156729Y-27455729D01*
X-140533Y-27425428D01*
X-125843Y-27394369D01*
X-112695Y-27362627D01*
X-101120Y-27330277D01*
X-91146Y-27297399D01*
X-82798Y-27264071D01*
X-76095Y-27230373D01*
X-71054Y-27196387D01*
X-67686Y-27162195D01*
X-66000Y-27127879D01*
X-66000Y-27093521D01*
X-67686Y-27059205D01*
X-71054Y-27025013D01*
X-76095Y-26991027D01*
X-82798Y-26957329D01*
X-91146Y-26924001D01*
X-101120Y-26891123D01*
X-112695Y-26858773D01*
X-125843Y-26827031D01*
X-140533Y-26795972D01*
X-156729Y-26765671D01*
X-174392Y-26736202D01*
X-193480Y-26707634D01*
X-213947Y-26680038D01*
X-235743Y-26653479D01*
X-258817Y-26628022D01*
X-283111Y-26603727D01*
X-308569Y-26580654D01*
X-335128Y-26558858D01*
X-362724Y-26538391D01*
X-391291Y-26519303D01*
X-420761Y-26501639D01*
X-451062Y-26485443D01*
X-482121Y-26470753D01*
X-513863Y-26457605D01*
X-546212Y-26446030D01*
X-579091Y-26436057D01*
X-612419Y-26427709D01*
X-646116Y-26421006D01*
X-680102Y-26415964D01*
X-714294Y-26412597D01*
X-748611Y-26410911D01*
X-782969Y-26410911D01*
X-817285Y-26412597D01*
X-851477Y-26415964D01*
X-885463Y-26421006D01*
X-919161Y-26427709D01*
X-952489Y-26436057D01*
X-985367Y-26446030D01*
X-1017716Y-26457605D01*
X-1049459Y-26470753D01*
X-1080518Y-26485443D01*
X-1110818Y-26501639D01*
X-1140288Y-26519303D01*
X-1168855Y-26538391D01*
X-1196452Y-26558858D01*
X-1223011Y-26580654D01*
X-1248468Y-26603727D01*
X-1272763Y-26628022D01*
X-1295836Y-26653479D01*
X-1317632Y-26680038D01*
X-1338099Y-26707634D01*
X-1357187Y-26736202D01*
X-1374851Y-26765671D01*
X-1391047Y-26795972D01*
X-1405736Y-26827031D01*
X-1418885Y-26858773D01*
X-1430459Y-26891123D01*
X-1440433Y-26924001D01*
X-1448781Y-26957329D01*
X-1455484Y-26991027D01*
X-1460525Y-27025013D01*
X-1463893Y-27059205D01*
X-1465579Y-27093521D01*
X-1465579Y-27127879D01*
X-2165368Y-27127879D01*
X-2165368Y-27076342D01*
X-2161996Y-27007710D01*
X-2155261Y-26939325D01*
X-2145178Y-26871353D01*
X-2131773Y-26803958D01*
X-2115076Y-26737302D01*
X-2095129Y-26671546D01*
X-2071980Y-26606847D01*
X-2045683Y-26543362D01*
X-2016304Y-26481244D01*
X-1983911Y-26420643D01*
X-1948585Y-26361703D01*
X-1910408Y-26304569D01*
X-1869475Y-26249376D01*
X-1825882Y-26196258D01*
X-1779736Y-26145343D01*
X-1731146Y-26096754D01*
X-1680232Y-26050608D01*
X-1627114Y-26007015D01*
X-1571921Y-25966081D01*
X-1514786Y-25927905D01*
X-1455847Y-25892578D01*
X-1395246Y-25860186D01*
X-1333127Y-25830806D01*
X-1269643Y-25804510D01*
X-1204944Y-25781361D01*
X-1139188Y-25761414D01*
X-1072531Y-25744717D01*
X-1005136Y-25731311D01*
X-937165Y-25721229D01*
X-868780Y-25714493D01*
X-800147Y-25711122D01*
X-731432Y-25711122D01*
X-662799Y-25714493D01*
G37*
G36*
X634200Y-15550700D02*
G01*
X634200Y-18350700D01*
X-2165800Y-18350700D01*
X-2165800Y-16967879D01*
X-1465589Y-16967879D01*
X-1463903Y-17002195D01*
X-1460536Y-17036387D01*
X-1455494Y-17070373D01*
X-1448791Y-17104071D01*
X-1440443Y-17137399D01*
X-1430470Y-17170277D01*
X-1418895Y-17202627D01*
X-1405747Y-17234369D01*
X-1391057Y-17265428D01*
X-1374861Y-17295729D01*
X-1357197Y-17325198D01*
X-1338109Y-17353766D01*
X-1317642Y-17381362D01*
X-1295846Y-17407921D01*
X-1272773Y-17433378D01*
X-1248478Y-17457673D01*
X-1223021Y-17480746D01*
X-1196462Y-17502542D01*
X-1168866Y-17523009D01*
X-1140298Y-17542097D01*
X-1110829Y-17559761D01*
X-1080528Y-17575957D01*
X-1049469Y-17590647D01*
X-1017727Y-17603795D01*
X-985377Y-17615370D01*
X-952499Y-17625343D01*
X-919171Y-17633691D01*
X-885473Y-17640394D01*
X-851487Y-17645436D01*
X-817295Y-17648803D01*
X-782979Y-17650489D01*
X-748621Y-17650489D01*
X-714305Y-17648803D01*
X-680113Y-17645436D01*
X-646127Y-17640394D01*
X-612429Y-17633691D01*
X-579101Y-17625343D01*
X-546223Y-17615370D01*
X-513873Y-17603795D01*
X-482131Y-17590647D01*
X-451072Y-17575957D01*
X-420771Y-17559761D01*
X-391302Y-17542097D01*
X-362734Y-17523009D01*
X-335138Y-17502542D01*
X-308579Y-17480746D01*
X-283122Y-17457673D01*
X-258827Y-17433378D01*
X-235754Y-17407921D01*
X-213958Y-17381362D01*
X-193491Y-17353766D01*
X-174403Y-17325198D01*
X-156739Y-17295729D01*
X-140543Y-17265428D01*
X-125853Y-17234369D01*
X-112705Y-17202627D01*
X-101130Y-17170277D01*
X-91157Y-17137399D01*
X-82809Y-17104071D01*
X-76106Y-17070373D01*
X-71064Y-17036387D01*
X-67697Y-17002195D01*
X-66011Y-16967879D01*
X-66011Y-16933521D01*
X-67697Y-16899205D01*
X-71064Y-16865013D01*
X-76106Y-16831027D01*
X-82809Y-16797329D01*
X-91157Y-16764001D01*
X-101130Y-16731123D01*
X-112705Y-16698773D01*
X-125853Y-16667031D01*
X-140543Y-16635972D01*
X-156739Y-16605671D01*
X-174403Y-16576202D01*
X-193491Y-16547634D01*
X-213958Y-16520038D01*
X-235754Y-16493479D01*
X-258827Y-16468022D01*
X-283122Y-16443727D01*
X-308579Y-16420654D01*
X-335138Y-16398858D01*
X-362734Y-16378391D01*
X-391302Y-16359303D01*
X-420771Y-16341639D01*
X-451072Y-16325443D01*
X-482131Y-16310753D01*
X-513873Y-16297605D01*
X-546223Y-16286030D01*
X-579101Y-16276057D01*
X-612429Y-16267709D01*
X-646127Y-16261006D01*
X-680113Y-16255964D01*
X-714305Y-16252597D01*
X-748621Y-16250911D01*
X-782979Y-16250911D01*
X-817295Y-16252597D01*
X-851487Y-16255964D01*
X-885473Y-16261006D01*
X-919171Y-16267709D01*
X-952499Y-16276057D01*
X-985377Y-16286030D01*
X-1017727Y-16297605D01*
X-1049469Y-16310753D01*
X-1080528Y-16325443D01*
X-1110829Y-16341639D01*
X-1140298Y-16359303D01*
X-1168866Y-16378391D01*
X-1196462Y-16398858D01*
X-1223021Y-16420654D01*
X-1248478Y-16443727D01*
X-1272773Y-16468022D01*
X-1295846Y-16493479D01*
X-1317642Y-16520038D01*
X-1338109Y-16547634D01*
X-1357197Y-16576202D01*
X-1374861Y-16605671D01*
X-1391057Y-16635972D01*
X-1405747Y-16667031D01*
X-1418895Y-16698773D01*
X-1430470Y-16731123D01*
X-1440443Y-16764001D01*
X-1448791Y-16797329D01*
X-1455494Y-16831027D01*
X-1460536Y-16865013D01*
X-1463903Y-16899205D01*
X-1465589Y-16933521D01*
X-1465589Y-16967879D01*
X-2165800Y-16967879D01*
X-2165800Y-15550700D01*
X634200Y-15550700D01*
G37*
G36*
X1262802Y-11195599D02*
G01*
X323002Y-11195599D01*
X323002Y-10001799D01*
X1262802Y-10001799D01*
X1262802Y-11195599D01*
G37*
G36*
X1262798Y-7179799D02*
G01*
X322998Y-7179799D01*
X322998Y-5985999D01*
X1262798Y-5985999D01*
X1262798Y-7179799D01*
G37*
G36*
X-337198Y-11195601D02*
G01*
X-1276998Y-11195601D01*
X-1276998Y-10001801D01*
X-337198Y-10001801D01*
X-337198Y-11195601D01*
G37*
G36*
X-337202Y-7179801D02*
G01*
X-1277002Y-7179801D01*
X-1277002Y-5986001D01*
X-337202Y-5986001D01*
X-337202Y-7179801D01*
G37*
G36*
X-15453433Y24690875D02*
G01*
X-15446595Y24690202D01*
X-15439816Y24689082D01*
X-15433124Y24687522D01*
X-15426549Y24685528D01*
X-15420118Y24683107D01*
X-15413860Y24680272D01*
X-15407800Y24677033D01*
X-15401965Y24673404D01*
X-15396380Y24669402D01*
X-15391069Y24665043D01*
X-15386054Y24660346D01*
X-15381357Y24655331D01*
X-15376998Y24650020D01*
X-15372996Y24644435D01*
X-15369367Y24638600D01*
X-15366128Y24632540D01*
X-15363293Y24626282D01*
X-15360872Y24619851D01*
X-15358878Y24613276D01*
X-15357318Y24606584D01*
X-15356198Y24599805D01*
X-15355525Y24592967D01*
X-15355300Y24586100D01*
X-15355300Y23396100D01*
X-15355525Y23389233D01*
X-15356198Y23382395D01*
X-15357318Y23375616D01*
X-15358878Y23368924D01*
X-15360872Y23362349D01*
X-15363293Y23355918D01*
X-15366128Y23349660D01*
X-15369367Y23343600D01*
X-15372996Y23337765D01*
X-15376998Y23332180D01*
X-15381357Y23326869D01*
X-15386054Y23321854D01*
X-15391069Y23317157D01*
X-15396380Y23312798D01*
X-15401965Y23308796D01*
X-15407800Y23305167D01*
X-15413860Y23301928D01*
X-15420118Y23299093D01*
X-15426549Y23296672D01*
X-15433124Y23294678D01*
X-15439816Y23293118D01*
X-15446595Y23291998D01*
X-15453433Y23291325D01*
X-15460300Y23291100D01*
X-16275300Y23291100D01*
X-16282167Y23291325D01*
X-16289005Y23291998D01*
X-16295784Y23293118D01*
X-16302476Y23294678D01*
X-16309051Y23296672D01*
X-16315482Y23299093D01*
X-16321740Y23301928D01*
X-16327800Y23305167D01*
X-16333635Y23308796D01*
X-16339220Y23312798D01*
X-16344531Y23317157D01*
X-16349546Y23321854D01*
X-16354243Y23326869D01*
X-16358602Y23332180D01*
X-16362604Y23337765D01*
X-16366233Y23343600D01*
X-16369472Y23349660D01*
X-16372307Y23355918D01*
X-16374728Y23362349D01*
X-16376722Y23368924D01*
X-16378282Y23375616D01*
X-16379402Y23382395D01*
X-16380075Y23389233D01*
X-16380300Y23396100D01*
X-16380300Y24586100D01*
X-16380075Y24592967D01*
X-16379402Y24599805D01*
X-16378282Y24606584D01*
X-16376722Y24613276D01*
X-16374728Y24619851D01*
X-16372307Y24626282D01*
X-16369472Y24632540D01*
X-16366233Y24638600D01*
X-16362604Y24644435D01*
X-16358602Y24650020D01*
X-16354243Y24655331D01*
X-16349546Y24660346D01*
X-16344531Y24665043D01*
X-16339220Y24669402D01*
X-16333635Y24673404D01*
X-16327800Y24677033D01*
X-16321740Y24680272D01*
X-16315482Y24683107D01*
X-16309051Y24685528D01*
X-16302476Y24687522D01*
X-16295784Y24689082D01*
X-16289005Y24690202D01*
X-16282167Y24690875D01*
X-16275300Y24691100D01*
X-15460300Y24691100D01*
X-15453433Y24690875D01*
G37*
G36*
X-17278433Y24690875D02*
G01*
X-17271595Y24690202D01*
X-17264816Y24689082D01*
X-17258124Y24687522D01*
X-17251549Y24685528D01*
X-17245118Y24683107D01*
X-17238860Y24680272D01*
X-17232800Y24677033D01*
X-17226965Y24673404D01*
X-17221380Y24669402D01*
X-17216069Y24665043D01*
X-17211054Y24660346D01*
X-17206357Y24655331D01*
X-17201998Y24650020D01*
X-17197996Y24644435D01*
X-17194367Y24638600D01*
X-17191128Y24632540D01*
X-17188293Y24626282D01*
X-17185872Y24619851D01*
X-17183878Y24613276D01*
X-17182318Y24606584D01*
X-17181198Y24599805D01*
X-17180525Y24592967D01*
X-17180300Y24586100D01*
X-17180300Y23396100D01*
X-17180525Y23389233D01*
X-17181198Y23382395D01*
X-17182318Y23375616D01*
X-17183878Y23368924D01*
X-17185872Y23362349D01*
X-17188293Y23355918D01*
X-17191128Y23349660D01*
X-17194367Y23343600D01*
X-17197996Y23337765D01*
X-17201998Y23332180D01*
X-17206357Y23326869D01*
X-17211054Y23321854D01*
X-17216069Y23317157D01*
X-17221380Y23312798D01*
X-17226965Y23308796D01*
X-17232800Y23305167D01*
X-17238860Y23301928D01*
X-17245118Y23299093D01*
X-17251549Y23296672D01*
X-17258124Y23294678D01*
X-17264816Y23293118D01*
X-17271595Y23291998D01*
X-17278433Y23291325D01*
X-17285300Y23291100D01*
X-18100300Y23291100D01*
X-18107167Y23291325D01*
X-18114005Y23291998D01*
X-18120784Y23293118D01*
X-18127476Y23294678D01*
X-18134051Y23296672D01*
X-18140482Y23299093D01*
X-18146740Y23301928D01*
X-18152800Y23305167D01*
X-18158635Y23308796D01*
X-18164220Y23312798D01*
X-18169531Y23317157D01*
X-18174546Y23321854D01*
X-18179243Y23326869D01*
X-18183602Y23332180D01*
X-18187604Y23337765D01*
X-18191233Y23343600D01*
X-18194472Y23349660D01*
X-18197307Y23355918D01*
X-18199728Y23362349D01*
X-18201722Y23368924D01*
X-18203282Y23375616D01*
X-18204402Y23382395D01*
X-18205075Y23389233D01*
X-18205300Y23396100D01*
X-18205300Y24586100D01*
X-18205075Y24592967D01*
X-18204402Y24599805D01*
X-18203282Y24606584D01*
X-18201722Y24613276D01*
X-18199728Y24619851D01*
X-18197307Y24626282D01*
X-18194472Y24632540D01*
X-18191233Y24638600D01*
X-18187604Y24644435D01*
X-18183602Y24650020D01*
X-18179243Y24655331D01*
X-18174546Y24660346D01*
X-18169531Y24665043D01*
X-18164220Y24669402D01*
X-18158635Y24673404D01*
X-18152800Y24677033D01*
X-18146740Y24680272D01*
X-18140482Y24683107D01*
X-18134051Y24685528D01*
X-18127476Y24687522D01*
X-18120784Y24689082D01*
X-18114005Y24690202D01*
X-18107167Y24690875D01*
X-18100300Y24691100D01*
X-17285300Y24691100D01*
X-17278433Y24690875D01*
G37*
G36*
X-8664500Y-25010700D02*
G01*
X-9964500Y-25010700D01*
X-9964500Y-23410700D01*
X-8664500Y-23410700D01*
X-8664500Y-25010700D01*
G37*
G36*
X-9564500Y-27910700D02*
G01*
X-11564500Y-27910700D01*
X-11564500Y-26310700D01*
X-9564500Y-26310700D01*
X-9564500Y-27910700D01*
G37*
G36*
X-11164500Y-25010700D02*
G01*
X-12464500Y-25010700D01*
X-12464500Y-23410700D01*
X-11164500Y-23410700D01*
X-11164500Y-25010700D01*
G37*
G36*
X-26391132Y-13264825D02*
G01*
X-26384294Y-13265498D01*
X-26377515Y-13266618D01*
X-26370823Y-13268178D01*
X-26364248Y-13270172D01*
X-26357817Y-13272593D01*
X-26351559Y-13275428D01*
X-26345499Y-13278667D01*
X-26339664Y-13282296D01*
X-26334079Y-13286298D01*
X-26328768Y-13290657D01*
X-26323753Y-13295354D01*
X-26319056Y-13300369D01*
X-26314697Y-13305680D01*
X-26310695Y-13311265D01*
X-26307066Y-13317100D01*
X-26303827Y-13323160D01*
X-26300992Y-13329418D01*
X-26298571Y-13335849D01*
X-26296577Y-13342424D01*
X-26295017Y-13349116D01*
X-26293897Y-13355895D01*
X-26293224Y-13362733D01*
X-26292999Y-13369600D01*
X-26292999Y-14184600D01*
X-26293224Y-14191467D01*
X-26293897Y-14198305D01*
X-26295017Y-14205084D01*
X-26296577Y-14211776D01*
X-26298571Y-14218351D01*
X-26300992Y-14224782D01*
X-26303827Y-14231040D01*
X-26307066Y-14237100D01*
X-26310695Y-14242935D01*
X-26314697Y-14248520D01*
X-26319056Y-14253831D01*
X-26323753Y-14258846D01*
X-26328768Y-14263543D01*
X-26334079Y-14267902D01*
X-26339664Y-14271904D01*
X-26345499Y-14275533D01*
X-26351559Y-14278772D01*
X-26357817Y-14281607D01*
X-26364248Y-14284028D01*
X-26370823Y-14286022D01*
X-26377515Y-14287582D01*
X-26384294Y-14288702D01*
X-26391132Y-14289375D01*
X-26397999Y-14289600D01*
X-27587999Y-14289600D01*
X-27594866Y-14289375D01*
X-27601704Y-14288702D01*
X-27608484Y-14287582D01*
X-27615175Y-14286022D01*
X-27621750Y-14284028D01*
X-27628181Y-14281607D01*
X-27634439Y-14278772D01*
X-27640499Y-14275533D01*
X-27646334Y-14271904D01*
X-27651919Y-14267902D01*
X-27657230Y-14263543D01*
X-27662245Y-14258846D01*
X-27666942Y-14253831D01*
X-27671301Y-14248520D01*
X-27675303Y-14242935D01*
X-27678932Y-14237100D01*
X-27682171Y-14231040D01*
X-27685006Y-14224782D01*
X-27687427Y-14218351D01*
X-27689421Y-14211776D01*
X-27690982Y-14205084D01*
X-27692101Y-14198305D01*
X-27692774Y-14191467D01*
X-27692999Y-14184600D01*
X-27692999Y-13369600D01*
X-27692774Y-13362733D01*
X-27692101Y-13355895D01*
X-27690982Y-13349116D01*
X-27689421Y-13342424D01*
X-27687427Y-13335849D01*
X-27685006Y-13329418D01*
X-27682171Y-13323160D01*
X-27678932Y-13317100D01*
X-27675303Y-13311265D01*
X-27671301Y-13305680D01*
X-27666942Y-13300369D01*
X-27662245Y-13295354D01*
X-27657230Y-13290657D01*
X-27651919Y-13286298D01*
X-27646334Y-13282296D01*
X-27640499Y-13278667D01*
X-27634439Y-13275428D01*
X-27628181Y-13272593D01*
X-27621750Y-13270172D01*
X-27615175Y-13268178D01*
X-27608484Y-13266618D01*
X-27601704Y-13265498D01*
X-27594866Y-13264825D01*
X-27587999Y-13264600D01*
X-26397999Y-13264600D01*
X-26391132Y-13264825D01*
G37*
G36*
X-26391134Y-11439825D02*
G01*
X-26384296Y-11440498D01*
X-26377516Y-11441618D01*
X-26370825Y-11443178D01*
X-26364250Y-11445172D01*
X-26357819Y-11447593D01*
X-26351561Y-11450428D01*
X-26345501Y-11453667D01*
X-26339666Y-11457296D01*
X-26334081Y-11461298D01*
X-26328770Y-11465657D01*
X-26323755Y-11470354D01*
X-26319058Y-11475369D01*
X-26314699Y-11480680D01*
X-26310697Y-11486265D01*
X-26307068Y-11492100D01*
X-26303829Y-11498160D01*
X-26300994Y-11504418D01*
X-26298573Y-11510849D01*
X-26296579Y-11517424D01*
X-26295018Y-11524116D01*
X-26293899Y-11530895D01*
X-26293226Y-11537733D01*
X-26293001Y-11544600D01*
X-26293001Y-12359600D01*
X-26293226Y-12366467D01*
X-26293899Y-12373305D01*
X-26295018Y-12380084D01*
X-26296579Y-12386776D01*
X-26298573Y-12393351D01*
X-26300994Y-12399782D01*
X-26303829Y-12406040D01*
X-26307068Y-12412100D01*
X-26310697Y-12417935D01*
X-26314699Y-12423520D01*
X-26319058Y-12428831D01*
X-26323755Y-12433846D01*
X-26328770Y-12438543D01*
X-26334081Y-12442902D01*
X-26339666Y-12446904D01*
X-26345501Y-12450533D01*
X-26351561Y-12453772D01*
X-26357819Y-12456607D01*
X-26364250Y-12459028D01*
X-26370825Y-12461022D01*
X-26377516Y-12462582D01*
X-26384296Y-12463702D01*
X-26391134Y-12464375D01*
X-26398001Y-12464600D01*
X-27588001Y-12464600D01*
X-27594868Y-12464375D01*
X-27601706Y-12463702D01*
X-27608485Y-12462582D01*
X-27615177Y-12461022D01*
X-27621752Y-12459028D01*
X-27628183Y-12456607D01*
X-27634441Y-12453772D01*
X-27640501Y-12450533D01*
X-27646336Y-12446904D01*
X-27651921Y-12442902D01*
X-27657232Y-12438543D01*
X-27662247Y-12433846D01*
X-27666944Y-12428831D01*
X-27671303Y-12423520D01*
X-27675305Y-12417935D01*
X-27678934Y-12412100D01*
X-27682173Y-12406040D01*
X-27685008Y-12399782D01*
X-27687429Y-12393351D01*
X-27689423Y-12386776D01*
X-27690983Y-12380084D01*
X-27692103Y-12373305D01*
X-27692776Y-12366467D01*
X-27693001Y-12359600D01*
X-27693001Y-11544600D01*
X-27692776Y-11537733D01*
X-27692103Y-11530895D01*
X-27690983Y-11524116D01*
X-27689423Y-11517424D01*
X-27687429Y-11510849D01*
X-27685008Y-11504418D01*
X-27682173Y-11498160D01*
X-27678934Y-11492100D01*
X-27675305Y-11486265D01*
X-27671303Y-11480680D01*
X-27666944Y-11475369D01*
X-27662247Y-11470354D01*
X-27657232Y-11465657D01*
X-27651921Y-11461298D01*
X-27646336Y-11457296D01*
X-27640501Y-11453667D01*
X-27634441Y-11450428D01*
X-27628183Y-11447593D01*
X-27621752Y-11445172D01*
X-27615177Y-11443178D01*
X-27608485Y-11441618D01*
X-27601706Y-11440498D01*
X-27594868Y-11439825D01*
X-27588001Y-11439600D01*
X-26398001Y-11439600D01*
X-26391134Y-11439825D01*
G37*
G36*
X9424056Y11516148D02*
G01*
X9428693Y11515691D01*
X9433290Y11514932D01*
X9437827Y11513874D01*
X9442286Y11512521D01*
X9446646Y11510880D01*
X9450890Y11508957D01*
X9454999Y11506761D01*
X9458956Y11504301D01*
X9462743Y11501587D01*
X9466345Y11498631D01*
X9469745Y11495446D01*
X9472930Y11492045D01*
X9475886Y11488444D01*
X9478600Y11484657D01*
X9481060Y11480700D01*
X9483257Y11476591D01*
X9485179Y11472347D01*
X9486821Y11467986D01*
X9488173Y11463528D01*
X9489231Y11458990D01*
X9489990Y11454393D01*
X9490447Y11449757D01*
X9490599Y11445100D01*
X9490599Y10687500D01*
X9490447Y10682843D01*
X9489990Y10678207D01*
X9489231Y10673610D01*
X9488173Y10669072D01*
X9486821Y10664614D01*
X9485179Y10660253D01*
X9483257Y10656009D01*
X9481060Y10651900D01*
X9478600Y10647943D01*
X9475886Y10644156D01*
X9472930Y10640555D01*
X9469745Y10637154D01*
X9466345Y10633969D01*
X9462743Y10631013D01*
X9458956Y10628299D01*
X9454999Y10625839D01*
X9450890Y10623643D01*
X9446646Y10621720D01*
X9442286Y10620079D01*
X9437827Y10618726D01*
X9433290Y10617668D01*
X9428693Y10616909D01*
X9424056Y10616452D01*
X9419399Y10616300D01*
X8611799Y10616300D01*
X8607143Y10616452D01*
X8602506Y10616909D01*
X8597909Y10617668D01*
X8593371Y10618726D01*
X8588913Y10620079D01*
X8584552Y10621720D01*
X8580308Y10623643D01*
X8576199Y10625839D01*
X8572243Y10628299D01*
X8568455Y10631013D01*
X8564854Y10633969D01*
X8561453Y10637154D01*
X8558268Y10640555D01*
X8555312Y10644156D01*
X8552599Y10647943D01*
X8550138Y10651900D01*
X8547942Y10656009D01*
X8546019Y10660253D01*
X8544378Y10664614D01*
X8543025Y10669072D01*
X8541967Y10673610D01*
X8541208Y10678207D01*
X8540752Y10682843D01*
X8540599Y10687500D01*
X8540599Y11445100D01*
X8540752Y11449757D01*
X8541208Y11454393D01*
X8541967Y11458990D01*
X8543025Y11463528D01*
X8544378Y11467986D01*
X8546019Y11472347D01*
X8547942Y11476591D01*
X8550138Y11480700D01*
X8552599Y11484657D01*
X8555312Y11488444D01*
X8558268Y11492045D01*
X8561453Y11495446D01*
X8564854Y11498631D01*
X8568455Y11501587D01*
X8572243Y11504301D01*
X8576199Y11506761D01*
X8580308Y11508957D01*
X8584552Y11510880D01*
X8588913Y11512521D01*
X8593371Y11513874D01*
X8597909Y11514932D01*
X8602506Y11515691D01*
X8607143Y11516148D01*
X8611799Y11516300D01*
X9419399Y11516300D01*
X9424056Y11516148D01*
G37*
G36*
X9424057Y9966148D02*
G01*
X9428694Y9965691D01*
X9433291Y9964932D01*
X9437829Y9963874D01*
X9442287Y9962521D01*
X9446648Y9960880D01*
X9450892Y9958957D01*
X9455001Y9956761D01*
X9458957Y9954301D01*
X9462745Y9951587D01*
X9466346Y9948631D01*
X9469747Y9945446D01*
X9472932Y9942045D01*
X9475888Y9938444D01*
X9478601Y9934657D01*
X9481062Y9930700D01*
X9483258Y9926591D01*
X9485181Y9922347D01*
X9486822Y9917986D01*
X9488175Y9913528D01*
X9489233Y9908990D01*
X9489992Y9904393D01*
X9490448Y9899757D01*
X9490601Y9895100D01*
X9490601Y9137500D01*
X9490448Y9132843D01*
X9489992Y9128207D01*
X9489233Y9123610D01*
X9488175Y9119072D01*
X9486822Y9114614D01*
X9485181Y9110253D01*
X9483258Y9106009D01*
X9481062Y9101900D01*
X9478601Y9097943D01*
X9475888Y9094156D01*
X9472932Y9090555D01*
X9469747Y9087154D01*
X9466346Y9083969D01*
X9462745Y9081013D01*
X9458957Y9078299D01*
X9455001Y9075839D01*
X9450892Y9073643D01*
X9446648Y9071720D01*
X9442287Y9070079D01*
X9437829Y9068726D01*
X9433291Y9067668D01*
X9428694Y9066909D01*
X9424057Y9066452D01*
X9419401Y9066300D01*
X8611801Y9066300D01*
X8607144Y9066452D01*
X8602507Y9066909D01*
X8597910Y9067668D01*
X8593373Y9068726D01*
X8588914Y9070079D01*
X8584554Y9071720D01*
X8580310Y9073643D01*
X8576201Y9075839D01*
X8572244Y9078299D01*
X8568457Y9081013D01*
X8564855Y9083969D01*
X8561455Y9087154D01*
X8558270Y9090555D01*
X8555314Y9094156D01*
X8552600Y9097943D01*
X8550140Y9101900D01*
X8547943Y9106009D01*
X8546021Y9110253D01*
X8544379Y9114614D01*
X8543027Y9119072D01*
X8541969Y9123610D01*
X8541210Y9128207D01*
X8540753Y9132843D01*
X8540601Y9137500D01*
X8540601Y9895100D01*
X8540753Y9899757D01*
X8541210Y9904393D01*
X8541969Y9908990D01*
X8543027Y9913528D01*
X8544379Y9917986D01*
X8546021Y9922347D01*
X8547943Y9926591D01*
X8550140Y9930700D01*
X8552600Y9934657D01*
X8555314Y9938444D01*
X8558270Y9942045D01*
X8561455Y9945446D01*
X8564855Y9948631D01*
X8568457Y9951587D01*
X8572244Y9954301D01*
X8576201Y9956761D01*
X8580310Y9958957D01*
X8584554Y9960880D01*
X8588914Y9962521D01*
X8593373Y9963874D01*
X8597910Y9964932D01*
X8602507Y9965691D01*
X8607144Y9966148D01*
X8611801Y9966300D01*
X9419401Y9966300D01*
X9424057Y9966148D01*
G37*
G36*
X-12176689Y-11054539D02*
G01*
X-12132728Y-11058868D01*
X-12089032Y-11065350D01*
X-12045706Y-11073968D01*
X-12002856Y-11084702D01*
X-11960584Y-11097525D01*
X-11918992Y-11112406D01*
X-11878180Y-11129311D01*
X-11838247Y-11148198D01*
X-11799289Y-11169022D01*
X-11761400Y-11191732D01*
X-11724670Y-11216274D01*
X-11689189Y-11242588D01*
X-11655042Y-11270612D01*
X-11622311Y-11300278D01*
X-11591075Y-11331514D01*
X-11561409Y-11364244D01*
X-11533386Y-11398392D01*
X-11507071Y-11433873D01*
X-11482529Y-11470602D01*
X-11459819Y-11508492D01*
X-11438996Y-11547450D01*
X-11420109Y-11587383D01*
X-11403204Y-11628194D01*
X-11388322Y-11669786D01*
X-11375499Y-11712059D01*
X-11364765Y-11754909D01*
X-11356148Y-11798234D01*
X-11349666Y-11841930D01*
X-11345336Y-11885892D01*
X-11343168Y-11930013D01*
X-11343168Y-11974187D01*
X-11345336Y-12018308D01*
X-11349666Y-12062270D01*
X-11356148Y-12105966D01*
X-11364765Y-12149291D01*
X-11375499Y-12192141D01*
X-11388322Y-12234414D01*
X-11403204Y-12276006D01*
X-11420109Y-12316817D01*
X-11438996Y-12356750D01*
X-11459819Y-12395708D01*
X-11482529Y-12433598D01*
X-11507071Y-12470327D01*
X-11533386Y-12505808D01*
X-11561409Y-12539956D01*
X-11591075Y-12572686D01*
X-11622311Y-12603922D01*
X-11655042Y-12633588D01*
X-11689189Y-12661612D01*
X-11724670Y-12687926D01*
X-11761400Y-12712468D01*
X-11799289Y-12735178D01*
X-11838247Y-12756002D01*
X-11878180Y-12774889D01*
X-11918992Y-12791794D01*
X-11960584Y-12806675D01*
X-12002856Y-12819498D01*
X-12045706Y-12830232D01*
X-12089032Y-12838850D01*
X-12132728Y-12845332D01*
X-12176689Y-12849661D01*
X-12220810Y-12851829D01*
X-12264985Y-12851829D01*
X-12309106Y-12849661D01*
X-12353067Y-12845332D01*
X-12396763Y-12838850D01*
X-12440089Y-12830232D01*
X-12482939Y-12819498D01*
X-12525211Y-12806675D01*
X-12566803Y-12791794D01*
X-12607615Y-12774889D01*
X-12647548Y-12756002D01*
X-12686506Y-12735178D01*
X-12724395Y-12712468D01*
X-12761125Y-12687926D01*
X-12796606Y-12661612D01*
X-12830753Y-12633588D01*
X-12863484Y-12603922D01*
X-12894720Y-12572686D01*
X-12924385Y-12539956D01*
X-12952409Y-12505808D01*
X-12978724Y-12470327D01*
X-13003266Y-12433598D01*
X-13025976Y-12395708D01*
X-13046799Y-12356750D01*
X-13065686Y-12316817D01*
X-13082591Y-12276006D01*
X-13097473Y-12234414D01*
X-13110296Y-12192141D01*
X-13121029Y-12149291D01*
X-13129647Y-12105966D01*
X-13136129Y-12062270D01*
X-13140459Y-12018308D01*
X-13142626Y-11974187D01*
X-13142626Y-11963144D01*
X-12692762Y-11963144D01*
X-12691678Y-11985204D01*
X-12689513Y-12007185D01*
X-12686272Y-12029033D01*
X-12681963Y-12050696D01*
X-12676597Y-12072121D01*
X-12670185Y-12093257D01*
X-12662744Y-12114053D01*
X-12654292Y-12134459D01*
X-12644848Y-12154425D01*
X-12634437Y-12173904D01*
X-12623082Y-12192849D01*
X-12610811Y-12211214D01*
X-12597653Y-12228954D01*
X-12583641Y-12246028D01*
X-12568809Y-12262393D01*
X-12553191Y-12278011D01*
X-12536825Y-12292844D01*
X-12519752Y-12306856D01*
X-12502011Y-12320013D01*
X-12483646Y-12332284D01*
X-12464702Y-12343639D01*
X-12445223Y-12354051D01*
X-12425256Y-12363494D01*
X-12404850Y-12371947D01*
X-12384054Y-12379388D01*
X-12362918Y-12385799D01*
X-12341493Y-12391166D01*
X-12319830Y-12395475D01*
X-12297982Y-12398716D01*
X-12276001Y-12400881D01*
X-12253941Y-12401964D01*
X-12231854Y-12401964D01*
X-12209793Y-12400881D01*
X-12187813Y-12398716D01*
X-12165965Y-12395475D01*
X-12144302Y-12391166D01*
X-12122877Y-12385799D01*
X-12101741Y-12379388D01*
X-12080945Y-12371947D01*
X-12060539Y-12363494D01*
X-12040572Y-12354051D01*
X-12021093Y-12343639D01*
X-12002148Y-12332284D01*
X-11983784Y-12320013D01*
X-11966043Y-12306856D01*
X-11948970Y-12292844D01*
X-11932604Y-12278011D01*
X-11916986Y-12262393D01*
X-11902153Y-12246028D01*
X-11888142Y-12228954D01*
X-11874984Y-12211214D01*
X-11862713Y-12192849D01*
X-11851358Y-12173904D01*
X-11840946Y-12154425D01*
X-11831503Y-12134459D01*
X-11823051Y-12114053D01*
X-11815610Y-12093257D01*
X-11809198Y-12072121D01*
X-11803831Y-12050696D01*
X-11799522Y-12029033D01*
X-11796282Y-12007185D01*
X-11794117Y-11985204D01*
X-11793033Y-11963144D01*
X-11793033Y-11941056D01*
X-11794117Y-11918996D01*
X-11796282Y-11897015D01*
X-11799522Y-11875167D01*
X-11803831Y-11853504D01*
X-11809198Y-11832079D01*
X-11815610Y-11810943D01*
X-11823051Y-11790147D01*
X-11831503Y-11769741D01*
X-11840946Y-11749775D01*
X-11851358Y-11730296D01*
X-11862713Y-11711351D01*
X-11874984Y-11692986D01*
X-11888142Y-11675246D01*
X-11902153Y-11658172D01*
X-11916986Y-11641807D01*
X-11932604Y-11626189D01*
X-11948970Y-11611356D01*
X-11966043Y-11597344D01*
X-11983784Y-11584187D01*
X-12002148Y-11571916D01*
X-12021093Y-11560561D01*
X-12040572Y-11550149D01*
X-12060539Y-11540706D01*
X-12080945Y-11532253D01*
X-12101741Y-11524812D01*
X-12122877Y-11518401D01*
X-12144302Y-11513034D01*
X-12165965Y-11508725D01*
X-12187813Y-11505484D01*
X-12209793Y-11503319D01*
X-12231854Y-11502236D01*
X-12253941Y-11502236D01*
X-12276001Y-11503319D01*
X-12297982Y-11505484D01*
X-12319830Y-11508725D01*
X-12341493Y-11513034D01*
X-12362918Y-11518401D01*
X-12384054Y-11524812D01*
X-12404850Y-11532253D01*
X-12425256Y-11540706D01*
X-12445223Y-11550149D01*
X-12464702Y-11560561D01*
X-12483646Y-11571916D01*
X-12502011Y-11584187D01*
X-12519752Y-11597344D01*
X-12536825Y-11611356D01*
X-12553191Y-11626189D01*
X-12568809Y-11641807D01*
X-12583641Y-11658172D01*
X-12597653Y-11675246D01*
X-12610811Y-11692986D01*
X-12623082Y-11711351D01*
X-12634437Y-11730296D01*
X-12644848Y-11749775D01*
X-12654292Y-11769741D01*
X-12662744Y-11790147D01*
X-12670185Y-11810943D01*
X-12676597Y-11832079D01*
X-12681963Y-11853504D01*
X-12686272Y-11875167D01*
X-12689513Y-11897015D01*
X-12691678Y-11918996D01*
X-12692762Y-11941056D01*
X-12692762Y-11963144D01*
X-13142626Y-11963144D01*
X-13142626Y-11930013D01*
X-13140459Y-11885892D01*
X-13136129Y-11841930D01*
X-13129647Y-11798234D01*
X-13121029Y-11754909D01*
X-13110296Y-11712059D01*
X-13097473Y-11669786D01*
X-13082591Y-11628194D01*
X-13065686Y-11587383D01*
X-13046799Y-11547450D01*
X-13025976Y-11508492D01*
X-13003266Y-11470602D01*
X-12978724Y-11433873D01*
X-12952409Y-11398392D01*
X-12924385Y-11364244D01*
X-12894720Y-11331514D01*
X-12863484Y-11300278D01*
X-12830753Y-11270612D01*
X-12796606Y-11242588D01*
X-12761125Y-11216274D01*
X-12724395Y-11191732D01*
X-12686506Y-11169022D01*
X-12647548Y-11148198D01*
X-12607615Y-11129311D01*
X-12566803Y-11112406D01*
X-12525211Y-11097525D01*
X-12482939Y-11084702D01*
X-12440089Y-11073968D01*
X-12396763Y-11065350D01*
X-12353067Y-11058868D01*
X-12309106Y-11054539D01*
X-12264985Y-11052371D01*
X-12220810Y-11052371D01*
X-12176689Y-11054539D01*
G37*
G36*
X-11342900Y-8512100D02*
G01*
X-11342900Y-10312100D01*
X-13142900Y-10312100D01*
X-13142900Y-9423144D01*
X-12692764Y-9423144D01*
X-12691681Y-9445204D01*
X-12689516Y-9467185D01*
X-12686275Y-9489033D01*
X-12681966Y-9510696D01*
X-12676599Y-9532121D01*
X-12670188Y-9553257D01*
X-12662747Y-9574053D01*
X-12654294Y-9594459D01*
X-12644851Y-9614425D01*
X-12634439Y-9633904D01*
X-12623084Y-9652849D01*
X-12610813Y-9671214D01*
X-12597656Y-9688954D01*
X-12583644Y-9706028D01*
X-12568811Y-9722393D01*
X-12553193Y-9738011D01*
X-12536828Y-9752844D01*
X-12519754Y-9766856D01*
X-12502014Y-9780013D01*
X-12483649Y-9792284D01*
X-12464704Y-9803639D01*
X-12445225Y-9814051D01*
X-12425259Y-9823494D01*
X-12404853Y-9831947D01*
X-12384057Y-9839388D01*
X-12362921Y-9845799D01*
X-12341496Y-9851166D01*
X-12319833Y-9855475D01*
X-12297985Y-9858716D01*
X-12276004Y-9860881D01*
X-12253944Y-9861964D01*
X-12231856Y-9861964D01*
X-12209796Y-9860881D01*
X-12187815Y-9858716D01*
X-12165967Y-9855475D01*
X-12144304Y-9851166D01*
X-12122879Y-9845799D01*
X-12101743Y-9839388D01*
X-12080947Y-9831947D01*
X-12060541Y-9823494D01*
X-12040575Y-9814051D01*
X-12021096Y-9803639D01*
X-12002151Y-9792284D01*
X-11983786Y-9780013D01*
X-11966046Y-9766856D01*
X-11948972Y-9752844D01*
X-11932607Y-9738011D01*
X-11916989Y-9722393D01*
X-11902156Y-9706028D01*
X-11888144Y-9688954D01*
X-11874987Y-9671214D01*
X-11862716Y-9652849D01*
X-11851361Y-9633904D01*
X-11840949Y-9614425D01*
X-11831506Y-9594459D01*
X-11823053Y-9574053D01*
X-11815612Y-9553257D01*
X-11809201Y-9532121D01*
X-11803834Y-9510696D01*
X-11799525Y-9489033D01*
X-11796284Y-9467185D01*
X-11794119Y-9445204D01*
X-11793036Y-9423144D01*
X-11793036Y-9401056D01*
X-11794119Y-9378996D01*
X-11796284Y-9357015D01*
X-11799525Y-9335167D01*
X-11803834Y-9313504D01*
X-11809201Y-9292079D01*
X-11815612Y-9270943D01*
X-11823053Y-9250147D01*
X-11831506Y-9229741D01*
X-11840949Y-9209775D01*
X-11851361Y-9190296D01*
X-11862716Y-9171351D01*
X-11874987Y-9152986D01*
X-11888144Y-9135246D01*
X-11902156Y-9118172D01*
X-11916989Y-9101807D01*
X-11932607Y-9086189D01*
X-11948972Y-9071356D01*
X-11966046Y-9057344D01*
X-11983786Y-9044187D01*
X-12002151Y-9031916D01*
X-12021096Y-9020561D01*
X-12040575Y-9010149D01*
X-12060541Y-9000706D01*
X-12080947Y-8992253D01*
X-12101743Y-8984812D01*
X-12122879Y-8978401D01*
X-12144304Y-8973034D01*
X-12165967Y-8968725D01*
X-12187815Y-8965484D01*
X-12209796Y-8963319D01*
X-12231856Y-8962236D01*
X-12253944Y-8962236D01*
X-12276004Y-8963319D01*
X-12297985Y-8965484D01*
X-12319833Y-8968725D01*
X-12341496Y-8973034D01*
X-12362921Y-8978401D01*
X-12384057Y-8984812D01*
X-12404853Y-8992253D01*
X-12425259Y-9000706D01*
X-12445225Y-9010149D01*
X-12464704Y-9020561D01*
X-12483649Y-9031916D01*
X-12502014Y-9044187D01*
X-12519754Y-9057344D01*
X-12536828Y-9071356D01*
X-12553193Y-9086189D01*
X-12568811Y-9101807D01*
X-12583644Y-9118172D01*
X-12597656Y-9135246D01*
X-12610813Y-9152986D01*
X-12623084Y-9171351D01*
X-12634439Y-9190296D01*
X-12644851Y-9209775D01*
X-12654294Y-9229741D01*
X-12662747Y-9250147D01*
X-12670188Y-9270943D01*
X-12676599Y-9292079D01*
X-12681966Y-9313504D01*
X-12686275Y-9335167D01*
X-12689516Y-9357015D01*
X-12691681Y-9378996D01*
X-12692764Y-9401056D01*
X-12692764Y-9423144D01*
X-13142900Y-9423144D01*
X-13142900Y-8512100D01*
X-11342900Y-8512100D01*
G37*
G36*
X4486257Y15820448D02*
G01*
X4490893Y15819991D01*
X4495490Y15819232D01*
X4500028Y15818174D01*
X4504486Y15816821D01*
X4508847Y15815180D01*
X4513091Y15813257D01*
X4517200Y15811061D01*
X4521157Y15808601D01*
X4524944Y15805887D01*
X4528545Y15802931D01*
X4531946Y15799746D01*
X4535131Y15796345D01*
X4538087Y15792744D01*
X4540801Y15788957D01*
X4543261Y15785000D01*
X4545457Y15780891D01*
X4547380Y15776647D01*
X4549021Y15772286D01*
X4550374Y15767828D01*
X4551432Y15763290D01*
X4552191Y15758693D01*
X4552648Y15754057D01*
X4552800Y15749400D01*
X4552800Y14941800D01*
X4552648Y14937143D01*
X4552191Y14932507D01*
X4551432Y14927910D01*
X4550374Y14923372D01*
X4549021Y14918914D01*
X4547380Y14914553D01*
X4545457Y14910309D01*
X4543261Y14906200D01*
X4540801Y14902243D01*
X4538087Y14898456D01*
X4535131Y14894855D01*
X4531946Y14891454D01*
X4528545Y14888269D01*
X4524944Y14885313D01*
X4521157Y14882599D01*
X4517200Y14880139D01*
X4513091Y14877943D01*
X4508847Y14876020D01*
X4504486Y14874379D01*
X4500028Y14873026D01*
X4495490Y14871968D01*
X4490893Y14871209D01*
X4486257Y14870752D01*
X4481600Y14870600D01*
X3724000Y14870600D01*
X3719343Y14870752D01*
X3714707Y14871209D01*
X3710110Y14871968D01*
X3705572Y14873026D01*
X3701114Y14874379D01*
X3696753Y14876020D01*
X3692509Y14877943D01*
X3688400Y14880139D01*
X3684443Y14882599D01*
X3680656Y14885313D01*
X3677055Y14888269D01*
X3673654Y14891454D01*
X3670469Y14894855D01*
X3667513Y14898456D01*
X3664799Y14902243D01*
X3662339Y14906200D01*
X3660143Y14910309D01*
X3658220Y14914553D01*
X3656579Y14918914D01*
X3655226Y14923372D01*
X3654168Y14927910D01*
X3653409Y14932507D01*
X3652952Y14937143D01*
X3652800Y14941800D01*
X3652800Y15749400D01*
X3652952Y15754057D01*
X3653409Y15758693D01*
X3654168Y15763290D01*
X3655226Y15767828D01*
X3656579Y15772286D01*
X3658220Y15776647D01*
X3660143Y15780891D01*
X3662339Y15785000D01*
X3664799Y15788957D01*
X3667513Y15792744D01*
X3670469Y15796345D01*
X3673654Y15799746D01*
X3677055Y15802931D01*
X3680656Y15805887D01*
X3684443Y15808601D01*
X3688400Y15811061D01*
X3692509Y15813257D01*
X3696753Y15815180D01*
X3701114Y15816821D01*
X3705572Y15818174D01*
X3710110Y15819232D01*
X3714707Y15819991D01*
X3719343Y15820448D01*
X3724000Y15820600D01*
X4481600Y15820600D01*
X4486257Y15820448D01*
G37*
G36*
X6036257Y15820448D02*
G01*
X6040893Y15819991D01*
X6045490Y15819232D01*
X6050028Y15818174D01*
X6054486Y15816821D01*
X6058847Y15815180D01*
X6063091Y15813257D01*
X6067200Y15811061D01*
X6071157Y15808601D01*
X6074944Y15805887D01*
X6078545Y15802931D01*
X6081946Y15799746D01*
X6085131Y15796345D01*
X6088087Y15792744D01*
X6090801Y15788957D01*
X6093261Y15785000D01*
X6095457Y15780891D01*
X6097380Y15776647D01*
X6099021Y15772286D01*
X6100374Y15767828D01*
X6101432Y15763290D01*
X6102191Y15758693D01*
X6102648Y15754057D01*
X6102800Y15749400D01*
X6102800Y14941800D01*
X6102648Y14937143D01*
X6102191Y14932507D01*
X6101432Y14927910D01*
X6100374Y14923372D01*
X6099021Y14918914D01*
X6097380Y14914553D01*
X6095457Y14910309D01*
X6093261Y14906200D01*
X6090801Y14902243D01*
X6088087Y14898456D01*
X6085131Y14894855D01*
X6081946Y14891454D01*
X6078545Y14888269D01*
X6074944Y14885313D01*
X6071157Y14882599D01*
X6067200Y14880139D01*
X6063091Y14877943D01*
X6058847Y14876020D01*
X6054486Y14874379D01*
X6050028Y14873026D01*
X6045490Y14871968D01*
X6040893Y14871209D01*
X6036257Y14870752D01*
X6031600Y14870600D01*
X5274000Y14870600D01*
X5269343Y14870752D01*
X5264707Y14871209D01*
X5260110Y14871968D01*
X5255572Y14873026D01*
X5251114Y14874379D01*
X5246753Y14876020D01*
X5242509Y14877943D01*
X5238400Y14880139D01*
X5234443Y14882599D01*
X5230656Y14885313D01*
X5227055Y14888269D01*
X5223654Y14891454D01*
X5220469Y14894855D01*
X5217513Y14898456D01*
X5214799Y14902243D01*
X5212339Y14906200D01*
X5210143Y14910309D01*
X5208220Y14914553D01*
X5206579Y14918914D01*
X5205226Y14923372D01*
X5204168Y14927910D01*
X5203409Y14932507D01*
X5202952Y14937143D01*
X5202800Y14941800D01*
X5202800Y15749400D01*
X5202952Y15754057D01*
X5203409Y15758693D01*
X5204168Y15763290D01*
X5205226Y15767828D01*
X5206579Y15772286D01*
X5208220Y15776647D01*
X5210143Y15780891D01*
X5212339Y15785000D01*
X5214799Y15788957D01*
X5217513Y15792744D01*
X5220469Y15796345D01*
X5223654Y15799746D01*
X5227055Y15802931D01*
X5230656Y15805887D01*
X5234443Y15808601D01*
X5238400Y15811061D01*
X5242509Y15813257D01*
X5246753Y15815180D01*
X5251114Y15816821D01*
X5255572Y15818174D01*
X5260110Y15819232D01*
X5264707Y15819991D01*
X5269343Y15820448D01*
X5274000Y15820600D01*
X6031600Y15820600D01*
X6036257Y15820448D01*
G37*
G36*
X22638400Y10548100D02*
G01*
X20328400Y10548100D01*
X20328400Y13068100D01*
X22638400Y13068100D01*
X22638400Y10548100D01*
G37*
G36*
X28838400Y10548100D02*
G01*
X26528400Y10548100D01*
X26528400Y13068100D01*
X28838400Y13068100D01*
X28838400Y10548100D01*
G37*
G36*
X-23993000Y467100D02*
G01*
X-26193000Y467100D01*
X-26193000Y2567100D01*
X-23993000Y2567100D01*
X-23993000Y467100D01*
G37*
G36*
X-25893000Y-7632900D02*
G01*
X-28093000Y-7632900D01*
X-28093000Y-5532900D01*
X-25893000Y-5532900D01*
X-25893000Y-7632900D01*
G37*
G36*
X-26793000Y467100D02*
G01*
X-28793000Y467100D01*
X-28793000Y2567100D01*
X-26793000Y2567100D01*
X-26793000Y467100D01*
G37*
G36*
X-16343000Y-7632900D02*
G01*
X-19043000Y-7632900D01*
X-19043000Y-5532900D01*
X-16343000Y-5532900D01*
X-16343000Y-7632900D01*
G37*
G36*
X-12293000Y-3132900D02*
G01*
X-14893000Y-3132900D01*
X-14893000Y-432900D01*
X-12293000Y-432900D01*
X-12293000Y-3132900D01*
G37*
G36*
X-5242742Y-13005352D02*
G01*
X-5238106Y-13005809D01*
X-5233509Y-13006568D01*
X-5228971Y-13007626D01*
X-5224513Y-13008979D01*
X-5220152Y-13010620D01*
X-5215908Y-13012543D01*
X-5211799Y-13014739D01*
X-5207843Y-13017199D01*
X-5204055Y-13019913D01*
X-5200454Y-13022869D01*
X-5197053Y-13026054D01*
X-5193868Y-13029455D01*
X-5190912Y-13033056D01*
X-5188199Y-13036843D01*
X-5185738Y-13040800D01*
X-5183542Y-13044909D01*
X-5181619Y-13049153D01*
X-5179978Y-13053514D01*
X-5178625Y-13057972D01*
X-5177567Y-13062510D01*
X-5176808Y-13067107D01*
X-5176352Y-13071743D01*
X-5176199Y-13076400D01*
X-5176199Y-13734000D01*
X-5176352Y-13738657D01*
X-5176808Y-13743293D01*
X-5177567Y-13747890D01*
X-5178625Y-13752428D01*
X-5179978Y-13756886D01*
X-5181619Y-13761247D01*
X-5183542Y-13765491D01*
X-5185738Y-13769600D01*
X-5188199Y-13773557D01*
X-5190912Y-13777344D01*
X-5193868Y-13780945D01*
X-5197053Y-13784346D01*
X-5200454Y-13787531D01*
X-5204055Y-13790487D01*
X-5207843Y-13793201D01*
X-5211799Y-13795661D01*
X-5215908Y-13797857D01*
X-5220152Y-13799780D01*
X-5224513Y-13801421D01*
X-5228971Y-13802774D01*
X-5233509Y-13803832D01*
X-5238106Y-13804591D01*
X-5242742Y-13805048D01*
X-5247399Y-13805200D01*
X-6054999Y-13805200D01*
X-6059656Y-13805048D01*
X-6064293Y-13804591D01*
X-6068890Y-13803832D01*
X-6073427Y-13802774D01*
X-6077886Y-13801421D01*
X-6082246Y-13799780D01*
X-6086490Y-13797857D01*
X-6090599Y-13795661D01*
X-6094556Y-13793201D01*
X-6098343Y-13790487D01*
X-6101945Y-13787531D01*
X-6105345Y-13784346D01*
X-6108530Y-13780945D01*
X-6111486Y-13777344D01*
X-6114200Y-13773557D01*
X-6116660Y-13769600D01*
X-6118856Y-13765491D01*
X-6120779Y-13761247D01*
X-6122421Y-13756886D01*
X-6123773Y-13752428D01*
X-6124831Y-13747890D01*
X-6125590Y-13743293D01*
X-6126047Y-13738657D01*
X-6126199Y-13734000D01*
X-6126199Y-13076400D01*
X-6126047Y-13071743D01*
X-6125590Y-13067107D01*
X-6124831Y-13062510D01*
X-6123773Y-13057972D01*
X-6122421Y-13053514D01*
X-6120779Y-13049153D01*
X-6118856Y-13044909D01*
X-6116660Y-13040800D01*
X-6114200Y-13036843D01*
X-6111486Y-13033056D01*
X-6108530Y-13029455D01*
X-6105345Y-13026054D01*
X-6101945Y-13022869D01*
X-6098343Y-13019913D01*
X-6094556Y-13017199D01*
X-6090599Y-13014739D01*
X-6086490Y-13012543D01*
X-6082246Y-13010620D01*
X-6077886Y-13008979D01*
X-6073427Y-13007626D01*
X-6068890Y-13006568D01*
X-6064293Y-13005809D01*
X-6059656Y-13005352D01*
X-6054999Y-13005200D01*
X-5247399Y-13005200D01*
X-5242742Y-13005352D01*
G37*
G36*
X-5242744Y-11355352D02*
G01*
X-5238107Y-11355809D01*
X-5233510Y-11356568D01*
X-5228973Y-11357626D01*
X-5224514Y-11358979D01*
X-5220154Y-11360620D01*
X-5215910Y-11362543D01*
X-5211801Y-11364739D01*
X-5207844Y-11367199D01*
X-5204057Y-11369913D01*
X-5200455Y-11372869D01*
X-5197055Y-11376054D01*
X-5193870Y-11379455D01*
X-5190914Y-11383056D01*
X-5188200Y-11386843D01*
X-5185740Y-11390800D01*
X-5183544Y-11394909D01*
X-5181621Y-11399153D01*
X-5179979Y-11403514D01*
X-5178627Y-11407972D01*
X-5177569Y-11412510D01*
X-5176810Y-11417107D01*
X-5176353Y-11421743D01*
X-5176201Y-11426400D01*
X-5176201Y-12084000D01*
X-5176353Y-12088657D01*
X-5176810Y-12093293D01*
X-5177569Y-12097890D01*
X-5178627Y-12102428D01*
X-5179979Y-12106886D01*
X-5181621Y-12111247D01*
X-5183544Y-12115491D01*
X-5185740Y-12119600D01*
X-5188200Y-12123557D01*
X-5190914Y-12127344D01*
X-5193870Y-12130945D01*
X-5197055Y-12134346D01*
X-5200455Y-12137531D01*
X-5204057Y-12140487D01*
X-5207844Y-12143201D01*
X-5211801Y-12145661D01*
X-5215910Y-12147857D01*
X-5220154Y-12149780D01*
X-5224514Y-12151421D01*
X-5228973Y-12152774D01*
X-5233510Y-12153832D01*
X-5238107Y-12154591D01*
X-5242744Y-12155048D01*
X-5247401Y-12155200D01*
X-6055001Y-12155200D01*
X-6059658Y-12155048D01*
X-6064294Y-12154591D01*
X-6068891Y-12153832D01*
X-6073429Y-12152774D01*
X-6077887Y-12151421D01*
X-6082248Y-12149780D01*
X-6086492Y-12147857D01*
X-6090601Y-12145661D01*
X-6094557Y-12143201D01*
X-6098345Y-12140487D01*
X-6101946Y-12137531D01*
X-6105347Y-12134346D01*
X-6108532Y-12130945D01*
X-6111488Y-12127344D01*
X-6114201Y-12123557D01*
X-6116662Y-12119600D01*
X-6118858Y-12115491D01*
X-6120781Y-12111247D01*
X-6122422Y-12106886D01*
X-6123775Y-12102428D01*
X-6124833Y-12097890D01*
X-6125592Y-12093293D01*
X-6126048Y-12088657D01*
X-6126201Y-12084000D01*
X-6126201Y-11426400D01*
X-6126048Y-11421743D01*
X-6125592Y-11417107D01*
X-6124833Y-11412510D01*
X-6123775Y-11407972D01*
X-6122422Y-11403514D01*
X-6120781Y-11399153D01*
X-6118858Y-11394909D01*
X-6116662Y-11390800D01*
X-6114201Y-11386843D01*
X-6111488Y-11383056D01*
X-6108532Y-11379455D01*
X-6105347Y-11376054D01*
X-6101946Y-11372869D01*
X-6098345Y-11369913D01*
X-6094557Y-11367199D01*
X-6090601Y-11364739D01*
X-6086492Y-11362543D01*
X-6082248Y-11360620D01*
X-6077887Y-11358979D01*
X-6073429Y-11357626D01*
X-6068891Y-11356568D01*
X-6064294Y-11355809D01*
X-6059658Y-11355352D01*
X-6055001Y-11355200D01*
X-5247401Y-11355200D01*
X-5242744Y-11355352D01*
G37*
G36*
X8283747Y1399236D02*
G01*
X8357016Y1392019D01*
X8429843Y1381216D01*
X8502052Y1366853D01*
X8573469Y1348964D01*
X8643923Y1327592D01*
X8713243Y1302789D01*
X8781262Y1274615D01*
X8847817Y1243136D01*
X8912747Y1208430D01*
X8975896Y1170580D01*
X9037112Y1129677D01*
X9096247Y1085820D01*
X9153159Y1039113D01*
X9207711Y989671D01*
X9259771Y937611D01*
X9309213Y883059D01*
X9355920Y826147D01*
X9399777Y767012D01*
X9440680Y705796D01*
X9478530Y642647D01*
X9513236Y577717D01*
X9544715Y511162D01*
X9572889Y443143D01*
X9597692Y373823D01*
X9619064Y303369D01*
X9636953Y231952D01*
X9651316Y159743D01*
X9662119Y86916D01*
X9669336Y13647D01*
X9672948Y-59888D01*
X9672948Y-133512D01*
X9669336Y-207047D01*
X9662119Y-280316D01*
X9651316Y-353143D01*
X9636953Y-425352D01*
X9619064Y-496769D01*
X9597692Y-567223D01*
X9572889Y-636543D01*
X9544715Y-704562D01*
X9513236Y-771117D01*
X9478530Y-836047D01*
X9440680Y-899196D01*
X9399777Y-960412D01*
X9355920Y-1019547D01*
X9309213Y-1076459D01*
X9259771Y-1131011D01*
X9207711Y-1183071D01*
X9153159Y-1232513D01*
X9096247Y-1279220D01*
X9037112Y-1323077D01*
X8975896Y-1363980D01*
X8912747Y-1401830D01*
X8847817Y-1436536D01*
X8781262Y-1468015D01*
X8713243Y-1496189D01*
X8643923Y-1520992D01*
X8573469Y-1542364D01*
X8502052Y-1560253D01*
X8429843Y-1574616D01*
X8357016Y-1585419D01*
X8283747Y-1592636D01*
X8210212Y-1596248D01*
X8136588Y-1596248D01*
X8063053Y-1592636D01*
X7989784Y-1585419D01*
X7916957Y-1574616D01*
X7844748Y-1560253D01*
X7773331Y-1542364D01*
X7702877Y-1520992D01*
X7633557Y-1496189D01*
X7565538Y-1468015D01*
X7498983Y-1436536D01*
X7434053Y-1401830D01*
X7370904Y-1363980D01*
X7309688Y-1323077D01*
X7250553Y-1279220D01*
X7193641Y-1232513D01*
X7139089Y-1183071D01*
X7087029Y-1131011D01*
X7037587Y-1076459D01*
X6990880Y-1019547D01*
X6947023Y-960412D01*
X6906120Y-899196D01*
X6868270Y-836047D01*
X6833564Y-771117D01*
X6802085Y-704562D01*
X6773911Y-636543D01*
X6749108Y-567223D01*
X6727736Y-496769D01*
X6709847Y-425352D01*
X6695484Y-353143D01*
X6684681Y-280316D01*
X6677464Y-207047D01*
X6673852Y-133512D01*
X6673852Y-115106D01*
X7423626Y-115106D01*
X7425432Y-151873D01*
X7429040Y-188508D01*
X7434442Y-224921D01*
X7441623Y-261026D01*
X7450568Y-296735D01*
X7461254Y-331961D01*
X7473655Y-366621D01*
X7487743Y-400631D01*
X7503482Y-433908D01*
X7520835Y-466374D01*
X7539760Y-497948D01*
X7560211Y-528556D01*
X7582140Y-558124D01*
X7605493Y-586580D01*
X7630215Y-613855D01*
X7656245Y-639885D01*
X7683520Y-664607D01*
X7711976Y-687960D01*
X7741544Y-709889D01*
X7772152Y-730340D01*
X7803726Y-749265D01*
X7836192Y-766618D01*
X7869469Y-782357D01*
X7903479Y-796445D01*
X7938139Y-808846D01*
X7973365Y-819532D01*
X8009074Y-828477D01*
X8045179Y-835658D01*
X8081592Y-841060D01*
X8118227Y-844668D01*
X8154994Y-846474D01*
X8191806Y-846474D01*
X8228573Y-844668D01*
X8265208Y-841060D01*
X8301621Y-835658D01*
X8337726Y-828477D01*
X8373435Y-819532D01*
X8408661Y-808846D01*
X8443321Y-796445D01*
X8477331Y-782357D01*
X8510608Y-766618D01*
X8543074Y-749265D01*
X8574648Y-730340D01*
X8605256Y-709889D01*
X8634824Y-687960D01*
X8663280Y-664607D01*
X8690555Y-639885D01*
X8716585Y-613855D01*
X8741307Y-586580D01*
X8764660Y-558124D01*
X8786589Y-528556D01*
X8807040Y-497948D01*
X8825965Y-466374D01*
X8843318Y-433908D01*
X8859057Y-400631D01*
X8873145Y-366621D01*
X8885546Y-331961D01*
X8896232Y-296735D01*
X8905177Y-261026D01*
X8912358Y-224921D01*
X8917760Y-188508D01*
X8921368Y-151873D01*
X8923174Y-115106D01*
X8923174Y-78294D01*
X8921368Y-41527D01*
X8917760Y-4892D01*
X8912358Y31521D01*
X8905177Y67626D01*
X8896232Y103335D01*
X8885546Y138561D01*
X8873145Y173221D01*
X8859057Y207231D01*
X8843318Y240508D01*
X8825965Y272974D01*
X8807040Y304548D01*
X8786589Y335156D01*
X8764660Y364724D01*
X8741307Y393180D01*
X8716585Y420455D01*
X8690555Y446485D01*
X8663280Y471207D01*
X8634824Y494560D01*
X8605256Y516489D01*
X8574648Y536940D01*
X8543074Y555865D01*
X8510608Y573218D01*
X8477331Y588957D01*
X8443321Y603045D01*
X8408661Y615446D01*
X8373435Y626132D01*
X8337726Y635077D01*
X8301621Y642258D01*
X8265208Y647660D01*
X8228573Y651268D01*
X8191806Y653074D01*
X8154994Y653074D01*
X8118227Y651268D01*
X8081592Y647660D01*
X8045179Y642258D01*
X8009074Y635077D01*
X7973365Y626132D01*
X7938139Y615446D01*
X7903479Y603045D01*
X7869469Y588957D01*
X7836192Y573218D01*
X7803726Y555865D01*
X7772152Y536940D01*
X7741544Y516489D01*
X7711976Y494560D01*
X7683520Y471207D01*
X7656245Y446485D01*
X7630215Y420455D01*
X7605493Y393180D01*
X7582140Y364724D01*
X7560211Y335156D01*
X7539760Y304548D01*
X7520835Y272974D01*
X7503482Y240508D01*
X7487743Y207231D01*
X7473655Y173221D01*
X7461254Y138561D01*
X7450568Y103335D01*
X7441623Y67626D01*
X7434442Y31521D01*
X7429040Y-4892D01*
X7425432Y-41527D01*
X7423626Y-78294D01*
X7423626Y-115106D01*
X6673852Y-115106D01*
X6673852Y-59888D01*
X6677464Y13647D01*
X6684681Y86916D01*
X6695484Y159743D01*
X6709847Y231952D01*
X6727736Y303369D01*
X6749108Y373823D01*
X6773911Y443143D01*
X6802085Y511162D01*
X6833564Y577717D01*
X6868270Y642647D01*
X6906120Y705796D01*
X6947023Y767012D01*
X6990880Y826147D01*
X7037587Y883059D01*
X7087029Y937611D01*
X7139089Y989671D01*
X7193641Y1039113D01*
X7250553Y1085820D01*
X7309688Y1129677D01*
X7370904Y1170580D01*
X7434053Y1208430D01*
X7498983Y1243136D01*
X7565538Y1274615D01*
X7633557Y1302789D01*
X7702877Y1327592D01*
X7773331Y1348964D01*
X7844748Y1366853D01*
X7916957Y1381216D01*
X7989784Y1392019D01*
X8063053Y1399236D01*
X8136588Y1402848D01*
X8210212Y1402848D01*
X8283747Y1399236D01*
G37*
G36*
X27693747Y1399236D02*
G01*
X27767016Y1392019D01*
X27839843Y1381216D01*
X27912052Y1366853D01*
X27983469Y1348964D01*
X28053923Y1327592D01*
X28123243Y1302789D01*
X28191262Y1274615D01*
X28257817Y1243136D01*
X28322747Y1208430D01*
X28385896Y1170580D01*
X28447112Y1129677D01*
X28506247Y1085820D01*
X28563159Y1039113D01*
X28617711Y989671D01*
X28669771Y937611D01*
X28719213Y883059D01*
X28765920Y826147D01*
X28809777Y767012D01*
X28850680Y705796D01*
X28888530Y642647D01*
X28923236Y577717D01*
X28954715Y511162D01*
X28982889Y443143D01*
X29007692Y373823D01*
X29029064Y303369D01*
X29046953Y231952D01*
X29061316Y159743D01*
X29072119Y86916D01*
X29079336Y13647D01*
X29082948Y-59888D01*
X29082948Y-133512D01*
X29079336Y-207047D01*
X29072119Y-280316D01*
X29061316Y-353143D01*
X29046953Y-425352D01*
X29029064Y-496769D01*
X29007692Y-567223D01*
X28982889Y-636543D01*
X28954715Y-704562D01*
X28923236Y-771117D01*
X28888530Y-836047D01*
X28850680Y-899196D01*
X28809777Y-960412D01*
X28765920Y-1019547D01*
X28719213Y-1076459D01*
X28669771Y-1131011D01*
X28617711Y-1183071D01*
X28563159Y-1232513D01*
X28506247Y-1279220D01*
X28447112Y-1323077D01*
X28385896Y-1363980D01*
X28322747Y-1401830D01*
X28257817Y-1436536D01*
X28191262Y-1468015D01*
X28123243Y-1496189D01*
X28053923Y-1520992D01*
X27983469Y-1542364D01*
X27912052Y-1560253D01*
X27839843Y-1574616D01*
X27767016Y-1585419D01*
X27693747Y-1592636D01*
X27620212Y-1596248D01*
X27546588Y-1596248D01*
X27473053Y-1592636D01*
X27399784Y-1585419D01*
X27326957Y-1574616D01*
X27254748Y-1560253D01*
X27183331Y-1542364D01*
X27112877Y-1520992D01*
X27043557Y-1496189D01*
X26975538Y-1468015D01*
X26908983Y-1436536D01*
X26844053Y-1401830D01*
X26780904Y-1363980D01*
X26719688Y-1323077D01*
X26660553Y-1279220D01*
X26603641Y-1232513D01*
X26549089Y-1183071D01*
X26497029Y-1131011D01*
X26447587Y-1076459D01*
X26400880Y-1019547D01*
X26357023Y-960412D01*
X26316120Y-899196D01*
X26278270Y-836047D01*
X26243564Y-771117D01*
X26212085Y-704562D01*
X26183911Y-636543D01*
X26159108Y-567223D01*
X26137736Y-496769D01*
X26119847Y-425352D01*
X26105484Y-353143D01*
X26094681Y-280316D01*
X26087464Y-207047D01*
X26083852Y-133512D01*
X26083852Y-115106D01*
X26833626Y-115106D01*
X26835432Y-151873D01*
X26839040Y-188508D01*
X26844442Y-224921D01*
X26851623Y-261026D01*
X26860568Y-296735D01*
X26871254Y-331961D01*
X26883655Y-366621D01*
X26897743Y-400631D01*
X26913482Y-433908D01*
X26930835Y-466374D01*
X26949760Y-497948D01*
X26970211Y-528556D01*
X26992140Y-558124D01*
X27015493Y-586580D01*
X27040215Y-613855D01*
X27066245Y-639885D01*
X27093520Y-664607D01*
X27121976Y-687960D01*
X27151544Y-709889D01*
X27182152Y-730340D01*
X27213726Y-749265D01*
X27246192Y-766618D01*
X27279469Y-782357D01*
X27313479Y-796445D01*
X27348139Y-808846D01*
X27383365Y-819532D01*
X27419074Y-828477D01*
X27455179Y-835658D01*
X27491592Y-841060D01*
X27528227Y-844668D01*
X27564994Y-846474D01*
X27601806Y-846474D01*
X27638573Y-844668D01*
X27675208Y-841060D01*
X27711621Y-835658D01*
X27747726Y-828477D01*
X27783435Y-819532D01*
X27818661Y-808846D01*
X27853321Y-796445D01*
X27887331Y-782357D01*
X27920608Y-766618D01*
X27953074Y-749265D01*
X27984648Y-730340D01*
X28015256Y-709889D01*
X28044824Y-687960D01*
X28073280Y-664607D01*
X28100555Y-639885D01*
X28126585Y-613855D01*
X28151307Y-586580D01*
X28174660Y-558124D01*
X28196589Y-528556D01*
X28217040Y-497948D01*
X28235965Y-466374D01*
X28253318Y-433908D01*
X28269057Y-400631D01*
X28283145Y-366621D01*
X28295546Y-331961D01*
X28306232Y-296735D01*
X28315177Y-261026D01*
X28322358Y-224921D01*
X28327760Y-188508D01*
X28331368Y-151873D01*
X28333174Y-115106D01*
X28333174Y-78294D01*
X28331368Y-41527D01*
X28327760Y-4892D01*
X28322358Y31521D01*
X28315177Y67626D01*
X28306232Y103335D01*
X28295546Y138561D01*
X28283145Y173221D01*
X28269057Y207231D01*
X28253318Y240508D01*
X28235965Y272974D01*
X28217040Y304548D01*
X28196589Y335156D01*
X28174660Y364724D01*
X28151307Y393180D01*
X28126585Y420455D01*
X28100555Y446485D01*
X28073280Y471207D01*
X28044824Y494560D01*
X28015256Y516489D01*
X27984648Y536940D01*
X27953074Y555865D01*
X27920608Y573218D01*
X27887331Y588957D01*
X27853321Y603045D01*
X27818661Y615446D01*
X27783435Y626132D01*
X27747726Y635077D01*
X27711621Y642258D01*
X27675208Y647660D01*
X27638573Y651268D01*
X27601806Y653074D01*
X27564994Y653074D01*
X27528227Y651268D01*
X27491592Y647660D01*
X27455179Y642258D01*
X27419074Y635077D01*
X27383365Y626132D01*
X27348139Y615446D01*
X27313479Y603045D01*
X27279469Y588957D01*
X27246192Y573218D01*
X27213726Y555865D01*
X27182152Y536940D01*
X27151544Y516489D01*
X27121976Y494560D01*
X27093520Y471207D01*
X27066245Y446485D01*
X27040215Y420455D01*
X27015493Y393180D01*
X26992140Y364724D01*
X26970211Y335156D01*
X26949760Y304548D01*
X26930835Y272974D01*
X26913482Y240508D01*
X26897743Y207231D01*
X26883655Y173221D01*
X26871254Y138561D01*
X26860568Y103335D01*
X26851623Y67626D01*
X26844442Y31521D01*
X26839040Y-4892D01*
X26835432Y-41527D01*
X26833626Y-78294D01*
X26833626Y-115106D01*
X26083852Y-115106D01*
X26083852Y-59888D01*
X26087464Y13647D01*
X26094681Y86916D01*
X26105484Y159743D01*
X26119847Y231952D01*
X26137736Y303369D01*
X26159108Y373823D01*
X26183911Y443143D01*
X26212085Y511162D01*
X26243564Y577717D01*
X26278270Y642647D01*
X26316120Y705796D01*
X26357023Y767012D01*
X26400880Y826147D01*
X26447587Y883059D01*
X26497029Y937611D01*
X26549089Y989671D01*
X26603641Y1039113D01*
X26660553Y1085820D01*
X26719688Y1129677D01*
X26780904Y1170580D01*
X26844053Y1208430D01*
X26908983Y1243136D01*
X26975538Y1274615D01*
X27043557Y1302789D01*
X27112877Y1327592D01*
X27183331Y1348964D01*
X27254748Y1366853D01*
X27326957Y1381216D01*
X27399784Y1392019D01*
X27473053Y1399236D01*
X27546588Y1402848D01*
X27620212Y1402848D01*
X27693747Y1399236D01*
G37*
G36*
X-17284542Y-13546852D02*
G01*
X-17279906Y-13547309D01*
X-17275309Y-13548068D01*
X-17270771Y-13549126D01*
X-17266313Y-13550479D01*
X-17261952Y-13552120D01*
X-17257708Y-13554043D01*
X-17253599Y-13556239D01*
X-17249643Y-13558699D01*
X-17245855Y-13561413D01*
X-17242254Y-13564369D01*
X-17238853Y-13567554D01*
X-17235668Y-13570955D01*
X-17232712Y-13574556D01*
X-17229999Y-13578343D01*
X-17227538Y-13582300D01*
X-17225342Y-13586409D01*
X-17223419Y-13590653D01*
X-17221778Y-13595014D01*
X-17220425Y-13599472D01*
X-17219367Y-13604010D01*
X-17218608Y-13608607D01*
X-17218152Y-13613243D01*
X-17217999Y-13617900D01*
X-17217999Y-14275500D01*
X-17218152Y-14280157D01*
X-17218608Y-14284793D01*
X-17219367Y-14289390D01*
X-17220425Y-14293928D01*
X-17221778Y-14298386D01*
X-17223419Y-14302747D01*
X-17225342Y-14306991D01*
X-17227538Y-14311100D01*
X-17229999Y-14315057D01*
X-17232712Y-14318844D01*
X-17235668Y-14322445D01*
X-17238853Y-14325846D01*
X-17242254Y-14329031D01*
X-17245855Y-14331987D01*
X-17249643Y-14334701D01*
X-17253599Y-14337161D01*
X-17257708Y-14339357D01*
X-17261952Y-14341280D01*
X-17266313Y-14342921D01*
X-17270771Y-14344274D01*
X-17275309Y-14345332D01*
X-17279906Y-14346091D01*
X-17284542Y-14346548D01*
X-17289199Y-14346700D01*
X-18096799Y-14346700D01*
X-18101456Y-14346548D01*
X-18106093Y-14346091D01*
X-18110690Y-14345332D01*
X-18115227Y-14344274D01*
X-18119686Y-14342921D01*
X-18124046Y-14341280D01*
X-18128290Y-14339357D01*
X-18132399Y-14337161D01*
X-18136356Y-14334701D01*
X-18140143Y-14331987D01*
X-18143745Y-14329031D01*
X-18147145Y-14325846D01*
X-18150330Y-14322445D01*
X-18153286Y-14318844D01*
X-18156000Y-14315057D01*
X-18158460Y-14311100D01*
X-18160656Y-14306991D01*
X-18162579Y-14302747D01*
X-18164221Y-14298386D01*
X-18165573Y-14293928D01*
X-18166631Y-14289390D01*
X-18167390Y-14284793D01*
X-18167847Y-14280157D01*
X-18167999Y-14275500D01*
X-18167999Y-13617900D01*
X-18167847Y-13613243D01*
X-18167390Y-13608607D01*
X-18166631Y-13604010D01*
X-18165573Y-13599472D01*
X-18164221Y-13595014D01*
X-18162579Y-13590653D01*
X-18160656Y-13586409D01*
X-18158460Y-13582300D01*
X-18156000Y-13578343D01*
X-18153286Y-13574556D01*
X-18150330Y-13570955D01*
X-18147145Y-13567554D01*
X-18143745Y-13564369D01*
X-18140143Y-13561413D01*
X-18136356Y-13558699D01*
X-18132399Y-13556239D01*
X-18128290Y-13554043D01*
X-18124046Y-13552120D01*
X-18119686Y-13550479D01*
X-18115227Y-13549126D01*
X-18110690Y-13548068D01*
X-18106093Y-13547309D01*
X-18101456Y-13546852D01*
X-18096799Y-13546700D01*
X-17289199Y-13546700D01*
X-17284542Y-13546852D01*
G37*
G36*
X-17284544Y-11896852D02*
G01*
X-17279907Y-11897309D01*
X-17275310Y-11898068D01*
X-17270773Y-11899126D01*
X-17266314Y-11900479D01*
X-17261954Y-11902120D01*
X-17257710Y-11904043D01*
X-17253601Y-11906239D01*
X-17249644Y-11908699D01*
X-17245857Y-11911413D01*
X-17242255Y-11914369D01*
X-17238855Y-11917554D01*
X-17235670Y-11920955D01*
X-17232714Y-11924556D01*
X-17230000Y-11928343D01*
X-17227540Y-11932300D01*
X-17225344Y-11936409D01*
X-17223421Y-11940653D01*
X-17221779Y-11945014D01*
X-17220427Y-11949472D01*
X-17219369Y-11954010D01*
X-17218610Y-11958607D01*
X-17218153Y-11963243D01*
X-17218001Y-11967900D01*
X-17218001Y-12625500D01*
X-17218153Y-12630157D01*
X-17218610Y-12634793D01*
X-17219369Y-12639390D01*
X-17220427Y-12643928D01*
X-17221779Y-12648386D01*
X-17223421Y-12652747D01*
X-17225344Y-12656991D01*
X-17227540Y-12661100D01*
X-17230000Y-12665057D01*
X-17232714Y-12668844D01*
X-17235670Y-12672445D01*
X-17238855Y-12675846D01*
X-17242255Y-12679031D01*
X-17245857Y-12681987D01*
X-17249644Y-12684701D01*
X-17253601Y-12687161D01*
X-17257710Y-12689357D01*
X-17261954Y-12691280D01*
X-17266314Y-12692921D01*
X-17270773Y-12694274D01*
X-17275310Y-12695332D01*
X-17279907Y-12696091D01*
X-17284544Y-12696548D01*
X-17289201Y-12696700D01*
X-18096801Y-12696700D01*
X-18101458Y-12696548D01*
X-18106094Y-12696091D01*
X-18110691Y-12695332D01*
X-18115229Y-12694274D01*
X-18119687Y-12692921D01*
X-18124048Y-12691280D01*
X-18128292Y-12689357D01*
X-18132401Y-12687161D01*
X-18136357Y-12684701D01*
X-18140145Y-12681987D01*
X-18143746Y-12679031D01*
X-18147147Y-12675846D01*
X-18150332Y-12672445D01*
X-18153288Y-12668844D01*
X-18156001Y-12665057D01*
X-18158462Y-12661100D01*
X-18160658Y-12656991D01*
X-18162581Y-12652747D01*
X-18164222Y-12648386D01*
X-18165575Y-12643928D01*
X-18166633Y-12639390D01*
X-18167392Y-12634793D01*
X-18167848Y-12630157D01*
X-18168001Y-12625500D01*
X-18168001Y-11967900D01*
X-18167848Y-11963243D01*
X-18167392Y-11958607D01*
X-18166633Y-11954010D01*
X-18165575Y-11949472D01*
X-18164222Y-11945014D01*
X-18162581Y-11940653D01*
X-18160658Y-11936409D01*
X-18158462Y-11932300D01*
X-18156001Y-11928343D01*
X-18153288Y-11924556D01*
X-18150332Y-11920955D01*
X-18147147Y-11917554D01*
X-18143746Y-11914369D01*
X-18140145Y-11911413D01*
X-18136357Y-11908699D01*
X-18132401Y-11906239D01*
X-18128292Y-11904043D01*
X-18124048Y-11902120D01*
X-18119687Y-11900479D01*
X-18115229Y-11899126D01*
X-18110691Y-11898068D01*
X-18106094Y-11897309D01*
X-18101458Y-11896852D01*
X-18096801Y-11896700D01*
X-17289201Y-11896700D01*
X-17284544Y-11896852D01*
G37*
G36*
X-10259443Y-5317952D02*
G01*
X-10254807Y-5318409D01*
X-10250210Y-5319168D01*
X-10245672Y-5320226D01*
X-10241214Y-5321579D01*
X-10236853Y-5323220D01*
X-10232609Y-5325143D01*
X-10228500Y-5327339D01*
X-10224543Y-5329799D01*
X-10220756Y-5332513D01*
X-10217155Y-5335469D01*
X-10213754Y-5338654D01*
X-10210569Y-5342055D01*
X-10207613Y-5345656D01*
X-10204899Y-5349443D01*
X-10202439Y-5353400D01*
X-10200243Y-5357509D01*
X-10198320Y-5361753D01*
X-10196679Y-5366114D01*
X-10195326Y-5370572D01*
X-10194268Y-5375110D01*
X-10193509Y-5379707D01*
X-10193052Y-5384343D01*
X-10192900Y-5389000D01*
X-10192900Y-6196600D01*
X-10193052Y-6201257D01*
X-10193509Y-6205893D01*
X-10194268Y-6210490D01*
X-10195326Y-6215028D01*
X-10196679Y-6219486D01*
X-10198320Y-6223847D01*
X-10200243Y-6228091D01*
X-10202439Y-6232200D01*
X-10204899Y-6236157D01*
X-10207613Y-6239944D01*
X-10210569Y-6243545D01*
X-10213754Y-6246946D01*
X-10217155Y-6250131D01*
X-10220756Y-6253087D01*
X-10224543Y-6255801D01*
X-10228500Y-6258261D01*
X-10232609Y-6260457D01*
X-10236853Y-6262380D01*
X-10241214Y-6264021D01*
X-10245672Y-6265374D01*
X-10250210Y-6266432D01*
X-10254807Y-6267191D01*
X-10259443Y-6267648D01*
X-10264100Y-6267800D01*
X-10921700Y-6267800D01*
X-10926357Y-6267648D01*
X-10930993Y-6267191D01*
X-10935590Y-6266432D01*
X-10940128Y-6265374D01*
X-10944586Y-6264021D01*
X-10948947Y-6262380D01*
X-10953191Y-6260457D01*
X-10957300Y-6258261D01*
X-10961257Y-6255801D01*
X-10965044Y-6253087D01*
X-10968645Y-6250131D01*
X-10972046Y-6246946D01*
X-10975231Y-6243545D01*
X-10978187Y-6239944D01*
X-10980901Y-6236157D01*
X-10983361Y-6232200D01*
X-10985557Y-6228091D01*
X-10987480Y-6223847D01*
X-10989121Y-6219486D01*
X-10990474Y-6215028D01*
X-10991532Y-6210490D01*
X-10992291Y-6205893D01*
X-10992748Y-6201257D01*
X-10992900Y-6196600D01*
X-10992900Y-5389000D01*
X-10992748Y-5384343D01*
X-10992291Y-5379707D01*
X-10991532Y-5375110D01*
X-10990474Y-5370572D01*
X-10989121Y-5366114D01*
X-10987480Y-5361753D01*
X-10985557Y-5357509D01*
X-10983361Y-5353400D01*
X-10980901Y-5349443D01*
X-10978187Y-5345656D01*
X-10975231Y-5342055D01*
X-10972046Y-5338654D01*
X-10968645Y-5335469D01*
X-10965044Y-5332513D01*
X-10961257Y-5329799D01*
X-10957300Y-5327339D01*
X-10953191Y-5325143D01*
X-10948947Y-5323220D01*
X-10944586Y-5321579D01*
X-10940128Y-5320226D01*
X-10935590Y-5319168D01*
X-10930993Y-5318409D01*
X-10926357Y-5317952D01*
X-10921700Y-5317800D01*
X-10264100Y-5317800D01*
X-10259443Y-5317952D01*
G37*
G36*
X-11909443Y-5317952D02*
G01*
X-11904807Y-5318409D01*
X-11900210Y-5319168D01*
X-11895672Y-5320226D01*
X-11891214Y-5321579D01*
X-11886853Y-5323220D01*
X-11882609Y-5325143D01*
X-11878500Y-5327339D01*
X-11874543Y-5329799D01*
X-11870756Y-5332513D01*
X-11867155Y-5335469D01*
X-11863754Y-5338654D01*
X-11860569Y-5342055D01*
X-11857613Y-5345656D01*
X-11854899Y-5349443D01*
X-11852439Y-5353400D01*
X-11850243Y-5357509D01*
X-11848320Y-5361753D01*
X-11846679Y-5366114D01*
X-11845326Y-5370572D01*
X-11844268Y-5375110D01*
X-11843509Y-5379707D01*
X-11843052Y-5384343D01*
X-11842900Y-5389000D01*
X-11842900Y-6196600D01*
X-11843052Y-6201257D01*
X-11843509Y-6205893D01*
X-11844268Y-6210490D01*
X-11845326Y-6215028D01*
X-11846679Y-6219486D01*
X-11848320Y-6223847D01*
X-11850243Y-6228091D01*
X-11852439Y-6232200D01*
X-11854899Y-6236157D01*
X-11857613Y-6239944D01*
X-11860569Y-6243545D01*
X-11863754Y-6246946D01*
X-11867155Y-6250131D01*
X-11870756Y-6253087D01*
X-11874543Y-6255801D01*
X-11878500Y-6258261D01*
X-11882609Y-6260457D01*
X-11886853Y-6262380D01*
X-11891214Y-6264021D01*
X-11895672Y-6265374D01*
X-11900210Y-6266432D01*
X-11904807Y-6267191D01*
X-11909443Y-6267648D01*
X-11914100Y-6267800D01*
X-12571700Y-6267800D01*
X-12576357Y-6267648D01*
X-12580993Y-6267191D01*
X-12585590Y-6266432D01*
X-12590128Y-6265374D01*
X-12594586Y-6264021D01*
X-12598947Y-6262380D01*
X-12603191Y-6260457D01*
X-12607300Y-6258261D01*
X-12611257Y-6255801D01*
X-12615044Y-6253087D01*
X-12618645Y-6250131D01*
X-12622046Y-6246946D01*
X-12625231Y-6243545D01*
X-12628187Y-6239944D01*
X-12630901Y-6236157D01*
X-12633361Y-6232200D01*
X-12635557Y-6228091D01*
X-12637480Y-6223847D01*
X-12639121Y-6219486D01*
X-12640474Y-6215028D01*
X-12641532Y-6210490D01*
X-12642291Y-6205893D01*
X-12642748Y-6201257D01*
X-12642900Y-6196600D01*
X-12642900Y-5389000D01*
X-12642748Y-5384343D01*
X-12642291Y-5379707D01*
X-12641532Y-5375110D01*
X-12640474Y-5370572D01*
X-12639121Y-5366114D01*
X-12637480Y-5361753D01*
X-12635557Y-5357509D01*
X-12633361Y-5353400D01*
X-12630901Y-5349443D01*
X-12628187Y-5345656D01*
X-12625231Y-5342055D01*
X-12622046Y-5338654D01*
X-12618645Y-5335469D01*
X-12615044Y-5332513D01*
X-12611257Y-5329799D01*
X-12607300Y-5327339D01*
X-12603191Y-5325143D01*
X-12598947Y-5323220D01*
X-12594586Y-5321579D01*
X-12590128Y-5320226D01*
X-12585590Y-5319168D01*
X-12580993Y-5318409D01*
X-12576357Y-5317952D01*
X-12571700Y-5317800D01*
X-11914100Y-5317800D01*
X-11909443Y-5317952D01*
G37*
G36*
X-9437900Y22731100D02*
G01*
X-11747900Y22731100D01*
X-11747900Y25251100D01*
X-9437900Y25251100D01*
X-9437900Y22731100D01*
G37*
G36*
X-3237900Y22731100D02*
G01*
X-5547900Y22731100D01*
X-5547900Y25251100D01*
X-3237900Y25251100D01*
X-3237900Y22731100D01*
G37*
G36*
X1840408Y3150961D02*
G01*
X1884370Y3146632D01*
X1928066Y3140150D01*
X1971391Y3131532D01*
X2014241Y3120798D01*
X2056514Y3107975D01*
X2098106Y3093094D01*
X2138917Y3076189D01*
X2178850Y3057302D01*
X2217808Y3036478D01*
X2255698Y3013768D01*
X2292427Y2989226D01*
X2327908Y2962912D01*
X2362056Y2934888D01*
X2394786Y2905222D01*
X2426022Y2873986D01*
X2455688Y2841256D01*
X2483712Y2807108D01*
X2510026Y2771627D01*
X2534568Y2734898D01*
X2557278Y2697008D01*
X2578102Y2658050D01*
X2596989Y2618117D01*
X2613894Y2577306D01*
X2628775Y2535714D01*
X2641598Y2493441D01*
X2652332Y2450591D01*
X2660950Y2407266D01*
X2667432Y2363570D01*
X2671761Y2319608D01*
X2673929Y2275487D01*
X2673929Y2231313D01*
X2671761Y2187192D01*
X2667432Y2143230D01*
X2660950Y2099534D01*
X2652332Y2056209D01*
X2641598Y2013359D01*
X2628775Y1971086D01*
X2613894Y1929494D01*
X2596989Y1888683D01*
X2578102Y1848750D01*
X2557278Y1809792D01*
X2534568Y1771902D01*
X2510026Y1735173D01*
X2483712Y1699692D01*
X2455688Y1665544D01*
X2426022Y1632814D01*
X2394786Y1601578D01*
X2362056Y1571912D01*
X2327908Y1543888D01*
X2292427Y1517574D01*
X2255698Y1493032D01*
X2217808Y1470322D01*
X2178850Y1449498D01*
X2138917Y1430611D01*
X2098106Y1413706D01*
X2056514Y1398825D01*
X2014241Y1386002D01*
X1971391Y1375268D01*
X1928066Y1366650D01*
X1884370Y1360168D01*
X1840408Y1355839D01*
X1796287Y1353671D01*
X1752113Y1353671D01*
X1707992Y1355839D01*
X1664030Y1360168D01*
X1620334Y1366650D01*
X1577009Y1375268D01*
X1534159Y1386002D01*
X1491886Y1398825D01*
X1450294Y1413706D01*
X1409483Y1430611D01*
X1369550Y1449498D01*
X1330592Y1470322D01*
X1292702Y1493032D01*
X1255973Y1517574D01*
X1220492Y1543888D01*
X1186344Y1571912D01*
X1153614Y1601578D01*
X1122378Y1632814D01*
X1092712Y1665544D01*
X1064688Y1699692D01*
X1038374Y1735173D01*
X1013832Y1771902D01*
X991122Y1809792D01*
X970298Y1848750D01*
X951411Y1888683D01*
X934506Y1929494D01*
X919625Y1971086D01*
X906802Y2013359D01*
X896068Y2056209D01*
X887450Y2099534D01*
X880968Y2143230D01*
X876639Y2187192D01*
X874471Y2231313D01*
X874471Y2242356D01*
X1324336Y2242356D01*
X1325419Y2220296D01*
X1327584Y2198315D01*
X1330825Y2176467D01*
X1335134Y2154804D01*
X1340501Y2133379D01*
X1346912Y2112243D01*
X1354353Y2091447D01*
X1362806Y2071041D01*
X1372249Y2051075D01*
X1382661Y2031596D01*
X1394016Y2012651D01*
X1406287Y1994286D01*
X1419444Y1976546D01*
X1433456Y1959472D01*
X1448289Y1943107D01*
X1463907Y1927489D01*
X1480272Y1912656D01*
X1497346Y1898644D01*
X1515086Y1885487D01*
X1533451Y1873216D01*
X1552396Y1861861D01*
X1571875Y1851449D01*
X1591841Y1842006D01*
X1612247Y1833553D01*
X1633043Y1826112D01*
X1654179Y1819701D01*
X1675604Y1814334D01*
X1697267Y1810025D01*
X1719115Y1806784D01*
X1741096Y1804619D01*
X1763156Y1803536D01*
X1785244Y1803536D01*
X1807304Y1804619D01*
X1829285Y1806784D01*
X1851133Y1810025D01*
X1872796Y1814334D01*
X1894221Y1819701D01*
X1915357Y1826112D01*
X1936153Y1833553D01*
X1956559Y1842006D01*
X1976525Y1851449D01*
X1996004Y1861861D01*
X2014949Y1873216D01*
X2033314Y1885487D01*
X2051054Y1898644D01*
X2068128Y1912656D01*
X2084493Y1927489D01*
X2100111Y1943107D01*
X2114944Y1959472D01*
X2128956Y1976546D01*
X2142113Y1994286D01*
X2154384Y2012651D01*
X2165739Y2031596D01*
X2176151Y2051075D01*
X2185594Y2071041D01*
X2194047Y2091447D01*
X2201488Y2112243D01*
X2207899Y2133379D01*
X2213266Y2154804D01*
X2217575Y2176467D01*
X2220816Y2198315D01*
X2222981Y2220296D01*
X2224064Y2242356D01*
X2224064Y2264444D01*
X2222981Y2286504D01*
X2220816Y2308485D01*
X2217575Y2330333D01*
X2213266Y2351996D01*
X2207899Y2373421D01*
X2201488Y2394557D01*
X2194047Y2415353D01*
X2185594Y2435759D01*
X2176151Y2455725D01*
X2165739Y2475204D01*
X2154384Y2494149D01*
X2142113Y2512514D01*
X2128956Y2530254D01*
X2114944Y2547328D01*
X2100111Y2563693D01*
X2084493Y2579311D01*
X2068128Y2594144D01*
X2051054Y2608156D01*
X2033314Y2621313D01*
X2014949Y2633584D01*
X1996004Y2644939D01*
X1976525Y2655351D01*
X1956559Y2664794D01*
X1936153Y2673247D01*
X1915357Y2680688D01*
X1894221Y2687099D01*
X1872796Y2692466D01*
X1851133Y2696775D01*
X1829285Y2700016D01*
X1807304Y2702181D01*
X1785244Y2703264D01*
X1763156Y2703264D01*
X1741096Y2702181D01*
X1719115Y2700016D01*
X1697267Y2696775D01*
X1675604Y2692466D01*
X1654179Y2687099D01*
X1633043Y2680688D01*
X1612247Y2673247D01*
X1591841Y2664794D01*
X1571875Y2655351D01*
X1552396Y2644939D01*
X1533451Y2633584D01*
X1515086Y2621313D01*
X1497346Y2608156D01*
X1480272Y2594144D01*
X1463907Y2579311D01*
X1448289Y2563693D01*
X1433456Y2547328D01*
X1419444Y2530254D01*
X1406287Y2512514D01*
X1394016Y2494149D01*
X1382661Y2475204D01*
X1372249Y2455725D01*
X1362806Y2435759D01*
X1354353Y2415353D01*
X1346912Y2394557D01*
X1340501Y2373421D01*
X1335134Y2351996D01*
X1330825Y2330333D01*
X1327584Y2308485D01*
X1325419Y2286504D01*
X1324336Y2264444D01*
X1324336Y2242356D01*
X874471Y2242356D01*
X874471Y2275487D01*
X876639Y2319608D01*
X880968Y2363570D01*
X887450Y2407266D01*
X896068Y2450591D01*
X906802Y2493441D01*
X919625Y2535714D01*
X934506Y2577306D01*
X951411Y2618117D01*
X970298Y2658050D01*
X991122Y2697008D01*
X1013832Y2734898D01*
X1038374Y2771627D01*
X1064688Y2807108D01*
X1092712Y2841256D01*
X1122378Y2873986D01*
X1153614Y2905222D01*
X1186344Y2934888D01*
X1220492Y2962912D01*
X1255973Y2989226D01*
X1292702Y3013768D01*
X1330592Y3036478D01*
X1369550Y3057302D01*
X1409483Y3076189D01*
X1450294Y3093094D01*
X1491886Y3107975D01*
X1534159Y3120798D01*
X1577009Y3131532D01*
X1620334Y3140150D01*
X1664030Y3146632D01*
X1707992Y3150961D01*
X1752113Y3153129D01*
X1796287Y3153129D01*
X1840408Y3150961D01*
G37*
G36*
X134200Y3153400D02*
G01*
X134200Y1353400D01*
X-1665800Y1353400D01*
X-1665800Y2242356D01*
X-1215664Y2242356D01*
X-1214581Y2220296D01*
X-1212416Y2198315D01*
X-1209175Y2176467D01*
X-1204866Y2154804D01*
X-1199499Y2133379D01*
X-1193088Y2112243D01*
X-1185647Y2091447D01*
X-1177194Y2071041D01*
X-1167751Y2051075D01*
X-1157339Y2031596D01*
X-1145984Y2012651D01*
X-1133713Y1994286D01*
X-1120556Y1976546D01*
X-1106544Y1959472D01*
X-1091711Y1943107D01*
X-1076093Y1927489D01*
X-1059728Y1912656D01*
X-1042654Y1898644D01*
X-1024914Y1885487D01*
X-1006549Y1873216D01*
X-987604Y1861861D01*
X-968125Y1851449D01*
X-948159Y1842006D01*
X-927753Y1833553D01*
X-906957Y1826112D01*
X-885821Y1819701D01*
X-864396Y1814334D01*
X-842733Y1810025D01*
X-820885Y1806784D01*
X-798904Y1804619D01*
X-776844Y1803536D01*
X-754756Y1803536D01*
X-732696Y1804619D01*
X-710715Y1806784D01*
X-688867Y1810025D01*
X-667204Y1814334D01*
X-645779Y1819701D01*
X-624643Y1826112D01*
X-603847Y1833553D01*
X-583441Y1842006D01*
X-563475Y1851449D01*
X-543996Y1861861D01*
X-525051Y1873216D01*
X-506686Y1885487D01*
X-488946Y1898644D01*
X-471872Y1912656D01*
X-455507Y1927489D01*
X-439889Y1943107D01*
X-425056Y1959472D01*
X-411044Y1976546D01*
X-397887Y1994286D01*
X-385616Y2012651D01*
X-374261Y2031596D01*
X-363849Y2051075D01*
X-354406Y2071041D01*
X-345953Y2091447D01*
X-338512Y2112243D01*
X-332101Y2133379D01*
X-326734Y2154804D01*
X-322425Y2176467D01*
X-319184Y2198315D01*
X-317019Y2220296D01*
X-315936Y2242356D01*
X-315936Y2264444D01*
X-317019Y2286504D01*
X-319184Y2308485D01*
X-322425Y2330333D01*
X-326734Y2351996D01*
X-332101Y2373421D01*
X-338512Y2394557D01*
X-345953Y2415353D01*
X-354406Y2435759D01*
X-363849Y2455725D01*
X-374261Y2475204D01*
X-385616Y2494149D01*
X-397887Y2512514D01*
X-411044Y2530254D01*
X-425056Y2547328D01*
X-439889Y2563693D01*
X-455507Y2579311D01*
X-471872Y2594144D01*
X-488946Y2608156D01*
X-506686Y2621313D01*
X-525051Y2633584D01*
X-543996Y2644939D01*
X-563475Y2655351D01*
X-583441Y2664794D01*
X-603847Y2673247D01*
X-624643Y2680688D01*
X-645779Y2687099D01*
X-667204Y2692466D01*
X-688867Y2696775D01*
X-710715Y2700016D01*
X-732696Y2702181D01*
X-754756Y2703264D01*
X-776844Y2703264D01*
X-798904Y2702181D01*
X-820885Y2700016D01*
X-842733Y2696775D01*
X-864396Y2692466D01*
X-885821Y2687099D01*
X-906957Y2680688D01*
X-927753Y2673247D01*
X-948159Y2664794D01*
X-968125Y2655351D01*
X-987604Y2644939D01*
X-1006549Y2633584D01*
X-1024914Y2621313D01*
X-1042654Y2608156D01*
X-1059728Y2594144D01*
X-1076093Y2579311D01*
X-1091711Y2563693D01*
X-1106544Y2547328D01*
X-1120556Y2530254D01*
X-1133713Y2512514D01*
X-1145984Y2494149D01*
X-1157339Y2475204D01*
X-1167751Y2455725D01*
X-1177194Y2435759D01*
X-1185647Y2415353D01*
X-1193088Y2394557D01*
X-1199499Y2373421D01*
X-1204866Y2351996D01*
X-1209175Y2330333D01*
X-1212416Y2308485D01*
X-1214581Y2286504D01*
X-1215664Y2264444D01*
X-1215664Y2242356D01*
X-1665800Y2242356D01*
X-1665800Y3153400D01*
X134200Y3153400D01*
G37*
G36*
X-2251043Y-2877452D02*
G01*
X-2246407Y-2877909D01*
X-2241810Y-2878668D01*
X-2237272Y-2879726D01*
X-2232814Y-2881079D01*
X-2228453Y-2882720D01*
X-2224209Y-2884643D01*
X-2220100Y-2886839D01*
X-2216143Y-2889299D01*
X-2212356Y-2892013D01*
X-2208755Y-2894969D01*
X-2205354Y-2898154D01*
X-2202169Y-2901555D01*
X-2199213Y-2905156D01*
X-2196499Y-2908943D01*
X-2194039Y-2912900D01*
X-2191843Y-2917009D01*
X-2189920Y-2921253D01*
X-2188279Y-2925614D01*
X-2186926Y-2930072D01*
X-2185868Y-2934610D01*
X-2185109Y-2939207D01*
X-2184652Y-2943843D01*
X-2184500Y-2948500D01*
X-2184500Y-3756100D01*
X-2184652Y-3760757D01*
X-2185109Y-3765393D01*
X-2185868Y-3769990D01*
X-2186926Y-3774528D01*
X-2188279Y-3778986D01*
X-2189920Y-3783347D01*
X-2191843Y-3787591D01*
X-2194039Y-3791700D01*
X-2196499Y-3795657D01*
X-2199213Y-3799444D01*
X-2202169Y-3803045D01*
X-2205354Y-3806446D01*
X-2208755Y-3809631D01*
X-2212356Y-3812587D01*
X-2216143Y-3815301D01*
X-2220100Y-3817761D01*
X-2224209Y-3819957D01*
X-2228453Y-3821880D01*
X-2232814Y-3823521D01*
X-2237272Y-3824874D01*
X-2241810Y-3825932D01*
X-2246407Y-3826691D01*
X-2251043Y-3827148D01*
X-2255700Y-3827300D01*
X-2913300Y-3827300D01*
X-2917957Y-3827148D01*
X-2922593Y-3826691D01*
X-2927190Y-3825932D01*
X-2931728Y-3824874D01*
X-2936186Y-3823521D01*
X-2940547Y-3821880D01*
X-2944791Y-3819957D01*
X-2948900Y-3817761D01*
X-2952857Y-3815301D01*
X-2956644Y-3812587D01*
X-2960245Y-3809631D01*
X-2963646Y-3806446D01*
X-2966831Y-3803045D01*
X-2969787Y-3799444D01*
X-2972501Y-3795657D01*
X-2974961Y-3791700D01*
X-2977157Y-3787591D01*
X-2979080Y-3783347D01*
X-2980721Y-3778986D01*
X-2982074Y-3774528D01*
X-2983132Y-3769990D01*
X-2983891Y-3765393D01*
X-2984348Y-3760757D01*
X-2984500Y-3756100D01*
X-2984500Y-2948500D01*
X-2984348Y-2943843D01*
X-2983891Y-2939207D01*
X-2983132Y-2934610D01*
X-2982074Y-2930072D01*
X-2980721Y-2925614D01*
X-2979080Y-2921253D01*
X-2977157Y-2917009D01*
X-2974961Y-2912900D01*
X-2972501Y-2908943D01*
X-2969787Y-2905156D01*
X-2966831Y-2901555D01*
X-2963646Y-2898154D01*
X-2960245Y-2894969D01*
X-2956644Y-2892013D01*
X-2952857Y-2889299D01*
X-2948900Y-2886839D01*
X-2944791Y-2884643D01*
X-2940547Y-2882720D01*
X-2936186Y-2881079D01*
X-2931728Y-2879726D01*
X-2927190Y-2878668D01*
X-2922593Y-2877909D01*
X-2917957Y-2877452D01*
X-2913300Y-2877300D01*
X-2255700Y-2877300D01*
X-2251043Y-2877452D01*
G37*
G36*
X-3901043Y-2877452D02*
G01*
X-3896407Y-2877909D01*
X-3891810Y-2878668D01*
X-3887272Y-2879726D01*
X-3882814Y-2881079D01*
X-3878453Y-2882720D01*
X-3874209Y-2884643D01*
X-3870100Y-2886839D01*
X-3866143Y-2889299D01*
X-3862356Y-2892013D01*
X-3858755Y-2894969D01*
X-3855354Y-2898154D01*
X-3852169Y-2901555D01*
X-3849213Y-2905156D01*
X-3846499Y-2908943D01*
X-3844039Y-2912900D01*
X-3841843Y-2917009D01*
X-3839920Y-2921253D01*
X-3838279Y-2925614D01*
X-3836926Y-2930072D01*
X-3835868Y-2934610D01*
X-3835109Y-2939207D01*
X-3834652Y-2943843D01*
X-3834500Y-2948500D01*
X-3834500Y-3756100D01*
X-3834652Y-3760757D01*
X-3835109Y-3765393D01*
X-3835868Y-3769990D01*
X-3836926Y-3774528D01*
X-3838279Y-3778986D01*
X-3839920Y-3783347D01*
X-3841843Y-3787591D01*
X-3844039Y-3791700D01*
X-3846499Y-3795657D01*
X-3849213Y-3799444D01*
X-3852169Y-3803045D01*
X-3855354Y-3806446D01*
X-3858755Y-3809631D01*
X-3862356Y-3812587D01*
X-3866143Y-3815301D01*
X-3870100Y-3817761D01*
X-3874209Y-3819957D01*
X-3878453Y-3821880D01*
X-3882814Y-3823521D01*
X-3887272Y-3824874D01*
X-3891810Y-3825932D01*
X-3896407Y-3826691D01*
X-3901043Y-3827148D01*
X-3905700Y-3827300D01*
X-4563300Y-3827300D01*
X-4567957Y-3827148D01*
X-4572593Y-3826691D01*
X-4577190Y-3825932D01*
X-4581728Y-3824874D01*
X-4586186Y-3823521D01*
X-4590547Y-3821880D01*
X-4594791Y-3819957D01*
X-4598900Y-3817761D01*
X-4602857Y-3815301D01*
X-4606644Y-3812587D01*
X-4610245Y-3809631D01*
X-4613646Y-3806446D01*
X-4616831Y-3803045D01*
X-4619787Y-3799444D01*
X-4622501Y-3795657D01*
X-4624961Y-3791700D01*
X-4627157Y-3787591D01*
X-4629080Y-3783347D01*
X-4630721Y-3778986D01*
X-4632074Y-3774528D01*
X-4633132Y-3769990D01*
X-4633891Y-3765393D01*
X-4634348Y-3760757D01*
X-4634500Y-3756100D01*
X-4634500Y-2948500D01*
X-4634348Y-2943843D01*
X-4633891Y-2939207D01*
X-4633132Y-2934610D01*
X-4632074Y-2930072D01*
X-4630721Y-2925614D01*
X-4629080Y-2921253D01*
X-4627157Y-2917009D01*
X-4624961Y-2912900D01*
X-4622501Y-2908943D01*
X-4619787Y-2905156D01*
X-4616831Y-2901555D01*
X-4613646Y-2898154D01*
X-4610245Y-2894969D01*
X-4606644Y-2892013D01*
X-4602857Y-2889299D01*
X-4598900Y-2886839D01*
X-4594791Y-2884643D01*
X-4590547Y-2882720D01*
X-4586186Y-2881079D01*
X-4581728Y-2879726D01*
X-4577190Y-2878668D01*
X-4572593Y-2877909D01*
X-4567957Y-2877452D01*
X-4563300Y-2877300D01*
X-3905700Y-2877300D01*
X-3901043Y-2877452D01*
G37*
G36*
X-4131510Y6230307D02*
G01*
X-4063125Y6223571D01*
X-3995153Y6213489D01*
X-3927758Y6200083D01*
X-3861102Y6183386D01*
X-3795346Y6163439D01*
X-3730647Y6140290D01*
X-3667162Y6113994D01*
X-3605044Y6084614D01*
X-3544443Y6052222D01*
X-3485503Y6016895D01*
X-3428369Y5978719D01*
X-3373176Y5937785D01*
X-3320058Y5894192D01*
X-3269143Y5848046D01*
X-3220554Y5799457D01*
X-3174408Y5748542D01*
X-3130815Y5695424D01*
X-3089881Y5640231D01*
X-3051705Y5583097D01*
X-3016378Y5524157D01*
X-2983986Y5463556D01*
X-2954606Y5401438D01*
X-2928310Y5337953D01*
X-2905161Y5273254D01*
X-2885214Y5207498D01*
X-2868517Y5140842D01*
X-2855111Y5073447D01*
X-2845029Y5005475D01*
X-2838293Y4937090D01*
X-2834922Y4868458D01*
X-2834922Y4799742D01*
X-2838293Y4731110D01*
X-2845029Y4662725D01*
X-2855111Y4594753D01*
X-2868517Y4527358D01*
X-2885214Y4460702D01*
X-2905161Y4394946D01*
X-2928310Y4330247D01*
X-2954606Y4266762D01*
X-2983986Y4204644D01*
X-3016378Y4144043D01*
X-3051705Y4085103D01*
X-3089881Y4027969D01*
X-3130815Y3972776D01*
X-3174408Y3919658D01*
X-3220554Y3868743D01*
X-3269143Y3820154D01*
X-3320058Y3774008D01*
X-3373176Y3730415D01*
X-3428369Y3689481D01*
X-3485503Y3651305D01*
X-3544443Y3615978D01*
X-3605044Y3583586D01*
X-3667162Y3554206D01*
X-3730647Y3527910D01*
X-3795346Y3504761D01*
X-3861102Y3484814D01*
X-3927758Y3468117D01*
X-3995153Y3454711D01*
X-4063125Y3444629D01*
X-4131510Y3437893D01*
X-4200142Y3434522D01*
X-4268858Y3434522D01*
X-4337490Y3437893D01*
X-4405875Y3444629D01*
X-4473847Y3454711D01*
X-4541242Y3468117D01*
X-4607898Y3484814D01*
X-4673654Y3504761D01*
X-4738353Y3527910D01*
X-4801838Y3554206D01*
X-4863956Y3583586D01*
X-4924557Y3615978D01*
X-4983497Y3651305D01*
X-5040631Y3689481D01*
X-5095824Y3730415D01*
X-5148942Y3774008D01*
X-5199857Y3820154D01*
X-5248446Y3868743D01*
X-5294592Y3919658D01*
X-5338185Y3972776D01*
X-5379119Y4027969D01*
X-5417295Y4085103D01*
X-5452622Y4144043D01*
X-5485014Y4204644D01*
X-5514394Y4266762D01*
X-5540690Y4330247D01*
X-5563839Y4394946D01*
X-5583786Y4460702D01*
X-5600483Y4527358D01*
X-5613889Y4594753D01*
X-5623971Y4662725D01*
X-5630707Y4731110D01*
X-5634078Y4799742D01*
X-5634078Y4816921D01*
X-4934289Y4816921D01*
X-4932603Y4782605D01*
X-4929236Y4748413D01*
X-4924194Y4714427D01*
X-4917491Y4680729D01*
X-4909143Y4647401D01*
X-4899170Y4614523D01*
X-4887595Y4582173D01*
X-4874447Y4550431D01*
X-4859757Y4519372D01*
X-4843561Y4489071D01*
X-4825897Y4459602D01*
X-4806809Y4431034D01*
X-4786342Y4403438D01*
X-4764546Y4376879D01*
X-4741473Y4351422D01*
X-4717178Y4327127D01*
X-4691721Y4304054D01*
X-4665162Y4282258D01*
X-4637566Y4261791D01*
X-4608998Y4242703D01*
X-4579529Y4225039D01*
X-4549228Y4208843D01*
X-4518169Y4194153D01*
X-4486427Y4181005D01*
X-4454077Y4169430D01*
X-4421199Y4159457D01*
X-4387871Y4151109D01*
X-4354173Y4144406D01*
X-4320187Y4139364D01*
X-4285995Y4135997D01*
X-4251679Y4134311D01*
X-4217321Y4134311D01*
X-4183005Y4135997D01*
X-4148813Y4139364D01*
X-4114827Y4144406D01*
X-4081129Y4151109D01*
X-4047801Y4159457D01*
X-4014923Y4169430D01*
X-3982573Y4181005D01*
X-3950831Y4194153D01*
X-3919772Y4208843D01*
X-3889471Y4225039D01*
X-3860002Y4242703D01*
X-3831434Y4261791D01*
X-3803838Y4282258D01*
X-3777279Y4304054D01*
X-3751822Y4327127D01*
X-3727527Y4351422D01*
X-3704454Y4376879D01*
X-3682658Y4403438D01*
X-3662191Y4431034D01*
X-3643103Y4459602D01*
X-3625439Y4489071D01*
X-3609243Y4519372D01*
X-3594553Y4550431D01*
X-3581405Y4582173D01*
X-3569830Y4614523D01*
X-3559857Y4647401D01*
X-3551509Y4680729D01*
X-3544806Y4714427D01*
X-3539764Y4748413D01*
X-3536397Y4782605D01*
X-3534711Y4816921D01*
X-3534711Y4851279D01*
X-3536397Y4885595D01*
X-3539764Y4919787D01*
X-3544806Y4953773D01*
X-3551509Y4987471D01*
X-3559857Y5020799D01*
X-3569830Y5053677D01*
X-3581405Y5086027D01*
X-3594553Y5117769D01*
X-3609243Y5148828D01*
X-3625439Y5179129D01*
X-3643103Y5208598D01*
X-3662191Y5237166D01*
X-3682658Y5264762D01*
X-3704454Y5291321D01*
X-3727527Y5316778D01*
X-3751822Y5341073D01*
X-3777279Y5364146D01*
X-3803838Y5385942D01*
X-3831434Y5406409D01*
X-3860002Y5425497D01*
X-3889471Y5443161D01*
X-3919772Y5459357D01*
X-3950831Y5474047D01*
X-3982573Y5487195D01*
X-4014923Y5498770D01*
X-4047801Y5508743D01*
X-4081129Y5517091D01*
X-4114827Y5523794D01*
X-4148813Y5528836D01*
X-4183005Y5532203D01*
X-4217321Y5533889D01*
X-4251679Y5533889D01*
X-4285995Y5532203D01*
X-4320187Y5528836D01*
X-4354173Y5523794D01*
X-4387871Y5517091D01*
X-4421199Y5508743D01*
X-4454077Y5498770D01*
X-4486427Y5487195D01*
X-4518169Y5474047D01*
X-4549228Y5459357D01*
X-4579529Y5443161D01*
X-4608998Y5425497D01*
X-4637566Y5406409D01*
X-4665162Y5385942D01*
X-4691721Y5364146D01*
X-4717178Y5341073D01*
X-4741473Y5316778D01*
X-4764546Y5291321D01*
X-4786342Y5264762D01*
X-4806809Y5237166D01*
X-4825897Y5208598D01*
X-4843561Y5179129D01*
X-4859757Y5148828D01*
X-4874447Y5117769D01*
X-4887595Y5086027D01*
X-4899170Y5053677D01*
X-4909143Y5020799D01*
X-4917491Y4987471D01*
X-4924194Y4953773D01*
X-4929236Y4919787D01*
X-4932603Y4885595D01*
X-4934289Y4851279D01*
X-4934289Y4816921D01*
X-5634078Y4816921D01*
X-5634078Y4868458D01*
X-5630707Y4937090D01*
X-5623971Y5005475D01*
X-5613889Y5073447D01*
X-5600483Y5140842D01*
X-5583786Y5207498D01*
X-5563839Y5273254D01*
X-5540690Y5337953D01*
X-5514394Y5401438D01*
X-5485014Y5463556D01*
X-5452622Y5524157D01*
X-5417295Y5583097D01*
X-5379119Y5640231D01*
X-5338185Y5695424D01*
X-5294592Y5748542D01*
X-5248446Y5799457D01*
X-5199857Y5848046D01*
X-5148942Y5894192D01*
X-5095824Y5937785D01*
X-5040631Y5978719D01*
X-4983497Y6016895D01*
X-4924557Y6052222D01*
X-4863956Y6084614D01*
X-4801838Y6113994D01*
X-4738353Y6140290D01*
X-4673654Y6163439D01*
X-4607898Y6183386D01*
X-4541242Y6200083D01*
X-4473847Y6213489D01*
X-4405875Y6223571D01*
X-4337490Y6230307D01*
X-4268858Y6233678D01*
X-4200142Y6233678D01*
X-4131510Y6230307D01*
G37*
G36*
X-12994500Y6234100D02*
G01*
X-12994500Y3434100D01*
X-15794500Y3434100D01*
X-15794500Y4816921D01*
X-15094289Y4816921D01*
X-15092603Y4782605D01*
X-15089236Y4748413D01*
X-15084194Y4714427D01*
X-15077491Y4680729D01*
X-15069143Y4647401D01*
X-15059170Y4614523D01*
X-15047595Y4582173D01*
X-15034447Y4550431D01*
X-15019757Y4519372D01*
X-15003561Y4489071D01*
X-14985897Y4459602D01*
X-14966809Y4431034D01*
X-14946342Y4403438D01*
X-14924546Y4376879D01*
X-14901473Y4351422D01*
X-14877178Y4327127D01*
X-14851721Y4304054D01*
X-14825162Y4282258D01*
X-14797566Y4261791D01*
X-14768998Y4242703D01*
X-14739529Y4225039D01*
X-14709228Y4208843D01*
X-14678169Y4194153D01*
X-14646427Y4181005D01*
X-14614077Y4169430D01*
X-14581199Y4159457D01*
X-14547871Y4151109D01*
X-14514173Y4144406D01*
X-14480187Y4139364D01*
X-14445995Y4135997D01*
X-14411679Y4134311D01*
X-14377321Y4134311D01*
X-14343005Y4135997D01*
X-14308813Y4139364D01*
X-14274827Y4144406D01*
X-14241129Y4151109D01*
X-14207801Y4159457D01*
X-14174923Y4169430D01*
X-14142573Y4181005D01*
X-14110831Y4194153D01*
X-14079772Y4208843D01*
X-14049471Y4225039D01*
X-14020002Y4242703D01*
X-13991434Y4261791D01*
X-13963838Y4282258D01*
X-13937279Y4304054D01*
X-13911822Y4327127D01*
X-13887527Y4351422D01*
X-13864454Y4376879D01*
X-13842658Y4403438D01*
X-13822191Y4431034D01*
X-13803103Y4459602D01*
X-13785439Y4489071D01*
X-13769243Y4519372D01*
X-13754553Y4550431D01*
X-13741405Y4582173D01*
X-13729830Y4614523D01*
X-13719857Y4647401D01*
X-13711509Y4680729D01*
X-13704806Y4714427D01*
X-13699764Y4748413D01*
X-13696397Y4782605D01*
X-13694711Y4816921D01*
X-13694711Y4851279D01*
X-13696397Y4885595D01*
X-13699764Y4919787D01*
X-13704806Y4953773D01*
X-13711509Y4987471D01*
X-13719857Y5020799D01*
X-13729830Y5053677D01*
X-13741405Y5086027D01*
X-13754553Y5117769D01*
X-13769243Y5148828D01*
X-13785439Y5179129D01*
X-13803103Y5208598D01*
X-13822191Y5237166D01*
X-13842658Y5264762D01*
X-13864454Y5291321D01*
X-13887527Y5316778D01*
X-13911822Y5341073D01*
X-13937279Y5364146D01*
X-13963838Y5385942D01*
X-13991434Y5406409D01*
X-14020002Y5425497D01*
X-14049471Y5443161D01*
X-14079772Y5459357D01*
X-14110831Y5474047D01*
X-14142573Y5487195D01*
X-14174923Y5498770D01*
X-14207801Y5508743D01*
X-14241129Y5517091D01*
X-14274827Y5523794D01*
X-14308813Y5528836D01*
X-14343005Y5532203D01*
X-14377321Y5533889D01*
X-14411679Y5533889D01*
X-14445995Y5532203D01*
X-14480187Y5528836D01*
X-14514173Y5523794D01*
X-14547871Y5517091D01*
X-14581199Y5508743D01*
X-14614077Y5498770D01*
X-14646427Y5487195D01*
X-14678169Y5474047D01*
X-14709228Y5459357D01*
X-14739529Y5443161D01*
X-14768998Y5425497D01*
X-14797566Y5406409D01*
X-14825162Y5385942D01*
X-14851721Y5364146D01*
X-14877178Y5341073D01*
X-14901473Y5316778D01*
X-14924546Y5291321D01*
X-14946342Y5264762D01*
X-14966809Y5237166D01*
X-14985897Y5208598D01*
X-15003561Y5179129D01*
X-15019757Y5148828D01*
X-15034447Y5117769D01*
X-15047595Y5086027D01*
X-15059170Y5053677D01*
X-15069143Y5020799D01*
X-15077491Y4987471D01*
X-15084194Y4953773D01*
X-15089236Y4919787D01*
X-15092603Y4885595D01*
X-15094289Y4851279D01*
X-15094289Y4816921D01*
X-15794500Y4816921D01*
X-15794500Y6234100D01*
X-12994500Y6234100D01*
G37*
%TD*%
M02*
