%TF.GenerationSoftware,Flux,Pcbnew,7.0.11-7.0.11~ubuntu20.04.1*%
%TF.CreationDate,2024-06-09T09:19:31+00:00*%
%TF.ProjectId,input,696e7075-742e-46b6-9963-61645f706362,rev?*%
%TF.SameCoordinates,Original*%
%TF.FileFunction,Copper,L1,Top*%
%TF.FilePolarity,Positive*%
%FSLAX46Y46*%
G04 Gerber Fmt 4.6, Leading zero omitted, Abs format (unit mm)*
G04 Filename: high-quality-audio-amplifier*
G04 Build it with Flux! Visit our site at: https://www.flux.ai (PCBNEW 7.0.11-7.0.11~ubuntu20.04.1) date 2024-06-09 09:19:31*
%MOMM*%
%LPD*%
G01*
G04 APERTURE LIST*
G04 Aperture macros list*
%AMFreePoly0*
4,1,101,0.414367,0.699775,0.421205,0.699102,0.427984,0.697982,0.434676,0.696422,0.441251,0.694428,0.447682,0.692007,0.453940,0.689172,0.460000,0.685933,0.465835,0.682304,0.471420,0.678302,0.476731,0.673943,0.481746,0.669246,0.486443,0.664231,0.490802,0.658920,0.494804,0.653335,0.498433,0.647500,0.501672,0.641440,0.504507,0.635182,0.506928,0.628751,0.508922,0.622176,
0.510482,0.615484,0.511602,0.608705,0.512275,0.601867,0.512500,0.595000,0.512500,-0.595000,0.512275,-0.601867,0.511602,-0.608705,0.510482,-0.615484,0.508922,-0.622176,0.506928,-0.628751,0.504507,-0.635182,0.501672,-0.641440,0.498433,-0.647500,0.494804,-0.653335,0.490802,-0.658920,0.486443,-0.664231,0.481746,-0.669246,0.476731,-0.673943,0.471420,-0.678302,0.465835,-0.682304,
0.460000,-0.685933,0.453940,-0.689172,0.447682,-0.692007,0.441251,-0.694428,0.434676,-0.696422,0.427984,-0.697982,0.421205,-0.699102,0.414367,-0.699775,0.407500,-0.700000,-0.407500,-0.700000,-0.414367,-0.699775,-0.421205,-0.699102,-0.427984,-0.697982,-0.434676,-0.696422,-0.441251,-0.694428,-0.447682,-0.692007,-0.453940,-0.689172,-0.460000,-0.685933,-0.465835,-0.682304,-0.471420,-0.678302,
-0.476731,-0.673943,-0.481746,-0.669246,-0.486443,-0.664231,-0.490802,-0.658920,-0.494804,-0.653335,-0.498433,-0.647500,-0.501672,-0.641440,-0.504507,-0.635182,-0.506928,-0.628751,-0.508922,-0.622176,-0.510482,-0.615484,-0.511602,-0.608705,-0.512275,-0.601867,-0.512500,-0.595000,-0.512500,0.595000,-0.512275,0.601867,-0.511602,0.608705,-0.510482,0.615484,-0.508922,0.622176,-0.506928,0.628751,
-0.504507,0.635182,-0.501672,0.641440,-0.498433,0.647500,-0.494804,0.653335,-0.490802,0.658920,-0.486443,0.664231,-0.481746,0.669246,-0.476731,0.673943,-0.471420,0.678302,-0.465835,0.682304,-0.460000,0.685933,-0.453940,0.689172,-0.447682,0.692007,-0.441251,0.694428,-0.434676,0.696422,-0.427984,0.697982,-0.421205,0.699102,-0.414367,0.699775,-0.407500,0.700000,0.407500,0.700000,
0.414367,0.699775,0.414367,0.699775,$1*%
%AMFreePoly1*
4,1,5,0.762000,-0.762000,-0.762000,-0.762000,-0.762000,0.762000,0.762000,0.762000,0.762000,-0.762000,0.762000,-0.762000,$1*%
%AMFreePoly2*
4,1,5,1.400000,-1.400000,-1.400000,-1.400000,-1.400000,1.400000,1.400000,1.400000,1.400000,-1.400000,1.400000,-1.400000,$1*%
%AMFreePoly3*
4,1,5,0.596900,-0.469900,-0.596900,-0.469900,-0.596900,0.469900,0.596900,0.469900,0.596900,-0.469900,0.596900,-0.469900,$1*%
%AMFreePoly4*
4,1,5,0.650000,-0.800000,-0.650000,-0.800000,-0.650000,0.800000,0.650000,0.800000,0.650000,-0.800000,0.650000,-0.800000,$1*%
%AMFreePoly5*
4,1,5,1.000000,-0.800000,-1.000000,-0.800000,-1.000000,0.800000,1.000000,0.800000,1.000000,-0.800000,1.000000,-0.800000,$1*%
%AMFreePoly6*
4,1,101,0.383457,0.474848,0.388093,0.474391,0.392690,0.473632,0.397228,0.472574,0.401686,0.471221,0.406047,0.469580,0.410291,0.467657,0.414400,0.465461,0.418357,0.463001,0.422144,0.460287,0.425745,0.457331,0.429146,0.454146,0.432331,0.450745,0.435287,0.447144,0.438001,0.443357,0.440461,0.439400,0.442657,0.435291,0.444580,0.431047,0.446221,0.426686,0.447574,0.422228,
0.448632,0.417690,0.449391,0.413093,0.449848,0.408457,0.450000,0.403800,0.450000,-0.403800,0.449848,-0.408457,0.449391,-0.413093,0.448632,-0.417690,0.447574,-0.422228,0.446221,-0.426686,0.444580,-0.431047,0.442657,-0.435291,0.440461,-0.439400,0.438001,-0.443357,0.435287,-0.447144,0.432331,-0.450745,0.429146,-0.454146,0.425745,-0.457331,0.422144,-0.460287,0.418357,-0.463001,
0.414400,-0.465461,0.410291,-0.467657,0.406047,-0.469580,0.401686,-0.471221,0.397228,-0.472574,0.392690,-0.473632,0.388093,-0.474391,0.383457,-0.474848,0.378800,-0.475000,-0.378800,-0.475000,-0.383457,-0.474848,-0.388093,-0.474391,-0.392690,-0.473632,-0.397228,-0.472574,-0.401686,-0.471221,-0.406047,-0.469580,-0.410291,-0.467657,-0.414400,-0.465461,-0.418357,-0.463001,-0.422144,-0.460287,
-0.425745,-0.457331,-0.429146,-0.454146,-0.432331,-0.450745,-0.435287,-0.447144,-0.438001,-0.443357,-0.440461,-0.439400,-0.442657,-0.435291,-0.444580,-0.431047,-0.446221,-0.426686,-0.447574,-0.422228,-0.448632,-0.417690,-0.449391,-0.413093,-0.449848,-0.408457,-0.450000,-0.403800,-0.450000,0.403800,-0.449848,0.408457,-0.449391,0.413093,-0.448632,0.417690,-0.447574,0.422228,-0.446221,0.426686,
-0.444580,0.431047,-0.442657,0.435291,-0.440461,0.439400,-0.438001,0.443357,-0.435287,0.447144,-0.432331,0.450745,-0.429146,0.454146,-0.425745,0.457331,-0.422144,0.460287,-0.418357,0.463001,-0.414400,0.465461,-0.410291,0.467657,-0.406047,0.469580,-0.401686,0.471221,-0.397228,0.472574,-0.392690,0.473632,-0.388093,0.474391,-0.383457,0.474848,-0.378800,0.475000,0.378800,0.475000,
0.383457,0.474848,0.383457,0.474848,$1*%
%AMFreePoly7*
4,1,5,0.900000,-0.900000,-0.900000,-0.900000,-0.900000,0.900000,0.900000,0.900000,0.900000,-0.900000,0.900000,-0.900000,$1*%
%AMFreePoly8*
4,1,5,1.155000,-1.260000,-1.155000,-1.260000,-1.155000,1.260000,1.155000,1.260000,1.155000,-1.260000,1.155000,-1.260000,$1*%
%AMFreePoly9*
4,1,5,1.100000,-1.050000,-1.100000,-1.050000,-1.100000,1.050000,1.100000,1.050000,1.100000,-1.050000,1.100000,-1.050000,$1*%
%AMFreePoly10*
4,1,5,1.000000,-1.050000,-1.000000,-1.050000,-1.000000,1.050000,1.000000,1.050000,1.000000,-1.050000,1.000000,-1.050000,$1*%
%AMFreePoly11*
4,1,5,1.350000,-1.050000,-1.350000,-1.050000,-1.350000,1.050000,1.350000,1.050000,1.350000,-1.050000,1.350000,-1.050000,$1*%
%AMFreePoly12*
4,1,5,1.300000,-1.350000,-1.300000,-1.350000,-1.300000,1.350000,1.300000,1.350000,1.300000,-1.350000,1.300000,-1.350000,$1*%
%AMFreePoly13*
4,1,101,0.333457,0.474848,0.338093,0.474391,0.342690,0.473632,0.347228,0.472574,0.351686,0.471221,0.356047,0.469580,0.360291,0.467657,0.364400,0.465461,0.368357,0.463001,0.372144,0.460287,0.375745,0.457331,0.379146,0.454146,0.382331,0.450745,0.385287,0.447144,0.388001,0.443357,0.390461,0.439400,0.392657,0.435291,0.394580,0.431047,0.396221,0.426686,0.397574,0.422228,
0.398632,0.417690,0.399391,0.413093,0.399848,0.408457,0.400000,0.403800,0.400000,-0.403800,0.399848,-0.408457,0.399391,-0.413093,0.398632,-0.417690,0.397574,-0.422228,0.396221,-0.426686,0.394580,-0.431047,0.392657,-0.435291,0.390461,-0.439400,0.388001,-0.443357,0.385287,-0.447144,0.382331,-0.450745,0.379146,-0.454146,0.375745,-0.457331,0.372144,-0.460287,0.368357,-0.463001,
0.364400,-0.465461,0.360291,-0.467657,0.356047,-0.469580,0.351686,-0.471221,0.347228,-0.472574,0.342690,-0.473632,0.338093,-0.474391,0.333457,-0.474848,0.328800,-0.475000,-0.328800,-0.475000,-0.333457,-0.474848,-0.338093,-0.474391,-0.342690,-0.473632,-0.347228,-0.472574,-0.351686,-0.471221,-0.356047,-0.469580,-0.360291,-0.467657,-0.364400,-0.465461,-0.368357,-0.463001,-0.372144,-0.460287,
-0.375745,-0.457331,-0.379146,-0.454146,-0.382331,-0.450745,-0.385287,-0.447144,-0.388001,-0.443357,-0.390461,-0.439400,-0.392657,-0.435291,-0.394580,-0.431047,-0.396221,-0.426686,-0.397574,-0.422228,-0.398632,-0.417690,-0.399391,-0.413093,-0.399848,-0.408457,-0.400000,-0.403800,-0.400000,0.403800,-0.399848,0.408457,-0.399391,0.413093,-0.398632,0.417690,-0.397574,0.422228,-0.396221,0.426686,
-0.394580,0.431047,-0.392657,0.435291,-0.390461,0.439400,-0.388001,0.443357,-0.385287,0.447144,-0.382331,0.450745,-0.379146,0.454146,-0.375745,0.457331,-0.372144,0.460287,-0.368357,0.463001,-0.364400,0.465461,-0.360291,0.467657,-0.356047,0.469580,-0.351686,0.471221,-0.347228,0.472574,-0.342690,0.473632,-0.338093,0.474391,-0.333457,0.474848,-0.328800,0.475000,0.328800,0.475000,
0.333457,0.474848,0.333457,0.474848,$1*%
%AMFreePoly14*
4,1,129,0.022069,0.299187,0.036723,0.297744,0.051289,0.295583,0.065730,0.292711,0.080014,0.289133,0.094105,0.284858,0.107969,0.279898,0.121572,0.274263,0.134883,0.267967,0.147869,0.261026,0.160499,0.253456,0.172742,0.245275,0.184569,0.236504,0.195952,0.227163,0.206862,0.217274,0.217274,0.206862,0.227163,0.195952,0.236504,0.184569,0.245275,0.172742,0.253456,0.160499,
0.261026,0.147869,0.267967,0.134883,0.274263,0.121572,0.279898,0.107969,0.284858,0.094105,0.289133,0.080014,0.292711,0.065730,0.295583,0.051289,0.297744,0.036723,0.299187,0.022069,0.299910,0.007362,0.299910,-0.007362,0.299187,-0.022069,0.297744,-0.036723,0.295583,-0.051289,0.292711,-0.065730,0.289133,-0.080014,0.284858,-0.094105,0.279898,-0.107969,0.274263,-0.121572,
0.267967,-0.134883,0.261026,-0.147869,0.253456,-0.160499,0.245275,-0.172742,0.236504,-0.184569,0.227163,-0.195952,0.217274,-0.206862,0.206862,-0.217274,0.195952,-0.227163,0.184569,-0.236504,0.172742,-0.245275,0.160499,-0.253456,0.147869,-0.261026,0.134883,-0.267967,0.121572,-0.274263,0.107969,-0.279898,0.094105,-0.284858,0.080014,-0.289133,0.065730,-0.292711,0.051289,-0.295583,
0.036723,-0.297744,0.022069,-0.299187,0.007362,-0.299910,-0.007362,-0.299910,-0.022069,-0.299187,-0.036723,-0.297744,-0.051289,-0.295583,-0.065730,-0.292711,-0.080014,-0.289133,-0.094105,-0.284858,-0.107969,-0.279898,-0.121572,-0.274263,-0.134883,-0.267967,-0.147869,-0.261026,-0.160499,-0.253456,-0.172742,-0.245275,-0.184569,-0.236504,-0.195952,-0.227163,-0.206862,-0.217274,-0.217274,-0.206862,
-0.227163,-0.195952,-0.236504,-0.184569,-0.245275,-0.172742,-0.253456,-0.160499,-0.261026,-0.147869,-0.267967,-0.134883,-0.274263,-0.121572,-0.279898,-0.107969,-0.284858,-0.094105,-0.289133,-0.080014,-0.292711,-0.065730,-0.295583,-0.051289,-0.297744,-0.036723,-0.299187,-0.022069,-0.299910,-0.007362,-0.299910,0.007362,-0.299187,0.022069,-0.297744,0.036723,-0.295583,0.051289,-0.292711,0.065730,
-0.289133,0.080014,-0.284858,0.094105,-0.279898,0.107969,-0.274263,0.121572,-0.267967,0.134883,-0.261026,0.147869,-0.253456,0.160499,-0.245275,0.172742,-0.236504,0.184569,-0.227163,0.195952,-0.217274,0.206862,-0.206862,0.217274,-0.195952,0.227163,-0.184569,0.236504,-0.172742,0.245275,-0.160499,0.253456,-0.147869,0.261026,-0.134883,0.267967,-0.121572,0.274263,-0.107969,0.279898,
-0.094105,0.284858,-0.080014,0.289133,-0.065730,0.292711,-0.051289,0.295583,-0.036723,0.297744,-0.022069,0.299187,-0.007362,0.299910,0.007362,0.299910,0.022069,0.299187,0.022069,0.299187,$1*%
G04 Aperture macros list end*
%TA.AperFunction,ComponentPad*%
%ADD10C,1.600000*%
%TD*%
%TA.AperFunction,SMDPad,CuDef*%
%ADD11FreePoly0,0.000000*%
%TD*%
%TA.AperFunction,ComponentPad*%
%ADD12FreePoly1,0.000000*%
%TD*%
%TA.AperFunction,ComponentPad*%
%ADD13C,1.524000*%
%TD*%
%TA.AperFunction,ComponentPad*%
%ADD14C,2.800000*%
%TD*%
%TA.AperFunction,ComponentPad*%
%ADD15FreePoly2,270.000000*%
%TD*%
%TA.AperFunction,SMDPad,CuDef*%
%ADD16FreePoly3,270.000000*%
%TD*%
%TA.AperFunction,SMDPad,CuDef*%
%ADD17FreePoly4,0.000000*%
%TD*%
%TA.AperFunction,SMDPad,CuDef*%
%ADD18FreePoly5,0.000000*%
%TD*%
%TA.AperFunction,SMDPad,CuDef*%
%ADD19FreePoly0,270.000000*%
%TD*%
%TA.AperFunction,SMDPad,CuDef*%
%ADD20FreePoly6,270.000000*%
%TD*%
%TA.AperFunction,ComponentPad*%
%ADD21C,1.800000*%
%TD*%
%TA.AperFunction,ComponentPad*%
%ADD22FreePoly7,270.000000*%
%TD*%
%TA.AperFunction,SMDPad,CuDef*%
%ADD23FreePoly6,0.000000*%
%TD*%
%TA.AperFunction,SMDPad,CuDef*%
%ADD24FreePoly8,0.000000*%
%TD*%
%TA.AperFunction,SMDPad,CuDef*%
%ADD25FreePoly9,0.000000*%
%TD*%
%TA.AperFunction,SMDPad,CuDef*%
%ADD26FreePoly10,180.000000*%
%TD*%
%TA.AperFunction,SMDPad,CuDef*%
%ADD27FreePoly11,0.000000*%
%TD*%
%TA.AperFunction,SMDPad,CuDef*%
%ADD28FreePoly12,0.000000*%
%TD*%
%TA.AperFunction,SMDPad,CuDef*%
%ADD29FreePoly13,270.000000*%
%TD*%
%TA.AperFunction,ComponentPad*%
%ADD30C,3.000000*%
%TD*%
%TA.AperFunction,SMDPad,CuDef*%
%ADD31FreePoly13,0.000000*%
%TD*%
%TA.AperFunction,ComponentPad*%
%ADD32FreePoly7,0.000000*%
%TD*%
%TA.AperFunction,ComponentPad*%
%ADD33FreePoly2,0.000000*%
%TD*%
%TA.AperFunction,ComponentPad*%
%ADD34FreePoly14,0.000000*%
%TD*%
%TA.AperFunction,Conductor*%
%ADD35C,0.254000*%
%TD*%
G04 APERTURE END LIST*
D10*
%TO.P,,4bd38d50-f10d-48c2-93c4-56d2c58a840e__3d0e5c81-2b94-2588-9270-cc0b63aae38c*%
%TO.N,N/C*%
X-6846400Y-19396300D03*
%TO.P,,4bd38d50-f10d-48c2-93c4-56d2c58a840e__a62acf30-473f-9fe2-0504-059f88965630*%
X-6846409Y-16896300D03*
D11*
%TO.P,,4c8201e6-64d9-4552-ae71-f96a52099331__6ccd8774-167d-5115-fcc3-058377139cd2*%
X9085900Y15345600D03*
%TO.P,,4c8201e6-64d9-4552-ae71-f96a52099331__6fe315b0-58c3-b1f6-eacc-eea7ab8db17a*%
X7260900Y15345600D03*
D12*
%TO.P,,5b043353-0343-438d-a714-c94edd25ec6e__16639921-40cc-4205-89d3-3bd610961e17*%
X-17692800Y17136300D03*
D13*
%TO.P,,5b043353-0343-438d-a714-c94edd25ec6e__25e012b3-c4cd-475b-8d7d-fe2e89d97b89*%
X-17692800Y9516300D03*
%TO.P,,5b043353-0343-438d-a714-c94edd25ec6e__5fb57193-7c39-4e92-a400-440da518d614*%
X-10072800Y12056300D03*
%TO.P,,5b043353-0343-438d-a714-c94edd25ec6e__78f79f8d-2d28-4b9b-99a9-716e60b991f0*%
X-17692800Y12056300D03*
%TO.P,,5b043353-0343-438d-a714-c94edd25ec6e__889e423a-5473-4a6e-90ee-9f81973fe111*%
X-10072800Y9516300D03*
%TO.P,,5b043353-0343-438d-a714-c94edd25ec6e__8f9ae9d7-f9ab-4842-863e-45e532ac7024*%
X-17692800Y14596300D03*
%TO.P,,5b043353-0343-438d-a714-c94edd25ec6e__9f94c171-a7cb-486b-a984-a055fad3663c*%
X-10072800Y17136300D03*
%TO.P,,5b043353-0343-438d-a714-c94edd25ec6e__f9aa20ca-edf7-4b9b-84a2-ec042cced649*%
X-10072800Y14596300D03*
D14*
%TO.P,,62f1100b-d207-419b-a738-74b301b1434d__80087a97-39f9-8382-3c43-608f98a8909d*%
X-765790Y-27110700D03*
D15*
%TO.P,,62f1100b-d207-419b-a738-74b301b1434d__b49365bb-5f19-7cf1-d443-89d61725f0a2*%
X-765800Y-16950700D03*
D16*
%TO.P,,6d64da28-7465-42ba-82aa-c129c802fbb1__3e5bc462-c945-1887-628b-c8127adce65f*%
X792902Y-10598699D03*
%TO.P,,6d64da28-7465-42ba-82aa-c129c802fbb1__410a9444-6f1b-0328-2633-1a04e9eda9b3*%
X792898Y-6582899D03*
%TO.P,,6d64da28-7465-42ba-82aa-c129c802fbb1__92d73fbf-6f84-0093-1d53-025df11ca92c*%
X-807098Y-10598701D03*
%TO.P,,6d64da28-7465-42ba-82aa-c129c802fbb1__99965758-526c-a05f-41e5-37630bffd7a0*%
X-807102Y-6582901D03*
D11*
%TO.P,,7405874c-8108-4bed-8a81-5f5ecd59ceee__6ccd8774-167d-5115-fcc3-058377139cd2*%
X-15867800Y23991100D03*
%TO.P,,7405874c-8108-4bed-8a81-5f5ecd59ceee__6fe315b0-58c3-b1f6-eacc-eea7ab8db17a*%
X-17692800Y23991100D03*
D17*
%TO.P,,8139ab67-0754-4742-acb9-c07713d1a7bb__9f54ac2f-700c-c65a-164d-3388a5aec35a*%
X-9314500Y-24210700D03*
D18*
%TO.P,,8139ab67-0754-4742-acb9-c07713d1a7bb__a98ab8d6-5a06-7c99-2cb2-0a092b7b7784*%
X-10564500Y-27110700D03*
D17*
%TO.P,,8139ab67-0754-4742-acb9-c07713d1a7bb__ff238c4c-5886-e0b3-f594-3813960e7e6f*%
X-11814500Y-24210700D03*
D19*
%TO.P,,8b58d120-8dda-445d-afb5-712cc6f89664__6ccd8774-167d-5115-fcc3-058377139cd2*%
X-26992999Y-13777100D03*
%TO.P,,8b58d120-8dda-445d-afb5-712cc6f89664__6fe315b0-58c3-b1f6-eacc-eea7ab8db17a*%
X-26993001Y-11952100D03*
D20*
%TO.P,,967b74b5-a6e0-4381-b6f5-6e2960d07c1b__5237503d-4662-b83a-7859-31969858b9c0*%
X9015599Y11066300D03*
%TO.P,,967b74b5-a6e0-4381-b6f5-6e2960d07c1b__e5e04a27-c5c4-f2e6-5799-708eb3f01464*%
X9015601Y9516300D03*
D21*
%TO.P,,a0d03ff5-6a0e-4e79-99f8-954d9d5d18bc__04a2d059-560c-a07a-12f6-b740fdc5113a*%
X-12242897Y-11952100D03*
D22*
%TO.P,,a0d03ff5-6a0e-4e79-99f8-954d9d5d18bc__e82ec0ab-28d4-bcd5-2850-0f8de32b0c62*%
X-12242900Y-9412100D03*
D23*
%TO.P,,b3db80be-dc07-4214-96fe-37984013d8be__5237503d-4662-b83a-7859-31969858b9c0*%
X4102800Y15345600D03*
%TO.P,,b3db80be-dc07-4214-96fe-37984013d8be__e5e04a27-c5c4-f2e6-5799-708eb3f01464*%
X5652800Y15345600D03*
D24*
%TO.P,,bae88902-bba1-4c76-ae75-c1318f7dea51__41bd0a99-3f8a-84fc-600b-1555f007cbbb*%
X21483400Y11808100D03*
%TO.P,,bae88902-bba1-4c76-ae75-c1318f7dea51__669e5522-98ca-b779-1f72-188d2acf43ec*%
X27683400Y11808100D03*
D25*
%TO.P,,bd42a672-833c-4985-b2ed-bbb3a83e76de__260285b0-baa5-88df-a6f3-efa4c6c68195*%
X-25093000Y1517100D03*
%TO.P,,bd42a672-833c-4985-b2ed-bbb3a83e76de__3dc7ddf9-914d-c473-4569-b8abaa1949d9*%
X-26993000Y-6582900D03*
D26*
%TO.P,,bd42a672-833c-4985-b2ed-bbb3a83e76de__3e92daf6-c21e-22b9-50f6-155ad48de631*%
X-27793000Y1517100D03*
D27*
%TO.P,,bd42a672-833c-4985-b2ed-bbb3a83e76de__8df16a39-7825-fa31-229d-8781c6f140de*%
X-17693000Y-6582900D03*
D28*
%TO.P,,bd42a672-833c-4985-b2ed-bbb3a83e76de__c343994d-f24a-745a-792c-cbc5e93997fe*%
X-13593000Y-1782900D03*
D29*
%TO.P,,c03541e8-5f3c-414e-b5c0-965c6c15882c__880f28ef-cf41-0acc-4a98-ce0afa37b0c2*%
X-5651199Y-13405200D03*
%TO.P,,c03541e8-5f3c-414e-b5c0-965c6c15882c__dff57d78-487b-f832-db06-4405c23ce37c*%
X-5651201Y-11755200D03*
D30*
%TO.P,,c3fea6c2-ec10-437e-bd62-7820804ad0e0__d1bf1f78-149c-16ba-0554-7c80c215e056*%
X8173400Y-96700D03*
%TO.P,,c3fea6c2-ec10-437e-bd62-7820804ad0e0__f17784dc-aff0-830b-41b7-9de780267be7*%
X27583400Y-96700D03*
D29*
%TO.P,,d0522023-0847-4e65-b183-f554e765c9b3__880f28ef-cf41-0acc-4a98-ce0afa37b0c2*%
X-17692999Y-13946700D03*
%TO.P,,d0522023-0847-4e65-b183-f554e765c9b3__dff57d78-487b-f832-db06-4405c23ce37c*%
X-17693001Y-12296700D03*
D31*
%TO.P,,d5954012-bcb8-4944-b685-178c82562726__880f28ef-cf41-0acc-4a98-ce0afa37b0c2*%
X-10592900Y-5792800D03*
%TO.P,,d5954012-bcb8-4944-b685-178c82562726__dff57d78-487b-f832-db06-4405c23ce37c*%
X-12242900Y-5792800D03*
D24*
%TO.P,,e7c95e9c-62f4-44c9-984b-20c75d3628fb__41bd0a99-3f8a-84fc-600b-1555f007cbbb*%
X-10592900Y23991100D03*
%TO.P,,e7c95e9c-62f4-44c9-984b-20c75d3628fb__669e5522-98ca-b779-1f72-188d2acf43ec*%
X-4392900Y23991100D03*
D21*
%TO.P,,f64977ca-a50a-4324-92dc-9cac34273361__04a2d059-560c-a07a-12f6-b740fdc5113a*%
X1774200Y2253400D03*
D32*
%TO.P,,f64977ca-a50a-4324-92dc-9cac34273361__e82ec0ab-28d4-bcd5-2850-0f8de32b0c62*%
X-765800Y2253400D03*
D31*
%TO.P,,f6e02cc4-1855-4a18-b4ef-fa78af7f3951__880f28ef-cf41-0acc-4a98-ce0afa37b0c2*%
X-2584500Y-3352300D03*
%TO.P,,f6e02cc4-1855-4a18-b4ef-fa78af7f3951__dff57d78-487b-f832-db06-4405c23ce37c*%
X-4234500Y-3352300D03*
D14*
%TO.P,,ff5a7362-c532-44f1-b853-bee96a9ad31b__80087a97-39f9-8382-3c43-608f98a8909d*%
X-4234500Y4834100D03*
D33*
%TO.P,,ff5a7362-c532-44f1-b853-bee96a9ad31b__b49365bb-5f19-7cf1-d443-89d61725f0a2*%
X-14394500Y4834100D03*
D34*
%TO.P,,98e39703-dbdc-42df-be6d-3f98e4aa542a.via4.4*%
%TO.N,GND*%
X27500000Y25000000D03*
%TO.P,,98e39703-dbdc-42df-be6d-3f98e4aa542a.via3.2*%
X-2500000Y10000000D03*
%TO.P,,98e39703-dbdc-42df-be6d-3f98e4aa542a.via2.4*%
X27500000Y-5000000D03*
%TO.P,,98e39703-dbdc-42df-be6d-3f98e4aa542a.via2.3*%
X12500000Y-5000000D03*
%TO.P,,98e39703-dbdc-42df-be6d-3f98e4aa542a.via1.4*%
X27500000Y-20000000D03*
%TO.P,,98e39703-dbdc-42df-be6d-3f98e4aa542a.via1.3*%
X12500000Y-20000000D03*
%TO.P,,98e39703-dbdc-42df-be6d-3f98e4aa542a.via1.2*%
X-2500000Y-20000000D03*
%TO.P,,98e39703-dbdc-42df-be6d-3f98e4aa542a.via4.3*%
X12500000Y25000000D03*
%TO.P,,98e39703-dbdc-42df-be6d-3f98e4aa542a.via.island.1*%
X-6762400Y-7309100D03*
%TO.P,,98e39703-dbdc-42df-be6d-3f98e4aa542a.via.island.0*%
X14817500Y10662000D03*
%TD*%
D35*
%TO.N,GND*%
X-10072900Y18311200D02*
X-4392900Y23991200D01*
X-10072800Y17136300D02*
X-10072800Y18311100D01*
X19191600Y9516300D02*
X21483400Y11808100D01*
X9015600Y9516300D02*
X19191600Y9516300D01*
X-7781000Y11808100D02*
X-10072800Y9516300D01*
X21483400Y11808100D02*
X-7781000Y11808100D01*
X9015500Y15275200D02*
X9085900Y15345600D01*
X9015600Y11066300D02*
X9015600Y15275300D01*
%TO.N,Net 15*%
X-17693000Y-12296700D02*
X-17692800Y-12296500D01*
X-17693000Y-6582900D02*
X-17693000Y-12296700D01*
%TO.N,Net 12*%
X-26993000Y-11952100D02*
X-26992800Y-11951900D01*
X-26993000Y-6582900D02*
X-26993000Y-11952100D01*
%TO.N,Net 1*%
X-15867800Y23991100D02*
X-10592900Y23991100D01*
%TO.N,GND*%
X3353600Y14596300D02*
X4102800Y15345600D01*
X-10072900Y14596300D02*
X3353500Y14596300D01*
%TO.N,Net 13*%
X-2105600Y-16950700D02*
X-5651200Y-13405100D01*
X-765700Y-16950700D02*
X-2105700Y-16950700D01*
X-7104200Y-11952100D02*
X-5651200Y-13405100D01*
X-12242800Y-11952100D02*
X-7104200Y-11952100D01*
%TO.N,Net 14*%
X-1963500Y-11755200D02*
X-807100Y-10598800D01*
X-5651200Y-11755200D02*
X-1963600Y-11755200D01*
X-14394500Y7734700D02*
X-10072900Y12056300D01*
X-14394500Y4834100D02*
X-14394500Y7734600D01*
X-12420900Y4834100D02*
X-4234500Y-3352300D01*
X-14394500Y4834100D02*
X-12420900Y4834100D01*
X-4037700Y-3352300D02*
X-807100Y-6582900D01*
X-4234500Y-3352300D02*
X-4037700Y-3352300D01*
X-807100Y-10598800D02*
X-806900Y-10598600D01*
X-807100Y-6582900D02*
X-807100Y-10598700D01*
%TO.N,GND*%
X-17692800Y17136300D02*
X-17692800Y23991100D01*
%TO.N,Net 14*%
X-12242900Y-3174300D02*
X-4234500Y4834100D01*
X-12242900Y-5792800D02*
X-12242900Y-3174400D01*
X-12242900Y-5792800D02*
X-12242900Y-9412100D01*
%TO.N,Net 11*%
X-17692900Y-18332300D02*
X-11814500Y-24210700D01*
X-17693000Y-13946700D02*
X-17693000Y-18332300D01*
X-17862600Y-13777100D02*
X-17693000Y-13946700D01*
X-26993000Y-13777100D02*
X-17862600Y-13777100D01*
%TO.N,Net 6*%
X-9314500Y-21864500D02*
X-6846400Y-19396300D01*
X-9314500Y-24210700D02*
X-9314500Y-21864400D01*
%TO.N,GND*%
X-25093000Y8966300D02*
X-25643000Y9516300D01*
X-25093000Y1517100D02*
X-25093000Y8966300D01*
X-25643000Y12694900D02*
X-25093000Y13244900D01*
X-25643000Y9516300D02*
X-25643000Y12694900D01*
X-21754000Y13244900D02*
X-17862600Y17136300D01*
X-25093000Y13244900D02*
X-21754000Y13244900D01*
X-17862600Y17136300D02*
X-17693000Y17136300D01*
X7261000Y15345600D02*
X5652800Y15345600D01*
X8173400Y4696400D02*
X3353400Y9516400D01*
X8173400Y-96700D02*
X8173400Y4696500D01*
X3353500Y11198300D02*
X-2584500Y17136300D01*
X3353500Y9516300D02*
X3353500Y11198300D01*
X-2584500Y17136300D02*
X-10072700Y17136300D01*
X-10072800Y17136300D02*
X-10072600Y17136500D01*
%TO.N,Net 9*%
X-2584500Y-2105400D02*
X1774300Y2253400D01*
X-2584500Y-3352300D02*
X-2584500Y-2105300D01*
%TO.N,Net 5*%
X27583400Y11708100D02*
X27683400Y11808100D01*
X27583400Y-96700D02*
X27583400Y11708100D01*
X27683400Y3300D02*
X27583400Y-96700D01*
X27683400Y11808100D02*
X27683400Y3300D01*
%TD*%
%TA.AperFunction,Conductor*%
%TO.N,GND*%
G36*
X18900000Y10143000D02*
G01*
X9936000Y10143000D01*
X9850000Y10297000D01*
X9916000Y10403000D01*
X9948000Y10468000D01*
X9952000Y10477000D01*
X9967000Y10523000D01*
X9968000Y10529000D01*
X9986000Y10604000D01*
X9991000Y10652000D01*
X9991000Y10682000D01*
X14669000Y10682000D01*
X14669000Y10642000D01*
X14679000Y10605000D01*
X14698000Y10571000D01*
X14726000Y10543000D01*
X14760000Y10523000D01*
X14798000Y10513000D01*
X14837000Y10513000D01*
X14875000Y10523000D01*
X14909000Y10543000D01*
X14937000Y10571000D01*
X14956000Y10605000D01*
X14966000Y10642000D01*
X14966000Y10682000D01*
X14956000Y10719000D01*
X14937000Y10753000D01*
X14909000Y10781000D01*
X14875000Y10801000D01*
X14837000Y10811000D01*
X14798000Y10811000D01*
X14760000Y10801000D01*
X14726000Y10781000D01*
X14698000Y10753000D01*
X14679000Y10719000D01*
X14669000Y10682000D01*
X9991000Y10682000D01*
X9991000Y11093000D01*
X10079000Y11181000D01*
X19708000Y11181000D01*
X19785000Y10996000D01*
X18955000Y10166000D01*
X18900000Y10143000D01*
G37*
%TD.AperFunction*%
%TA.AperFunction,Conductor*%
G36*
X-6748000Y-11417000D02*
G01*
X-6819000Y-11386000D01*
X-6851000Y-11376000D01*
X-6864000Y-11370000D01*
X-6885000Y-11359000D01*
X-6936000Y-11348000D01*
X-6943000Y-11346000D01*
X-6999000Y-11329000D01*
X-7033000Y-11328000D01*
X-7042000Y-11327000D01*
X-7051000Y-11325000D01*
X-7051000Y-11326000D01*
X-7059000Y-11325000D01*
X-7146000Y-11325000D01*
X-7187000Y-11324000D01*
X-7196000Y-11325000D01*
X-10950000Y-11325000D01*
X-11020000Y-11285000D01*
X-11127000Y-11100000D01*
X-11129000Y-11097000D01*
X-11229000Y-10997000D01*
X-11152000Y-10812000D01*
X-10843000Y-10812000D01*
X-10843000Y-8012000D01*
X-11528000Y-8012000D01*
X-11616000Y-7924000D01*
X-11616000Y-7290000D01*
X-6911000Y-7290000D01*
X-6911000Y-7329000D01*
X-6901000Y-7367000D01*
X-6881000Y-7400000D01*
X-6854000Y-7428000D01*
X-6820000Y-7448000D01*
X-6782000Y-7458000D01*
X-6743000Y-7458000D01*
X-6705000Y-7448000D01*
X-6671000Y-7428000D01*
X-6643000Y-7400000D01*
X-6624000Y-7367000D01*
X-6614000Y-7329000D01*
X-6614000Y-7290000D01*
X-6624000Y-7252000D01*
X-6643000Y-7218000D01*
X-6671000Y-7190000D01*
X-6705000Y-7171000D01*
X-6743000Y-7160000D01*
X-6782000Y-7160000D01*
X-6820000Y-7171000D01*
X-6854000Y-7190000D01*
X-6881000Y-7218000D01*
X-6901000Y-7252000D01*
X-6911000Y-7290000D01*
X-11616000Y-7290000D01*
X-11616000Y-6729000D01*
X-11588000Y-6669000D01*
X-11513000Y-6606000D01*
X-11508000Y-6601000D01*
X-11465000Y-6549000D01*
X-11429000Y-6502000D01*
X-11424000Y-6493000D01*
X-11382000Y-6410000D01*
X-11354000Y-6326000D01*
X-11347000Y-6261000D01*
X-11347000Y-6260000D01*
X-11343000Y-6227000D01*
X-11343000Y-5358000D01*
X-11355000Y-5259000D01*
X-11378000Y-5189000D01*
X-11380000Y-5185000D01*
X-11426000Y-5082000D01*
X-11478000Y-5021000D01*
X-11479000Y-5020000D01*
X-11508000Y-4985000D01*
X-11509000Y-4984000D01*
X-11547000Y-4953000D01*
X-11548000Y-4951000D01*
X-11589000Y-4916000D01*
X-11616000Y-4856000D01*
X-11616000Y-3467000D01*
X-11593000Y-3412000D01*
X-8390000Y-209000D01*
X-8266000Y-209000D01*
X-5158000Y-3316000D01*
X-5135000Y-3371000D01*
X-5135000Y-3789000D01*
X-5130000Y-3838000D01*
X-5115000Y-3910000D01*
X-5092000Y-3973000D01*
X-5065000Y-4033000D01*
X-5058000Y-4045000D01*
X-5016000Y-4105000D01*
X-4979000Y-4148000D01*
X-4920000Y-4207000D01*
X-4848000Y-4253000D01*
X-4778000Y-4287000D01*
X-4728000Y-4304000D01*
X-4726000Y-4304000D01*
X-4722000Y-4305000D01*
X-4629000Y-4327000D01*
X-3983000Y-4327000D01*
X-3928000Y-4350000D01*
X-1800000Y-6477000D01*
X-1777000Y-6532000D01*
X-1777000Y-7680000D01*
X-1522000Y-7680000D01*
X-1434000Y-7768000D01*
X-1434000Y-9414000D01*
X-1522000Y-9502000D01*
X-1777000Y-9502000D01*
X-1777000Y-10649000D01*
X-1800000Y-10704000D01*
X-2200000Y-11105000D01*
X-2255000Y-11128000D01*
X-4715000Y-11128000D01*
X-4775000Y-11100000D01*
X-4838000Y-11025000D01*
X-4841000Y-11022000D01*
X-4904000Y-10968000D01*
X-4966000Y-10929000D01*
X-5033000Y-10896000D01*
X-5084000Y-10879000D01*
X-5089000Y-10878000D01*
X-5162000Y-10861000D01*
X-5165000Y-10861000D01*
X-5215000Y-10855000D01*
X-6087000Y-10855000D01*
X-6137000Y-10861000D01*
X-6140000Y-10861000D01*
X-6212000Y-10878000D01*
X-6217000Y-10879000D01*
X-6219000Y-10879000D01*
X-6260000Y-10893000D01*
X-6334000Y-10926000D01*
X-6344000Y-10932000D01*
X-6410000Y-10978000D01*
X-6461000Y-11022000D01*
X-6463000Y-11024000D01*
X-6504000Y-11074000D01*
X-6506000Y-11076000D01*
X-6540000Y-11121000D01*
X-6545000Y-11130000D01*
X-6587000Y-11213000D01*
X-6604000Y-11267000D01*
X-6622000Y-11352000D01*
X-6748000Y-11417000D01*
G37*
%TD.AperFunction*%
%TA.AperFunction,Conductor*%
G36*
X32162000Y-34750000D02*
G01*
X-32162000Y-34750000D01*
X-32250000Y-34662000D01*
X-32250000Y-27022000D01*
X-1460000Y-27022000D01*
X-1460000Y-27201000D01*
X-1414000Y-27375000D01*
X-1412000Y-27380000D01*
X-1320000Y-27538000D01*
X-1193000Y-27665000D01*
X-1035000Y-27756000D01*
X-1034000Y-27757000D01*
X-855000Y-27805000D01*
X-676000Y-27805000D01*
X-495000Y-27756000D01*
X-496000Y-27756000D01*
X-339000Y-27665000D01*
X-210000Y-27537000D01*
X-209000Y-27536000D01*
X-120000Y-27380000D01*
X-119000Y-27379000D01*
X-72000Y-27201000D01*
X-72000Y-27022000D01*
X-120000Y-26842000D01*
X-211000Y-26684000D01*
X-339000Y-26556000D01*
X-497000Y-26465000D01*
X-496000Y-26465000D01*
X-676000Y-26417000D01*
X-856000Y-26417000D01*
X-1034000Y-26464000D01*
X-1035000Y-26465000D01*
X-1191000Y-26554000D01*
X-1192000Y-26555000D01*
X-1320000Y-26684000D01*
X-1412000Y-26842000D01*
X-1460000Y-27022000D01*
X-32250000Y-27022000D01*
X-32250000Y-5033000D01*
X-28593000Y-5033000D01*
X-28593000Y-8133000D01*
X-27708000Y-8133000D01*
X-27620000Y-8221000D01*
X-27620000Y-10865000D01*
X-27686000Y-10947000D01*
X-27761000Y-10963000D01*
X-27822000Y-10987000D01*
X-27880000Y-11013000D01*
X-27885000Y-11016000D01*
X-27956000Y-11062000D01*
X-27960000Y-11065000D01*
X-28028000Y-11127000D01*
X-28068000Y-11176000D01*
X-28103000Y-11222000D01*
X-28107000Y-11230000D01*
X-28151000Y-11316000D01*
X-28172000Y-11388000D01*
X-28188000Y-11456000D01*
X-28187000Y-11456000D01*
X-28193000Y-11531000D01*
X-28193000Y-12376000D01*
X-28187000Y-12450000D01*
X-28172000Y-12516000D01*
X-28172000Y-12518000D01*
X-28151000Y-12588000D01*
X-28111000Y-12665000D01*
X-28064000Y-12736000D01*
X-28002000Y-12804000D01*
X-27998000Y-12915000D01*
X-28067000Y-13000000D01*
X-28103000Y-13047000D01*
X-28107000Y-13055000D01*
X-28151000Y-13141000D01*
X-28172000Y-13213000D01*
X-28188000Y-13281000D01*
X-28187000Y-13281000D01*
X-28193000Y-13356000D01*
X-28193000Y-14201000D01*
X-28187000Y-14275000D01*
X-28172000Y-14341000D01*
X-28172000Y-14343000D01*
X-28151000Y-14413000D01*
X-28110000Y-14492000D01*
X-28064000Y-14561000D01*
X-28019000Y-14611000D01*
X-27964000Y-14661000D01*
X-27895000Y-14707000D01*
X-27813000Y-14749000D01*
X-27741000Y-14770000D01*
X-27734000Y-14772000D01*
X-27733000Y-14773000D01*
X-27681000Y-14784000D01*
X-27677000Y-14784000D01*
X-27673000Y-14785000D01*
X-27603000Y-14790000D01*
X-26383000Y-14790000D01*
X-26313000Y-14785000D01*
X-26309000Y-14784000D01*
X-26305000Y-14784000D01*
X-26255000Y-14773000D01*
X-26253000Y-14772000D01*
X-26246000Y-14770000D01*
X-26177000Y-14749000D01*
X-26097000Y-14712000D01*
X-26085000Y-14705000D01*
X-26024000Y-14661000D01*
X-26022000Y-14659000D01*
X-25967000Y-14610000D01*
X-25922000Y-14561000D01*
X-25876000Y-14492000D01*
X-25854000Y-14449000D01*
X-25782000Y-14404000D01*
X-18716000Y-14404000D01*
X-18637000Y-14462000D01*
X-18619000Y-14518000D01*
X-18582000Y-14576000D01*
X-18581000Y-14577000D01*
X-18556000Y-14617000D01*
X-18553000Y-14621000D01*
X-18506000Y-14677000D01*
X-18498000Y-14685000D01*
X-18439000Y-14735000D01*
X-18357000Y-14787000D01*
X-18320000Y-14854000D01*
X-18320000Y-18368000D01*
X-18322000Y-18399000D01*
X-18306000Y-18456000D01*
X-18304000Y-18465000D01*
X-18296000Y-18521000D01*
X-18282000Y-18553000D01*
X-18277000Y-18565000D01*
X-18272000Y-18588000D01*
X-18268000Y-18596000D01*
X-18241000Y-18638000D01*
X-18238000Y-18645000D01*
X-18217000Y-18687000D01*
X-18213000Y-18692000D01*
X-18187000Y-18719000D01*
X-18176000Y-18734000D01*
X-18171000Y-18742000D01*
X-18101000Y-18812000D01*
X-18077000Y-18839000D01*
X-18073000Y-18841000D01*
X-18064000Y-18849000D01*
X-12987000Y-23925000D01*
X-12964000Y-23980000D01*
X-12964000Y-25511000D01*
X-10664000Y-25511000D01*
X-10626000Y-25473000D01*
X-10502000Y-25473000D01*
X-10464000Y-25511000D01*
X-8164000Y-25511000D01*
X-8164000Y-22911000D01*
X-8599000Y-22911000D01*
X-8687000Y-22823000D01*
X-8687000Y-22157000D01*
X-8664000Y-22102000D01*
X-7235000Y-20671000D01*
X-7156000Y-20651000D01*
X-7015000Y-20689000D01*
X-6679000Y-20689000D01*
X-6346000Y-20600000D01*
X-6347000Y-20600000D01*
X-6051000Y-20430000D01*
X-5812000Y-20190000D01*
X-5811000Y-20189000D01*
X-5689505Y-19980000D01*
X-2649000Y-19980000D01*
X-2649000Y-20020000D01*
X-2639000Y-20057000D01*
X-2619000Y-20091000D01*
X-2591000Y-20119000D01*
X-2557000Y-20139000D01*
X-2520000Y-20149000D01*
X-2480000Y-20149000D01*
X-2443000Y-20139000D01*
X-2409000Y-20119000D01*
X-2381000Y-20091000D01*
X-2361000Y-20057000D01*
X-2351000Y-20020000D01*
X-2351000Y-19980000D01*
X12351000Y-19980000D01*
X12351000Y-20020000D01*
X12361000Y-20057000D01*
X12381000Y-20091000D01*
X12409000Y-20119000D01*
X12443000Y-20139000D01*
X12480000Y-20149000D01*
X12520000Y-20149000D01*
X12557000Y-20139000D01*
X12591000Y-20119000D01*
X12619000Y-20091000D01*
X12639000Y-20057000D01*
X12649000Y-20020000D01*
X12649000Y-19980000D01*
X27351000Y-19980000D01*
X27351000Y-20020000D01*
X27361000Y-20057000D01*
X27381000Y-20091000D01*
X27409000Y-20119000D01*
X27443000Y-20139000D01*
X27480000Y-20149000D01*
X27520000Y-20149000D01*
X27557000Y-20139000D01*
X27591000Y-20119000D01*
X27619000Y-20091000D01*
X27639000Y-20057000D01*
X27649000Y-20020000D01*
X27649000Y-19980000D01*
X27639000Y-19943000D01*
X27619000Y-19909000D01*
X27591000Y-19881000D01*
X27557000Y-19861000D01*
X27520000Y-19851000D01*
X27480000Y-19851000D01*
X27443000Y-19861000D01*
X27409000Y-19881000D01*
X27381000Y-19909000D01*
X27361000Y-19943000D01*
X27351000Y-19980000D01*
X12649000Y-19980000D01*
X12639000Y-19943000D01*
X12619000Y-19909000D01*
X12591000Y-19881000D01*
X12557000Y-19861000D01*
X12520000Y-19851000D01*
X12480000Y-19851000D01*
X12443000Y-19861000D01*
X12409000Y-19881000D01*
X12381000Y-19909000D01*
X12361000Y-19943000D01*
X12351000Y-19980000D01*
X-2351000Y-19980000D01*
X-2361000Y-19943000D01*
X-2381000Y-19909000D01*
X-2409000Y-19881000D01*
X-2443000Y-19861000D01*
X-2480000Y-19851000D01*
X-2520000Y-19851000D01*
X-2557000Y-19861000D01*
X-2591000Y-19881000D01*
X-2619000Y-19909000D01*
X-2639000Y-19943000D01*
X-2649000Y-19980000D01*
X-5689505Y-19980000D01*
X-5643000Y-19900000D01*
X-5642000Y-19897000D01*
X-5553000Y-19564000D01*
X-5553000Y-19229000D01*
X-5642000Y-18896000D01*
X-5642000Y-18895000D01*
X-5811000Y-18603000D01*
X-6053000Y-18361000D01*
X-6343000Y-18193000D01*
X-6346000Y-18192000D01*
X-6679000Y-18103000D01*
X-7015000Y-18103000D01*
X-7348000Y-18192000D01*
X-7641000Y-18363000D01*
X-7881000Y-18602000D01*
X-8051000Y-18895000D01*
X-8051000Y-18896000D01*
X-8140000Y-19229000D01*
X-8140000Y-19565000D01*
X-8102000Y-19708000D01*
X-8123000Y-19786000D01*
X-9767000Y-21431000D01*
X-9771000Y-21434000D01*
X-9809000Y-21468000D01*
X-9810000Y-21469000D01*
X-9836000Y-21516000D01*
X-9840000Y-21524000D01*
X-9877000Y-21576000D01*
X-9882000Y-21584000D01*
X-9890000Y-21609000D01*
X-9895000Y-21621000D01*
X-9907000Y-21643000D01*
X-9916000Y-21689000D01*
X-9918000Y-21697000D01*
X-9936000Y-21754000D01*
X-9937000Y-21762000D01*
X-9938000Y-21794000D01*
X-9939000Y-21803000D01*
X-9941000Y-21812000D01*
X-9940000Y-21812000D01*
X-9941000Y-21820000D01*
X-9941000Y-21910000D01*
X-9942000Y-21947000D01*
X-9941000Y-21956000D01*
X-9941000Y-22823000D01*
X-10029000Y-22911000D01*
X-10464000Y-22911000D01*
X-10502000Y-22949000D01*
X-10626000Y-22949000D01*
X-10664000Y-22911000D01*
X-12194000Y-22911000D01*
X-12249000Y-22888000D01*
X-17043000Y-18095000D01*
X-17066000Y-18040000D01*
X-17066000Y-16847000D01*
X-7243000Y-16847000D01*
X-7243000Y-16947000D01*
X-7215000Y-17050000D01*
X-7163000Y-17141000D01*
X-7091000Y-17213000D01*
X-7000000Y-17265000D01*
X-6897000Y-17293000D01*
X-6797000Y-17293000D01*
X-6691000Y-17265000D01*
X-6692000Y-17265000D01*
X-6604000Y-17215000D01*
X-6530000Y-17141000D01*
X-6478000Y-17050000D01*
X-6450000Y-16947000D01*
X-6450000Y-16847000D01*
X-6478000Y-16742000D01*
X-6528000Y-16654000D01*
X-6604000Y-16578000D01*
X-6692000Y-16528000D01*
X-6691000Y-16528000D01*
X-6796000Y-16500000D01*
X-6897000Y-16500000D01*
X-7000000Y-16528000D01*
X-7091000Y-16580000D01*
X-7165000Y-16654000D01*
X-7215000Y-16742000D01*
X-7243000Y-16847000D01*
X-17066000Y-16847000D01*
X-17066000Y-14854000D01*
X-17029000Y-14787000D01*
X-16948000Y-14736000D01*
X-16946000Y-14734000D01*
X-16888000Y-14685000D01*
X-16880000Y-14677000D01*
X-16833000Y-14621000D01*
X-16832000Y-14620000D01*
X-16805000Y-14577000D01*
X-16804000Y-14576000D01*
X-16767000Y-14518000D01*
X-16729000Y-14401000D01*
X-16722000Y-14336000D01*
X-16722000Y-14335000D01*
X-16718000Y-14306000D01*
X-16718000Y-13588000D01*
X-16722000Y-13554000D01*
X-16722000Y-13553000D01*
X-16728000Y-13490000D01*
X-16730000Y-13482000D01*
X-16769000Y-13379000D01*
X-16806000Y-13313000D01*
X-16841000Y-13263000D01*
X-16869000Y-13231000D01*
X-16912000Y-13188000D01*
X-16917000Y-13071000D01*
X-16830000Y-12967000D01*
X-16805000Y-12927000D01*
X-16804000Y-12926000D01*
X-16767000Y-12868000D01*
X-16729000Y-12751000D01*
X-16722000Y-12686000D01*
X-16722000Y-12685000D01*
X-16718000Y-12652000D01*
X-16718000Y-11938000D01*
X-16722000Y-11904000D01*
X-16722000Y-11903000D01*
X-16728000Y-11840000D01*
X-16729000Y-11833000D01*
X-16769000Y-11729000D01*
X-16806000Y-11663000D01*
X-16841000Y-11613000D01*
X-16869000Y-11581000D01*
X-16933000Y-11517000D01*
X-17029000Y-11455000D01*
X-17066000Y-11388000D01*
X-17066000Y-8221000D01*
X-16978000Y-8133000D01*
X-15843000Y-8133000D01*
X-15843000Y-5033000D01*
X-19543000Y-5033000D01*
X-19543000Y-8133000D01*
X-18408000Y-8133000D01*
X-18320000Y-8221000D01*
X-18320000Y-11388000D01*
X-18357000Y-11455000D01*
X-18453000Y-11517000D01*
X-18517000Y-11581000D01*
X-18545000Y-11613000D01*
X-18580000Y-11663000D01*
X-18617000Y-11729000D01*
X-18657000Y-11833000D01*
X-18658000Y-11840000D01*
X-18664000Y-11904000D01*
X-18664000Y-11907000D01*
X-18668000Y-11938000D01*
X-18668000Y-12661000D01*
X-18664000Y-12690000D01*
X-18657000Y-12752000D01*
X-18619000Y-12868000D01*
X-18618000Y-12872000D01*
X-18539000Y-12994000D01*
X-18624000Y-13150000D01*
X-25780000Y-13150000D01*
X-25851000Y-13107000D01*
X-25879000Y-13055000D01*
X-25880000Y-13053000D01*
X-25919000Y-13000000D01*
X-25922000Y-12996000D01*
X-25987000Y-12918000D01*
X-25985000Y-12807000D01*
X-25922000Y-12736000D01*
X-25875000Y-12665000D01*
X-25835000Y-12588000D01*
X-25814000Y-12518000D01*
X-25814000Y-12516000D01*
X-25799000Y-12450000D01*
X-25793000Y-12376000D01*
X-25793000Y-11531000D01*
X-25799000Y-11456000D01*
X-25798000Y-11456000D01*
X-25814000Y-11388000D01*
X-25835000Y-11316000D01*
X-25878000Y-11230000D01*
X-25879000Y-11230000D01*
X-25881000Y-11226000D01*
X-25918000Y-11176000D01*
X-25958000Y-11127000D01*
X-26041000Y-11053000D01*
X-26098000Y-11019000D01*
X-26160000Y-10988000D01*
X-26218000Y-10966000D01*
X-26228000Y-10963000D01*
X-26300000Y-10947000D01*
X-26366000Y-10865000D01*
X-26366000Y-8221000D01*
X-26278000Y-8133000D01*
X-25393000Y-8133000D01*
X-25393000Y-5033000D01*
X-28593000Y-5033000D01*
X-32250000Y-5033000D01*
X-32250000Y-2365000D01*
X-26936000Y-2365000D01*
X-26936000Y-2700000D01*
X-26847000Y-3032000D01*
X-26677000Y-3328000D01*
X-26438000Y-3567000D01*
X-26142000Y-3737000D01*
X-25810000Y-3826000D01*
X-25476000Y-3826000D01*
X-25143000Y-3737000D01*
X-25144000Y-3737000D01*
X-24848000Y-3567000D01*
X-24609000Y-3328000D01*
X-24439000Y-3032000D01*
X-24350000Y-2700000D01*
X-24350000Y-2365000D01*
X-19936000Y-2365000D01*
X-19936000Y-2700000D01*
X-19847000Y-3032000D01*
X-19677000Y-3328000D01*
X-19438000Y-3567000D01*
X-19142000Y-3737000D01*
X-18810000Y-3826000D01*
X-18476000Y-3826000D01*
X-18143000Y-3737000D01*
X-18144000Y-3737000D01*
X-17848000Y-3567000D01*
X-17609000Y-3328000D01*
X-17439000Y-3032000D01*
X-17350000Y-2700000D01*
X-17350000Y-2365000D01*
X-17439000Y-2033000D01*
X-17609000Y-1738000D01*
X-17848000Y-1499000D01*
X-18144000Y-1329000D01*
X-18143000Y-1329000D01*
X-18476000Y-1240000D01*
X-18810000Y-1240000D01*
X-19142000Y-1329000D01*
X-19438000Y-1499000D01*
X-19677000Y-1738000D01*
X-19847000Y-2033000D01*
X-19936000Y-2365000D01*
X-24350000Y-2365000D01*
X-24439000Y-2033000D01*
X-24609000Y-1738000D01*
X-24848000Y-1499000D01*
X-25144000Y-1329000D01*
X-25143000Y-1329000D01*
X-25476000Y-1240000D01*
X-25810000Y-1240000D01*
X-26142000Y-1329000D01*
X-26438000Y-1499000D01*
X-26677000Y-1738000D01*
X-26847000Y-2033000D01*
X-26936000Y-2365000D01*
X-32250000Y-2365000D01*
X-32250000Y3067000D01*
X-29293000Y3067000D01*
X-29293000Y-33000D01*
X-26293000Y-33000D01*
X-26293000Y3067000D01*
X-29293000Y3067000D01*
X-32250000Y3067000D01*
X-32250000Y6734000D01*
X-16294000Y6734000D01*
X-16294000Y2934000D01*
X-12494000Y2934000D01*
X-12494000Y3757000D01*
X-12309000Y3834000D01*
X-9277000Y803000D01*
X-9277000Y679000D01*
X-11608000Y-1652000D01*
X-11793000Y-1575000D01*
X-11793000Y67000D01*
X-15393000Y67000D01*
X-15393000Y-3633000D01*
X-12958000Y-3633000D01*
X-12870000Y-3721000D01*
X-12870000Y-4854000D01*
X-12893000Y-4909000D01*
X-12924000Y-4940000D01*
X-12976000Y-4983000D01*
X-12981000Y-4988000D01*
X-13021000Y-5035000D01*
X-13066000Y-5100000D01*
X-13073000Y-5112000D01*
X-13105000Y-5184000D01*
X-13119000Y-5227000D01*
X-13120000Y-5232000D01*
X-13137000Y-5304000D01*
X-13137000Y-5307000D01*
X-13143000Y-5357000D01*
X-13143000Y-6229000D01*
X-13137000Y-6282000D01*
X-13120000Y-6355000D01*
X-13119000Y-6362000D01*
X-13104000Y-6407000D01*
X-13102000Y-6411000D01*
X-13068000Y-6481000D01*
X-13030000Y-6540000D01*
X-12981000Y-6598000D01*
X-12973000Y-6606000D01*
X-12898000Y-6669000D01*
X-12870000Y-6729000D01*
X-12870000Y-7924000D01*
X-12958000Y-8012000D01*
X-13643000Y-8012000D01*
X-13643000Y-10812000D01*
X-13334000Y-10812000D01*
X-13257000Y-10997000D01*
X-13357000Y-11097000D01*
X-13359000Y-11100000D01*
X-13540000Y-11417000D01*
X-13635000Y-11772000D01*
X-13635000Y-12133000D01*
X-13539000Y-12491000D01*
X-13357000Y-12807000D01*
X-13099000Y-13065000D01*
X-12780000Y-13249000D01*
X-12779000Y-13250000D01*
X-12424000Y-13344000D01*
X-12061000Y-13344000D01*
X-11705000Y-13250000D01*
X-11704000Y-13249000D01*
X-11388000Y-13067000D01*
X-11130000Y-12809000D01*
X-11018000Y-12619000D01*
X-10949000Y-12579000D01*
X-7397000Y-12579000D01*
X-7342000Y-12602000D01*
X-6649000Y-13294000D01*
X-6626000Y-13349000D01*
X-6626000Y-13797000D01*
X-6625000Y-13805000D01*
X-6608000Y-13881000D01*
X-6607000Y-13884000D01*
X-6588000Y-13943000D01*
X-6544000Y-14039000D01*
X-6491000Y-14102000D01*
X-6490000Y-14103000D01*
X-6461000Y-14138000D01*
X-6459000Y-14140000D01*
X-6423000Y-14170000D01*
X-6422000Y-14171000D01*
X-6363000Y-14222000D01*
X-6361000Y-14223000D01*
X-6264000Y-14267000D01*
X-6205000Y-14286000D01*
X-6123000Y-14304000D01*
X-6117000Y-14305000D01*
X-5671000Y-14305000D01*
X-5616000Y-14328000D01*
X-2689000Y-17254000D01*
X-2666000Y-17309000D01*
X-2666000Y-18851000D01*
X1134000Y-18851000D01*
X1134000Y-15051000D01*
X-2666000Y-15051000D01*
X-2666000Y-15240000D01*
X-2851000Y-15317000D01*
X-4653000Y-13516000D01*
X-4676000Y-13461000D01*
X-4676000Y-13044000D01*
X-4682000Y-12994000D01*
X-4682000Y-12991000D01*
X-4699000Y-12918000D01*
X-4699000Y-12915000D01*
X-4715000Y-12866000D01*
X-4717000Y-12862000D01*
X-4749000Y-12796000D01*
X-4786000Y-12738000D01*
X-4873000Y-12636000D01*
X-4873000Y-12525000D01*
X-4775000Y-12410000D01*
X-4715000Y-12382000D01*
X-1943000Y-12382000D01*
X-1898000Y-12384000D01*
X-1840000Y-12368000D01*
X-1830000Y-12366000D01*
X-1773000Y-12358000D01*
X-1750000Y-12346000D01*
X-1734000Y-12340000D01*
X-1704000Y-12332000D01*
X-1658000Y-12303000D01*
X-1650000Y-12298000D01*
X-1599000Y-12273000D01*
X-1574000Y-12248000D01*
X-1557000Y-12235000D01*
X-1553000Y-12233000D01*
X-1144000Y-11824000D01*
X14260000Y-11824000D01*
X14260000Y-12771000D01*
X14508000Y-13696000D01*
X14509000Y-13699000D01*
X14983000Y-14520000D01*
X15660000Y-15197000D01*
X16481000Y-15671000D01*
X16484000Y-15672000D01*
X17409000Y-15920000D01*
X18358000Y-15920000D01*
X19283000Y-15672000D01*
X19286000Y-15671000D01*
X20107000Y-15197000D01*
X20108000Y-15196000D01*
X20782000Y-14521000D01*
X20783000Y-14520000D01*
X21258000Y-13699000D01*
X21259000Y-13696000D01*
X21506000Y-12771000D01*
X21506000Y-11824000D01*
X21259000Y-10897000D01*
X21258000Y-10894000D01*
X20783000Y-10073000D01*
X20107000Y-9397000D01*
X19286000Y-8922000D01*
X19283000Y-8921000D01*
X18358000Y-8674000D01*
X17409000Y-8674000D01*
X16484000Y-8921000D01*
X16481000Y-8922000D01*
X15660000Y-9397000D01*
X15659000Y-9398000D01*
X14984000Y-10072000D01*
X14983000Y-10073000D01*
X14508000Y-10897000D01*
X14260000Y-11824000D01*
X-1144000Y-11824000D01*
X-1039000Y-11719000D01*
X-984000Y-11696000D01*
X1763000Y-11696000D01*
X1763000Y-9502000D01*
X-92000Y-9502000D01*
X-180000Y-9414000D01*
X-180000Y-7768000D01*
X-92000Y-7680000D01*
X1763000Y-7680000D01*
X1763000Y-5486000D01*
X-984000Y-5486000D01*
X-1039000Y-5463000D01*
X-1522000Y-4980000D01*
X12351000Y-4980000D01*
X12351000Y-5020000D01*
X12361000Y-5057000D01*
X12381000Y-5091000D01*
X12409000Y-5119000D01*
X12443000Y-5139000D01*
X12480000Y-5149000D01*
X12520000Y-5149000D01*
X12557000Y-5139000D01*
X12591000Y-5119000D01*
X12619000Y-5091000D01*
X12639000Y-5057000D01*
X12649000Y-5020000D01*
X12649000Y-4980000D01*
X27351000Y-4980000D01*
X27351000Y-5020000D01*
X27361000Y-5057000D01*
X27381000Y-5091000D01*
X27409000Y-5119000D01*
X27443000Y-5139000D01*
X27480000Y-5149000D01*
X27520000Y-5149000D01*
X27557000Y-5139000D01*
X27591000Y-5119000D01*
X27619000Y-5091000D01*
X27639000Y-5057000D01*
X27649000Y-5020000D01*
X27649000Y-4980000D01*
X27639000Y-4943000D01*
X27619000Y-4909000D01*
X27591000Y-4881000D01*
X27557000Y-4861000D01*
X27520000Y-4851000D01*
X27480000Y-4851000D01*
X27443000Y-4861000D01*
X27409000Y-4881000D01*
X27381000Y-4909000D01*
X27361000Y-4943000D01*
X27351000Y-4980000D01*
X12649000Y-4980000D01*
X12639000Y-4943000D01*
X12619000Y-4909000D01*
X12591000Y-4881000D01*
X12557000Y-4861000D01*
X12520000Y-4851000D01*
X12480000Y-4851000D01*
X12443000Y-4861000D01*
X12409000Y-4881000D01*
X12381000Y-4909000D01*
X12361000Y-4943000D01*
X12351000Y-4980000D01*
X-1522000Y-4980000D01*
X-2061000Y-4441000D01*
X-2043000Y-4296000D01*
X-1975000Y-4255000D01*
X-1899000Y-4207000D01*
X-1840000Y-4148000D01*
X-1803000Y-4105000D01*
X-1761000Y-4045000D01*
X-1754000Y-4033000D01*
X-1727000Y-3973000D01*
X-1704000Y-3910000D01*
X-1690000Y-3845000D01*
X-1684000Y-3789000D01*
X-1684000Y-2916000D01*
X-1690000Y-2866000D01*
X-1690000Y-2863000D01*
X-1707000Y-2790000D01*
X-1708000Y-2785000D01*
X-1723000Y-2738000D01*
X-1725000Y-2734000D01*
X-1757000Y-2668000D01*
X-1796000Y-2606000D01*
X-1846000Y-2547000D01*
X-1930000Y-2477000D01*
X-1936000Y-2345000D01*
X408276Y0D01*
X7430000Y0D01*
X7430000Y-194000D01*
X7479000Y-380000D01*
X7482000Y-388000D01*
X7577000Y-552000D01*
X7718000Y-693000D01*
X7882000Y-788000D01*
X7885000Y-789000D01*
X8075000Y-840000D01*
X8270000Y-840000D01*
X8460000Y-790000D01*
X8461000Y-789000D01*
X8629000Y-693000D01*
X8630000Y-692000D01*
X8768000Y-553000D01*
X8769000Y-552000D01*
X8865000Y-387000D01*
X8917000Y-193000D01*
X8917000Y-1000D01*
X8872854Y162000D01*
X25596000Y162000D01*
X25596000Y-355000D01*
X25733000Y-865000D01*
X25994000Y-1318000D01*
X26364000Y-1688000D01*
X26812000Y-1947000D01*
X26815000Y-1948000D01*
X27325000Y-2084000D01*
X27842000Y-2084000D01*
X28352000Y-1948000D01*
X28351000Y-1948000D01*
X28803000Y-1688000D01*
X28804000Y-1687000D01*
X29173000Y-1317000D01*
X29174000Y-1316000D01*
X29433000Y-868000D01*
X29434000Y-865000D01*
X29571000Y-355000D01*
X29571000Y162000D01*
X29434000Y672000D01*
X29433000Y675000D01*
X29174000Y1122000D01*
X29173000Y1123000D01*
X28804000Y1493000D01*
X28803000Y1494000D01*
X28350000Y1755000D01*
X28310000Y1825000D01*
X28310000Y9960000D01*
X28398000Y10048000D01*
X29338000Y10048000D01*
X29338000Y13568000D01*
X26028000Y13568000D01*
X26028000Y10048000D01*
X26868000Y10048000D01*
X26956000Y9960000D01*
X26956000Y1856000D01*
X26894000Y1775000D01*
X26816000Y1755000D01*
X26815000Y1754000D01*
X26364000Y1494000D01*
X25994000Y1124000D01*
X25733000Y671000D01*
X25596000Y162000D01*
X8872854Y162000D01*
X8865000Y191000D01*
X8767000Y361000D01*
X8631000Y497000D01*
X8461000Y595000D01*
X8462000Y595000D01*
X8269000Y647000D01*
X8079000Y647000D01*
X7885000Y595000D01*
X7882000Y594000D01*
X7718000Y499000D01*
X7717000Y498000D01*
X7578000Y360000D01*
X7577000Y359000D01*
X7481000Y191000D01*
X7480000Y190000D01*
X7430000Y0D01*
X408276Y0D01*
X1304000Y896000D01*
X1382000Y917000D01*
X1593000Y861000D01*
X1955000Y861000D01*
X2314000Y957000D01*
X2313000Y957000D01*
X2629000Y1138000D01*
X2630000Y1139000D01*
X2887000Y1398000D01*
X3071000Y1714000D01*
X3167000Y2071000D01*
X3167000Y2434000D01*
X3071000Y2793000D01*
X3070000Y2796000D01*
X2889000Y3108000D01*
X2629000Y3368000D01*
X2317000Y3549000D01*
X2314000Y3550000D01*
X1955000Y3646000D01*
X1594000Y3646000D01*
X1236000Y3550000D01*
X1233000Y3549000D01*
X920000Y3368000D01*
X659000Y3107000D01*
X478000Y2792000D01*
X382000Y2434000D01*
X382000Y2071000D01*
X438000Y1862000D01*
X417000Y1784000D01*
X-3028000Y-1662000D01*
X-3031000Y-1665000D01*
X-3078000Y-1708000D01*
X-3109000Y-1763000D01*
X-3114000Y-1772000D01*
X-3149000Y-1819000D01*
X-3161000Y-1855000D01*
X-3167000Y-1868000D01*
X-3178000Y-1888000D01*
X-3188000Y-1937000D01*
X-3190000Y-1944000D01*
X-3207000Y-2000000D01*
X-3208000Y-2034000D01*
X-3209000Y-2043000D01*
X-3211000Y-2052000D01*
X-3210000Y-2052000D01*
X-3211000Y-2060000D01*
X-3211000Y-2151000D01*
X-3212000Y-2188000D01*
X-3211000Y-2197000D01*
X-3211000Y-2415000D01*
X-3239000Y-2476000D01*
X-3356000Y-2573000D01*
X-3466000Y-2573000D01*
X-3562000Y-2490000D01*
X-3624000Y-2451000D01*
X-3691000Y-2418000D01*
X-3741000Y-2401000D01*
X-3747000Y-2400000D01*
X-3822000Y-2382000D01*
X-3821000Y-2382000D01*
X-3875000Y-2377000D01*
X-4290000Y-2377000D01*
X-4345000Y-2354000D01*
X-7378000Y679000D01*
X-7378000Y803000D01*
X-5869327Y2313000D01*
X-1212000Y2313000D01*
X-1212000Y2193000D01*
X-1183000Y2083000D01*
X-1124000Y1980000D01*
X-1041000Y1897000D01*
X-1038000Y1895000D01*
X-943000Y1840000D01*
X-938000Y1838000D01*
X-823000Y1807000D01*
X-709000Y1807000D01*
X-594000Y1838000D01*
X-589000Y1840000D01*
X-494000Y1895000D01*
X-491000Y1897000D01*
X-408000Y1980000D01*
X-349000Y2083000D01*
X-320000Y2193000D01*
X-320000Y2313000D01*
X-349000Y2422000D01*
X-353000Y2432000D01*
X-406000Y2524000D01*
X-493000Y2611000D01*
X-592000Y2668000D01*
X-591000Y2668000D01*
X-709000Y2700000D01*
X-823000Y2700000D01*
X-940000Y2668000D01*
X-1039000Y2611000D01*
X-1126000Y2524000D01*
X-1179000Y2432000D01*
X-1183000Y2422000D01*
X-1212000Y2313000D01*
X-5869327Y2313000D01*
X-5105000Y3078000D01*
X-5017000Y3096000D01*
X-4966000Y3076000D01*
X-4480000Y2946000D01*
X-3989000Y2946000D01*
X-3504000Y3076000D01*
X-3505000Y3076000D01*
X-3074000Y3324000D01*
X-2724000Y3675000D01*
X-2723000Y3676000D01*
X-2477000Y4100000D01*
X-2476000Y4103000D01*
X-2346000Y4588000D01*
X-2346000Y5080000D01*
X-2476000Y5567000D01*
X-2723000Y5992000D01*
X-2724000Y5993000D01*
X-3075000Y6345000D01*
X-3076000Y6346000D01*
X-3505000Y6593000D01*
X-3504000Y6593000D01*
X-3989000Y6722000D01*
X-4480000Y6722000D01*
X-4964000Y6593000D01*
X-5393000Y6346000D01*
X-5394000Y6345000D01*
X-5745000Y5993000D01*
X-5746000Y5992000D01*
X-5993000Y5567000D01*
X-6123000Y5080000D01*
X-6123000Y4588000D01*
X-5991000Y4094000D01*
X-5974000Y4050000D01*
X-5993000Y3964000D01*
X-8266000Y1690000D01*
X-8390000Y1690000D01*
X-11981000Y5281000D01*
X-12024000Y5328000D01*
X-12079000Y5359000D01*
X-12088000Y5364000D01*
X-12137000Y5400000D01*
X-12136000Y5400000D01*
X-12168000Y5410000D01*
X-12181000Y5416000D01*
X-12202000Y5427000D01*
X-12253000Y5438000D01*
X-12260000Y5440000D01*
X-12316000Y5457000D01*
X-12409000Y5459000D01*
X-12494000Y5547000D01*
X-12494000Y6734000D01*
X-13679000Y6734000D01*
X-13767000Y6822000D01*
X-13767000Y7443000D01*
X-13744000Y7498000D01*
X-11513000Y9729000D01*
X-11328000Y9652000D01*
X-11328000Y9353000D01*
X-11242000Y9030000D01*
X-11078000Y8746000D01*
X-10844000Y8512000D01*
X-10841000Y8510000D01*
X-10558000Y8347000D01*
X-10557000Y8346000D01*
X-10236000Y8261000D01*
X-9909000Y8261000D01*
X-9589000Y8346000D01*
X-9584000Y8348000D01*
X-9305000Y8510000D01*
X-9302000Y8512000D01*
X-9069000Y8744000D01*
X-8904000Y9030000D01*
X-8817000Y9351000D01*
X-8817000Y9680000D01*
X-8848000Y9796000D01*
X-8828000Y9874000D01*
X-8682000Y10020000D01*
X-2649000Y10020000D01*
X-2649000Y9980000D01*
X-2639000Y9943000D01*
X-2619000Y9909000D01*
X-2591000Y9881000D01*
X-2557000Y9861000D01*
X-2520000Y9851000D01*
X-2480000Y9851000D01*
X-2443000Y9861000D01*
X-2409000Y9881000D01*
X-2381000Y9909000D01*
X-2361000Y9943000D01*
X-2351000Y9980000D01*
X-2351000Y10020000D01*
X-2361000Y10057000D01*
X-2381000Y10091000D01*
X-2409000Y10119000D01*
X-2443000Y10139000D01*
X-2480000Y10149000D01*
X-2520000Y10149000D01*
X-2557000Y10139000D01*
X-2591000Y10119000D01*
X-2619000Y10091000D01*
X-2639000Y10057000D01*
X-2649000Y10020000D01*
X-8682000Y10020000D01*
X-7544000Y11158000D01*
X-7489000Y11181000D01*
X7953000Y11181000D01*
X8041000Y11093000D01*
X8041000Y10622000D01*
X8063000Y10529000D01*
X8064000Y10525000D01*
X8064000Y10523000D01*
X8079000Y10477000D01*
X8081000Y10473000D01*
X8115000Y10403000D01*
X8160000Y10333000D01*
X8158000Y10242000D01*
X8117000Y10184000D01*
X8110000Y10172000D01*
X8081000Y10107000D01*
X8080000Y10104000D01*
X8060000Y10049000D01*
X8041000Y9952000D01*
X8041000Y9075000D01*
X8042000Y9069000D01*
X8063000Y8979000D01*
X8064000Y8975000D01*
X8064000Y8973000D01*
X8079000Y8927000D01*
X8081000Y8923000D01*
X8115000Y8853000D01*
X8151000Y8796000D01*
X8153000Y8794000D01*
X8202000Y8736000D01*
X8210000Y8728000D01*
X8267000Y8680000D01*
X8338000Y8635000D01*
X8400000Y8608000D01*
X8402000Y8607000D01*
X8458000Y8586000D01*
X8524000Y8572000D01*
X8526000Y8572000D01*
X8528000Y8571000D01*
X8579000Y8566000D01*
X9450000Y8566000D01*
X9504000Y8571000D01*
X9578000Y8589000D01*
X9584000Y8590000D01*
X9633000Y8606000D01*
X9634000Y8607000D01*
X9701000Y8640000D01*
X9761000Y8677000D01*
X9763000Y8679000D01*
X9821000Y8728000D01*
X9829000Y8736000D01*
X9878000Y8794000D01*
X9880000Y8796000D01*
X9915000Y8852000D01*
X9982000Y8889000D01*
X19212000Y8889000D01*
X19257000Y8887000D01*
X19315000Y8903000D01*
X19325000Y8905000D01*
X19382000Y8913000D01*
X19405000Y8925000D01*
X19421000Y8931000D01*
X19451000Y8939000D01*
X19497000Y8968000D01*
X19505000Y8973000D01*
X19556000Y8998000D01*
X19581000Y9023000D01*
X19598000Y9036000D01*
X19602000Y9038000D01*
X20589000Y10025000D01*
X20644000Y10048000D01*
X23138000Y10048000D01*
X23138000Y13568000D01*
X19828000Y13568000D01*
X19828000Y12523000D01*
X19740000Y12435000D01*
X9731000Y12435000D01*
X9643000Y12523000D01*
X9643000Y14100000D01*
X9688000Y14172000D01*
X9732000Y14194000D01*
X9733000Y14195000D01*
X9789000Y14222000D01*
X9849000Y14260000D01*
X9923000Y14321000D01*
X9982000Y14392000D01*
X10022000Y14455000D01*
X10048000Y14508000D01*
X10074000Y14574000D01*
X10097000Y14681000D01*
X10098000Y14689000D01*
X10098000Y16006000D01*
X10075000Y16112000D01*
X10074000Y16117000D01*
X10050000Y16179000D01*
X10025000Y16230000D01*
X9986000Y16297000D01*
X9912000Y16380000D01*
X9862000Y16421000D01*
X9816000Y16456000D01*
X9808000Y16460000D01*
X9722000Y16504000D01*
X9651000Y16525000D01*
X9650000Y16525000D01*
X9582000Y16541000D01*
X9582000Y16540000D01*
X9507000Y16546000D01*
X8662000Y16546000D01*
X8588000Y16540000D01*
X8522000Y16525000D01*
X8521000Y16525000D01*
X8450000Y16504000D01*
X8371000Y16463000D01*
X8302000Y16417000D01*
X8303000Y16417000D01*
X8247000Y16367000D01*
X8202000Y16316000D01*
X8200000Y16314000D01*
X8154000Y16244000D01*
X8115000Y16169000D01*
X8094000Y16097000D01*
X8079000Y16031000D01*
X8073000Y15957000D01*
X8073000Y14737000D01*
X8079000Y14662000D01*
X8078000Y14662000D01*
X8094000Y14594000D01*
X8094000Y14592000D01*
X8115000Y14522000D01*
X8159000Y14436000D01*
X8163000Y14429000D01*
X8198000Y14382000D01*
X8239000Y14332000D01*
X8322000Y14258000D01*
X8354000Y14237000D01*
X8389000Y14171000D01*
X8389000Y12523000D01*
X8301000Y12435000D01*
X-7801000Y12435000D01*
X-7846000Y12437000D01*
X-7904000Y12421000D01*
X-7914000Y12419000D01*
X-7971000Y12411000D01*
X-7994000Y12399000D01*
X-8010000Y12393000D01*
X-8040000Y12385000D01*
X-8086000Y12356000D01*
X-8094000Y12351000D01*
X-8145000Y12326000D01*
X-8170000Y12301000D01*
X-8187000Y12288000D01*
X-8191000Y12286000D01*
X-8632000Y11844000D01*
X-8817000Y11921000D01*
X-8817000Y12221000D01*
X-8904000Y12543000D01*
X-9069000Y12828000D01*
X-9301000Y13060000D01*
X-9611000Y13239000D01*
X-9611000Y13412000D01*
X-9303000Y13591000D01*
X-9302000Y13592000D01*
X-9068000Y13825000D01*
X-9067000Y13826000D01*
X-9008000Y13929000D01*
X-8938000Y13969000D01*
X3373000Y13969000D01*
X3418000Y13967000D01*
X3476000Y13983000D01*
X3486000Y13985000D01*
X3543000Y13993000D01*
X3566000Y14005000D01*
X3582000Y14011000D01*
X3612000Y14019000D01*
X3658000Y14048000D01*
X3666000Y14053000D01*
X3717000Y14078000D01*
X3742000Y14103000D01*
X3759000Y14116000D01*
X3763000Y14118000D01*
X3993000Y14348000D01*
X4048000Y14371000D01*
X4547000Y14371000D01*
X4640000Y14393000D01*
X4644000Y14394000D01*
X4646000Y14394000D01*
X4695000Y14411000D01*
X4696000Y14411000D01*
X4762000Y14443000D01*
X4823000Y14481000D01*
X4825000Y14483000D01*
X4883000Y14532000D01*
X4891000Y14540000D01*
X4937000Y14594000D01*
X4939000Y14597000D01*
X4983000Y14666000D01*
X5011000Y14730000D01*
X5012000Y14732000D01*
X5033000Y14788000D01*
X5047000Y14853000D01*
X5053000Y14909000D01*
X5053000Y15785000D01*
X5048000Y15833000D01*
X5030000Y15908000D01*
X5029000Y15914000D01*
X5014000Y15960000D01*
X5012000Y15964000D01*
X4981000Y16028000D01*
X4942000Y16091000D01*
X4891000Y16151000D01*
X4885000Y16157000D01*
X4825000Y16208000D01*
X4763000Y16247000D01*
X4696000Y16280000D01*
X4645000Y16297000D01*
X4640000Y16298000D01*
X4567000Y16315000D01*
X4564000Y16315000D01*
X4514000Y16321000D01*
X3692000Y16321000D01*
X3642000Y16315000D01*
X3639000Y16315000D01*
X3567000Y16298000D01*
X3562000Y16297000D01*
X3560000Y16297000D01*
X3519000Y16283000D01*
X3445000Y16250000D01*
X3435000Y16244000D01*
X3369000Y16198000D01*
X3321000Y16157000D01*
X3318000Y16154000D01*
X3275000Y16102000D01*
X3272000Y16099000D01*
X3239000Y16055000D01*
X3234000Y16046000D01*
X3192000Y15963000D01*
X3176000Y15912000D01*
X3175000Y15908000D01*
X3153000Y15812000D01*
X3153000Y15311000D01*
X3065000Y15223000D01*
X-8938000Y15223000D01*
X-9007000Y15263000D01*
X-9070000Y15369000D01*
X-9301000Y15600000D01*
X-9611000Y15779000D01*
X-9611000Y15952000D01*
X-9303000Y16131000D01*
X-9302000Y16132000D01*
X-9069000Y16364000D01*
X-8904000Y16651000D01*
X-8817000Y16972000D01*
X-8817000Y17301000D01*
X-8904000Y17623000D01*
X-9069000Y17908000D01*
X-9267000Y18106000D01*
X-9267000Y18230000D01*
X-5289000Y22208000D01*
X-5234000Y22231000D01*
X-2738000Y22231000D01*
X-2738000Y25020000D01*
X12351000Y25020000D01*
X12351000Y24980000D01*
X12361000Y24943000D01*
X12381000Y24909000D01*
X12409000Y24881000D01*
X12443000Y24861000D01*
X12480000Y24851000D01*
X12520000Y24851000D01*
X12557000Y24861000D01*
X12591000Y24881000D01*
X12619000Y24909000D01*
X12639000Y24943000D01*
X12649000Y24980000D01*
X12649000Y25020000D01*
X27351000Y25020000D01*
X27351000Y24980000D01*
X27361000Y24943000D01*
X27381000Y24909000D01*
X27409000Y24881000D01*
X27443000Y24861000D01*
X27480000Y24851000D01*
X27520000Y24851000D01*
X27557000Y24861000D01*
X27591000Y24881000D01*
X27619000Y24909000D01*
X27639000Y24943000D01*
X27649000Y24980000D01*
X27649000Y25020000D01*
X27639000Y25057000D01*
X27619000Y25091000D01*
X27591000Y25119000D01*
X27557000Y25139000D01*
X27520000Y25149000D01*
X27480000Y25149000D01*
X27443000Y25139000D01*
X27409000Y25119000D01*
X27381000Y25091000D01*
X27361000Y25057000D01*
X27351000Y25020000D01*
X12649000Y25020000D01*
X12639000Y25057000D01*
X12619000Y25091000D01*
X12591000Y25119000D01*
X12557000Y25139000D01*
X12520000Y25149000D01*
X12480000Y25149000D01*
X12443000Y25139000D01*
X12409000Y25119000D01*
X12381000Y25091000D01*
X12361000Y25057000D01*
X12351000Y25020000D01*
X-2738000Y25020000D01*
X-2738000Y25751000D01*
X-6048000Y25751000D01*
X-6048000Y23256000D01*
X-6071000Y23201000D01*
X-10517000Y18754000D01*
X-10520000Y18751000D01*
X-10567000Y18708000D01*
X-10598000Y18653000D01*
X-10603000Y18644000D01*
X-10639000Y18595000D01*
X-10640000Y18593000D01*
X-10649000Y18564000D01*
X-10655000Y18551000D01*
X-10666000Y18530000D01*
X-10677000Y18479000D01*
X-10679000Y18472000D01*
X-10696000Y18416000D01*
X-10697000Y18382000D01*
X-10698000Y18373000D01*
X-10700000Y18364000D01*
X-10699000Y18364000D01*
X-10700000Y18354000D01*
X-10700000Y18271000D01*
X-10740000Y18201000D01*
X-10843000Y18142000D01*
X-10844000Y18141000D01*
X-11077000Y17907000D01*
X-11078000Y17906000D01*
X-11241000Y17625000D01*
X-11244000Y17617000D01*
X-11328000Y17300000D01*
X-11328000Y16973000D01*
X-11243000Y16652000D01*
X-11242000Y16651000D01*
X-11078000Y16366000D01*
X-10843000Y16131000D01*
X-10534000Y15953000D01*
X-10534000Y15779000D01*
X-10845000Y15600000D01*
X-11077000Y15367000D01*
X-11078000Y15366000D01*
X-11241000Y15085000D01*
X-11244000Y15077000D01*
X-11328000Y14760000D01*
X-11328000Y14433000D01*
X-11242000Y14110000D01*
X-11078000Y13826000D01*
X-10843000Y13591000D01*
X-10534000Y13413000D01*
X-10534000Y13239000D01*
X-10845000Y13060000D01*
X-11077000Y12827000D01*
X-11078000Y12826000D01*
X-11241000Y12545000D01*
X-11244000Y12537000D01*
X-11328000Y12220000D01*
X-11328000Y11889000D01*
X-11298000Y11777000D01*
X-11319000Y11699000D01*
X-14856000Y8160000D01*
X-14859000Y8158000D01*
X-14889000Y8131000D01*
X-14912000Y8088000D01*
X-14918000Y8079000D01*
X-14959000Y8023000D01*
X-14961000Y8019000D01*
X-14972000Y7986000D01*
X-14976000Y7975000D01*
X-14987000Y7953000D01*
X-14997000Y7906000D01*
X-14999000Y7900000D01*
X-15018000Y7840000D01*
X-15019000Y7802000D01*
X-15020000Y7796000D01*
X-15021000Y7785000D01*
X-15021000Y7726000D01*
X-15023000Y7654000D01*
X-15021000Y7637000D01*
X-15021000Y6822000D01*
X-15109000Y6734000D01*
X-16294000Y6734000D01*
X-32250000Y6734000D01*
X-32250000Y9567000D01*
X-18096000Y9567000D01*
X-18096000Y9465000D01*
X-18067000Y9359000D01*
X-18013000Y9267000D01*
X-17942000Y9196000D01*
X-17848000Y9141000D01*
X-17744000Y9113000D01*
X-17642000Y9113000D01*
X-17537000Y9141000D01*
X-17443000Y9196000D01*
X-17371000Y9268000D01*
X-17318000Y9359000D01*
X-17290000Y9464000D01*
X-17290000Y9571000D01*
X-17315000Y9667000D01*
X-17315000Y9669000D01*
X-17371000Y9765000D01*
X-17444000Y9838000D01*
X-17540000Y9893000D01*
X-17638000Y9919000D01*
X-17745000Y9919000D01*
X-17848000Y9892000D01*
X-17849000Y9891000D01*
X-17941000Y9838000D01*
X-18013000Y9766000D01*
X-18068000Y9671000D01*
X-18096000Y9567000D01*
X-32250000Y9567000D01*
X-32250000Y12107000D01*
X-18096000Y12107000D01*
X-18096000Y12005000D01*
X-18068000Y11901000D01*
X-18013000Y11807000D01*
X-17942000Y11736000D01*
X-17848000Y11681000D01*
X-17744000Y11653000D01*
X-17642000Y11653000D01*
X-17537000Y11681000D01*
X-17443000Y11736000D01*
X-17371000Y11808000D01*
X-17319000Y11898000D01*
X-17317000Y11901000D01*
X-17290000Y12004000D01*
X-17290000Y12111000D01*
X-17315000Y12207000D01*
X-17315000Y12208000D01*
X-17371000Y12305000D01*
X-17444000Y12378000D01*
X-17540000Y12433000D01*
X-17638000Y12459000D01*
X-17745000Y12459000D01*
X-17848000Y12432000D01*
X-17849000Y12431000D01*
X-17941000Y12378000D01*
X-18013000Y12306000D01*
X-18068000Y12211000D01*
X-18096000Y12107000D01*
X-32250000Y12107000D01*
X-32250000Y14647000D01*
X-18096000Y14647000D01*
X-18096000Y14543000D01*
X-18067000Y14440000D01*
X-18013000Y14347000D01*
X-17942000Y14276000D01*
X-17848000Y14221000D01*
X-17744000Y14193000D01*
X-17642000Y14193000D01*
X-17537000Y14221000D01*
X-17443000Y14276000D01*
X-17371000Y14348000D01*
X-17318000Y14440000D01*
X-17291000Y14540000D01*
X-17290000Y14543000D01*
X-17290000Y14650000D01*
X-17316000Y14749000D01*
X-17371000Y14845000D01*
X-17444000Y14918000D01*
X-17540000Y14973000D01*
X-17638000Y14999000D01*
X-17745000Y14999000D01*
X-17848000Y14972000D01*
X-17849000Y14971000D01*
X-17941000Y14918000D01*
X-18013000Y14846000D01*
X-18069000Y14750000D01*
X-18069000Y14749000D01*
X-18096000Y14647000D01*
X-32250000Y14647000D01*
X-32250000Y18398000D01*
X-18955000Y18398000D01*
X-18955000Y15874000D01*
X-16431000Y15874000D01*
X-16431000Y18398000D01*
X-16978000Y18398000D01*
X-17066000Y18486000D01*
X-17066000Y22780000D01*
X-17021000Y22852000D01*
X-16983000Y22871000D01*
X-16909000Y22920000D01*
X-16839000Y22983000D01*
X-16728000Y22985000D01*
X-16641000Y22914000D01*
X-16639000Y22912000D01*
X-16588000Y22876000D01*
X-16576000Y22869000D01*
X-16496000Y22832000D01*
X-16427000Y22811000D01*
X-16420000Y22809000D01*
X-16418000Y22808000D01*
X-16368000Y22797000D01*
X-16364000Y22797000D01*
X-16360000Y22796000D01*
X-16290000Y22791000D01*
X-15444000Y22791000D01*
X-15370000Y22797000D01*
X-15304000Y22812000D01*
X-15303000Y22812000D01*
X-15232000Y22833000D01*
X-15153000Y22874000D01*
X-15084000Y22920000D01*
X-15029000Y22970000D01*
X-14984000Y23020000D01*
X-14937000Y23091000D01*
X-14896000Y23171000D01*
X-14877000Y23238000D01*
X-14866000Y23294000D01*
X-14782000Y23364000D01*
X-12336000Y23364000D01*
X-12248000Y23276000D01*
X-12248000Y22231000D01*
X-8938000Y22231000D01*
X-8938000Y25751000D01*
X-12248000Y25751000D01*
X-12248000Y24706000D01*
X-12336000Y24618000D01*
X-14782000Y24618000D01*
X-14866000Y24688000D01*
X-14875000Y24738000D01*
X-14896000Y24807000D01*
X-14933000Y24887000D01*
X-14940000Y24899000D01*
X-14986000Y24962000D01*
X-15033000Y25015000D01*
X-15085000Y25062000D01*
X-15084000Y25062000D01*
X-15158000Y25111000D01*
X-15224000Y25144000D01*
X-15302000Y25174000D01*
X-15308000Y25175000D01*
X-15381000Y25186000D01*
X-15388000Y25186000D01*
X-15436000Y25191000D01*
X-16299000Y25191000D01*
X-16349000Y25186000D01*
X-16355000Y25186000D01*
X-16425000Y25175000D01*
X-16434000Y25173000D01*
X-16509000Y25144000D01*
X-16579000Y25111000D01*
X-16588000Y25106000D01*
X-16637000Y25071000D01*
X-16640000Y25068000D01*
X-16730000Y24995000D01*
X-16843000Y24999000D01*
X-16909000Y25062000D01*
X-16983000Y25111000D01*
X-17049000Y25144000D01*
X-17127000Y25174000D01*
X-17133000Y25175000D01*
X-17206000Y25186000D01*
X-17213000Y25186000D01*
X-17261000Y25191000D01*
X-18124000Y25191000D01*
X-18174000Y25186000D01*
X-18180000Y25186000D01*
X-18250000Y25175000D01*
X-18259000Y25173000D01*
X-18334000Y25144000D01*
X-18404000Y25111000D01*
X-18413000Y25106000D01*
X-18466000Y25068000D01*
X-18523000Y25021000D01*
X-18583000Y24954000D01*
X-18631000Y24880000D01*
X-18659000Y24819000D01*
X-18689000Y24738000D01*
X-18689000Y24736000D01*
X-18700000Y24666000D01*
X-18700000Y24660000D01*
X-18705000Y24613000D01*
X-18705000Y23369000D01*
X-18700000Y23322000D01*
X-18700000Y23316000D01*
X-18689000Y23246000D01*
X-18685000Y23230000D01*
X-18657000Y23158000D01*
X-18626000Y23096000D01*
X-18592000Y23039000D01*
X-18520000Y22958000D01*
X-18466000Y22914000D01*
X-18464000Y22912000D01*
X-18413000Y22876000D01*
X-18405000Y22871000D01*
X-18370000Y22856000D01*
X-18320000Y22781000D01*
X-18320000Y18486000D01*
X-18408000Y18398000D01*
X-18955000Y18398000D01*
X-32250000Y18398000D01*
X-32250000Y34662000D01*
X-32162000Y34750000D01*
X32162000Y34750000D01*
X32250000Y34662000D01*
X32250000Y-34662000D01*
X32162000Y-34750000D01*
G37*
%TD.AperFunction*%
%TD*%
M02*
